SplineFontDB: 2.0
FontName: Mekorot-Vilna-Italic
FullName: Mekorot Vilna Italic Font 
FamilyName: Mekorot-Vilna
Weight: Normal
Copyright: Copyright .51 2002-2004 by Maxim Iorsh (iorsh@math.technion.ac.il). Distributed under the terms of GNU General Public License version 2(http://www.gnu.org/licenses/gpl.html). \nLatin glyphs, digits and punctuation Copyright (URW)++,Copyright 1999 by (URW)++ Design & Development.\nSlightly modified and slanted by Moshe Wagner (moshe.wagner@gmail.com) for the mekorot project (mekorot.sf.net)\nAll rights reserved.
Version: 0.100
ItalicAngle: -15
UnderlinePosition: -100
UnderlineWidth: 50
Ascent: 960
Descent: 240
NeedsXUIDChange: 1
UniqueID: 4189888
FSType: 0
OS2Version: 0
OS2_WeightWidthSlopeOnly: 0
OS2_UseTypoMetrics: 0
CreationTime: 1195722669
ModificationTime: 1227556237
PfmFamily: 17
TTFWeight: 700
TTFWidth: 5
LineGap: 108
VLineGap: 0
OS2TypoAscent: 0
OS2TypoAOffset: 1
OS2TypoDescent: 0
OS2TypoDOffset: 1
OS2TypoLinegap: 108
OS2WinAscent: 0
OS2WinAOffset: 1
OS2WinDescent: 0
OS2WinDOffset: 1
HheadAscent: 0
HheadAOffset: 1
HheadDescent: 0
HheadDOffset: 1
OS2Vendor: 'PfEd'
Lookup: 258 0 0 "'kern' Horizontal Kerning lookup 0"  {"'kern' Horizontal Kerning lookup 0 subtable"  } ['kern' ('DFLT' <'dflt' > ) ]
Lookup: 258 0 0 "'kern' Horizontal Kerning in Latin lookup 0"  {"'kern' Horizontal Kerning in Latin lookup 0 subtable"  } ['kern' ('latn' <'dflt' > ) ]
DEI: 0
LangName: 1033 
Encoding: Custom
UnicodeInterp: none
NameList: Adobe Glyph List
DisplaySize: -24
AntiAlias: 1
FitToEm: 1
WinInfo: 0 42 18
BeginPrivate: 7
BlueValues 31 [-20 0 461 481 600 650 676 696]
BlueScale 8 0.039625
StdHW 4 [33]
StdVW 5 [140]
StemSnapH 200 [33 44 48 55 66 73] 
systemdict /internaldict known
{1183615869 systemdict /internaldict get exec
/StemSnapLength 2 copy known { get 6 lt } { pop pop true } ifelse }
{ true } ifelse { pop [33 66] } if
StemSnapV 208 [118 140 148 163 174 178] 
systemdict /internaldict known
{1183615869 systemdict /internaldict get exec

StartChar: exclam
Encoding: 33 33 1
Width: 333
Flags: HMW
Validated: 33
HStem: -13 169<143 189> 671 20<139 192.5>
VStem: 82 169<48 93.5 47 94.5>
Fore
207.8 156 m 0
 254.8 156 282.35 117 269.757 70 c 0
 257.431 24 209.517 -13 161.517 -13 c 0
 114.517 -13 88.4307 24 101.292 72 c 0
 113.35 117 161.8 156 207.8 156 c 0
242.7 234 m 1
 213.7 234 l 1
 233.658 357 237.056 407 233.511 502 c 0
 231.568 547 232.659 566 239.358 591 c 0
 256.238 654 297.153 691 351.153 691 c 0
 404.153 691 425.238 654 407.822 589 c 0
 401.659 566 392.3 546 366.511 502 c 0
 310.787 406 288.658 357 242.7 234 c 1
EndSplineSet
EndChar
StartChar: quotedbl
Encoding: 34 34 2
Width: 555
Flags: HMW
Validated: 33
HStem: 671 20<128 165.5 388 425.5>
Fore
276.252 404 m 1
 235.252 404 l 1
 236.146 426 237.237 445 237.113 452 c 0
 238.353 535 243.502 599 249.129 620 c 0
 260.65 663 294.153 691 332.153 691 c 0
 369.153 691 389.383 662 379.2 624 c 0
 373.306 602 349.64 551 276.252 404 c 1
536.252 404 m 1
 495.252 404 l 1
 495.879 425 496.237 445 497.113 452 c 0
 498.621 536 503.502 599 509.129 620 c 0
 520.65 663 554.153 691 592.153 691 c 0
 629.153 691 649.383 662 639.2 624 c 0
 633.306 602 602.889 537 536.252 404 c 1
EndSplineSet
EndChar
StartChar: numbersign
Encoding: 35 35 3
Width: 500
Flags: HMW
Validated: 1
HStem: 0 20 210 73<4 100 4 111 189 291 4 178 380 467> 417 73<33 129 33 139 33 207 217 320 408 496>
Fore
542.83 283 m 1
 523.27 210 l 1
 425.27 210 l 1
 340 0 l 1
 262 0 l 1
 347.27 210 l 1
 234.27 210 l 1
 149 0 l 1
 71 0 l 1
 156.27 210 l 1
 60.2695 210 l 1
 79.8301 283 l 1
 186.83 283 l 1
 240.734 417 l 1
 144.734 417 l 1
 164.295 490 l 1
 270.295 490 l 1
 356.564 700 l 1
 433.564 700 l 1
 348.295 490 l 1
 461.295 490 l 1
 547.564 700 l 1
 624.564 700 l 1
 539.295 490 l 1
 627.295 490 l 1
 607.734 417 l 1
 509.734 417 l 1
 455.83 283 l 1
 542.83 283 l 1
431.734 417 m 1
 318.734 417 l 1
 264.83 283 l 1
 377.83 283 l 1
 431.734 417 l 1
EndSplineSet
EndChar
StartChar: dollar
Encoding: 36 36 4
Width: 500
Flags: W
Validated: 33
HStem: 481 21G<534.781 562.243> 641 33<449.598 514.513>
VStem: 57.5215 537.143<43 622 190.786 418.547>
Fore
556.884 481 m 1
 535.884 481 l 1
 533.679 581 507.468 625 440.756 641 c 1
 383.146 426 l 1
 466.749 376 491.39 356 515.672 316 c 0
 533.901 287 537.38 244 524.518 196 c 0
 509.513 140 480.455 95 438.881 63 c 0
 398.574 32 355.02 15 269 0 c 1
 242.473 -99 l 1
 187.473 -99 l 1
 214 0 l 1
 152.804 3 130.411 9 57.5215 43 c 1
 99.3223 199 l 1
 119.786 197 l 1
 122.848 89 150.79 44 221.038 30 c 1
 288.294 281 l 1
 172.246 348 138.056 407 161.902 496 c 0
 178.783 559 223.985 612 287.56 644 c 0
 323.114 661 346.722 667 394.062 672 c 1
 414.962 750 l 1
 469.962 750 l 1
 449.598 674 l 1
 524.114 661 555.167 650 594.664 622 c 1
 556.884 481 l 1
335.987 250 m 1
 277.038 30 l 1
 343.254 42 382.096 75 397.905 134 c 0
 412.374 188 403.93 205 335.987 250 c 1
334.648 454 m 1
 385.56 644 l 1
 318.272 628 285.306 602 272.443 554 c 0
 260.118 508 280.275 475 334.648 454 c 1
EndSplineSet
EndChar
StartChar: percent
Encoding: 37 37 5
Width: 1000
Flags: W
Validated: 33
HStem: -14 46<628.588 759.249> 294 46<298.74 427.615> 321 51<820.552 911.24> 585 38<635.072 758.757> 672 20<473.67 544.17 872.921 913.421>
Fore
860.677 372 m 0xb8
 930.677 372 964.619 327 945.863 257 c 0
 924.963 179 868.455 95 799.45 39 c 0
 759.607 6 708.249 -14 664.249 -14 c 0
 584.249 -14 545.986 41 568.494 125 c 0
 601.451 248 747.677 372 860.677 372 c 0xb8
878.012 321 m 0
 852.012 321 825.725 305 791.078 269 c 0
 744.949 220 686.565 129 675.579 88 c 0
 665.934 52 677.574 32 709.574 32 c 0
 746.574 32 789.345 61 834.082 116 c 0
 875.479 166 900.001 209 910.72 249 c 0
 921.705 290 908.012 321 878.012 321 c 0
913.421 692 m 1
 331.856 -8 l 1
 276.856 -8 l 1
 790.985 612 l 1
 744.162 594 702.75 585 668.75 585 c 0
 654.75 585 643.019 586 623.09 590 c 1
 598.242 501 567.237 445 508.625 383 c 0
 453.084 325 391.777 294 331.777 294 c 0xd8
 255.777 294 217.782 350 239.218 430 c 0
 273.516 558 415.67 678 531.67 678 c 0
 556.67 678 577.526 670 599.435 651 c 0
 624.54 629 643.933 623 684.933 623 c 0
 745.933 623 827.167 650 857.474 681 c 0
 864.349 688 870.421 692 875.421 692 c 2
 913.421 692 l 1
540.076 631 m 0
 524.611 633 493.985 612 464.679 581 c 0
 415.745 529 359.434 442 344.107 396 c 0
 333.533 364 347.103 340 377.103 340 c 0
 409.103 340 441.193 359 481.447 401 c 0
 531.648 454 571.065 519 584.463 569 c 0
 590.358 591 585.842 604 567.253 613 c 0
 561.789 615 561.057 616 553.933 623 c 0
 546.54 629 543.808 630 540.076 631 c 0
EndSplineSet
EndChar
StartChar: ampersand
Encoding: 38 38 6
Width: 833
Flags: W
Validated: 33
HStem: -16 101<593.213 743.775> -15 76<226.018 390.96> 395 24<689.271 740.608> 658 33<500.268 597.122>
Fore
689.271 419 m 1x70
 895.271 419 l 1
 888.84 395 l 1
 844.769 391 830.893 384 805.122 355 c 2
 766.332 311 l 2
 727.811 268 712.523 252 637.159 176 c 1
 673.867 104 693.775 85 731.775 85 c 0
 755.775 85 775.723 96 799.958 123 c 1
 816.742 111 l 1
 793.775 85 l 2
 757.79 44 740.503 28 721.02 15 c 0
 692.196 -3 650.713 -16 619.713 -16 c 0xb0
 566.713 -16 536.607 6 494.292 72 c 1
 395.947 11 322.98 -15 248.98 -15 c 0
 136.98 -15 77.541 58 105.14 161 c 0
 130.327 255 201.208 318 361.964 388 c 1
 340.453 457 337.027 489 348.817 533 c 0
 374.808 630 466.153 691 586.153 691 c 0
 687.153 691 740.291 643 720.463 569 c 0
 703.582 506 645.793 462 529.343 423 c 1
 623.001 209 l 1
 700.294 281 727.136 314 737.854 354 c 0
 745.625 383 739.964 388 682.84 395 c 1
 689.271 419 l 1x70
399.634 286 m 2
 370.926 358 l 1
 307.352 326 281.652 301 271.738 264 c 0
 257.806 212 269.656 148 300.599 103 c 0
 318.632 77 348.345 61 378.345 61 c 0x70
 404.345 61 432.292 72 478.795 100 c 1
 458.049 142 444.623 174 399.634 286 c 2
518.113 452 m 1
 572.668 469 598.831 492 609.816 533 c 0
 627.77 600 600.311 658 551.311 658 c 0
 519.311 658 493.684 637 484.306 602 c 0
 473.319 561 482.798 518 518.113 452 c 1
EndSplineSet
EndChar
StartChar: quotesingle
Encoding: 39 39 7
Width: 278
Flags: HMW
Validated: 33
HStem: 671 20<120 157.5>
Fore
268.252 404 m 1
 227.252 404 l 1
 227.878 425 228.237 445 229.113 452 c 0
 230.353 535 235.502 599 241.129 620 c 0
 252.65 663 286.153 691 324.153 691 c 0
 361.153 691 381.383 662 371.2 624 c 0
 365.306 602 339.836 548 268.252 404 c 1
EndSplineSet
EndChar
StartChar: parenleft
Encoding: 40 40 8
Width: 333
Flags: HMW
Validated: 33
HStem: 674 20<306 306>
VStem: 46 113<213.5 323.5>
Fore
491.957 694 m 1
 484.722 667 l 1
 414.004 627 383.037 601 350.248 557 c 0
 306.171 497 265.107 396 228.131 258 c 0
 191.422 121 180.771 29 194.157 -33 c 0
 203.1 -78 221.133 -104 268.487 -140 c 1
 260.984 -168 l 1
 178.794 -109 146.512 -69 119.804 3 c 0
 92.168 79 91.0156 168 115.398 259 c 0
 149.964 388 227.851 507 337.502 599 c 0
 387.487 640 421.114 661 491.957 694 c 1
EndSplineSet
EndChar
StartChar: parenright
Encoding: 41 41 9
Width: 333
Flags: HMW
Validated: 33
HStem: 674 20<27 27>
VStem: 174 113<202 312 202 336>
Fore
-18.0156 -168 m 1
 -10.7812 -141 l 1
 59.9375 -101 91.9043 -75 123.693 -31 c 0
 167.771 29 208.833 130 245.811 268 c 0
 282.252 404 293.171 497 279.783 559 c 0
 270.842 604 252.54 629 205.454 666 c 1
 212.957 694 l 1
 295.147 635 327.43 595 354.138 523 c 0
 381.773 447 382.926 358 358.274 266 c 0
 323.977 138 246.091 19 135.439 -73 c 0
 86.4541 -114 52.8271 -135 -18.0156 -168 c 1
EndSplineSet
EndChar
StartChar: asterisk
Encoding: 42 42 10
Width: 500
Flags: HMW
Validated: 33
HStem: 671 20<237 266>
VStem: 226 52<472 476 468 479 468 479>
Fore
405.544 476 m 1
 403.4 468 l 1
 434.845 451 448.773 447 492.701 443 c 0
 545.63 439 560.879 425 552.036 392 c 0
 544.533 364 517.639 342 489.639 342 c 0
 462.639 342 450.122 355 431.252 404 c 0
 418.754 432 412.63 439 387.648 454 c 1
 379.31 449 l 1
 372.252 404 372.232 389 381.515 349 c 0
 386.888 328 387.476 319 384.261 307 c 0
 376.49 278 348.327 255 319.327 255 c 0
 290.327 255 277.49 278 286.601 312 c 0
 290.888 328 296.299 337 314.193 359 c 0
 343.304 393 347.983 403 361.31 449 c 1
 355.648 454 l 1
 310.146 426 300.003 418 262.553 379 c 0
 234.246 348 218.835 339 197.835 339 c 0
 169.835 339 153.729 361 161.232 389 c 0
 171.146 426 205.237 445 261.237 445 c 0
 303.773 447 314.577 450 352.472 472 c 1
 354.348 479 l 1
 319.171 497 304.242 501 259.314 505 c 0
 208.386 509 195.602 521 205.248 557 c 0
 213.019 586 237.377 606 266.377 606 c 0
 293.377 606 305.43 595 317.319 561 c 0
 331.602 521 335.994 515 368.367 494 c 1
 376.171 497 l 1
 386.425 539 386.372 550 375.554 588 c 0
 368.521 614 367.2 624 371.756 641 c 0
 379.258 669 407.153 691 437.153 691 c 0
 465.153 691 479.258 669 470.416 636 c 0
 466.396 621 460.717 611 441.554 588 c 0
 417.052 560 406.961 541 400.262 516 c 2
 395.171 497 l 1
 402.367 494 l 1
 447.138 523 457.817 533 493.731 570 c 0
 522.037 601 536.181 609 558.181 609 c 0
 585.181 609 603.75 585 596.783 559 c 0
 591.961 541 570.065 519 547.654 510 c 0
 534.314 505 524.778 503 500.778 503 c 0
 457.242 501 444.171 497 405.544 476 c 1
EndSplineSet
EndChar
StartChar: plus
Encoding: 43 43 11
Width: 570
Flags: HMW
Validated: 1
HStem: 0 20 209 88<33 241 33 241 329 537>
VStem: 241 88<0 209 0 209 297 506>
Fore
320.581 297 m 1
 376.582 506 l 1
 464.582 506 l 1
 408.581 297 l 1
 616.581 297 l 1
 593.001 209 l 1
 385.001 209 l 1
 329 0 l 1
 241 0 l 1
 297.001 209 l 1
 89.001 209 l 1
 112.581 297 l 1
 320.581 297 l 1
EndSplineSet
EndChar
StartChar: comma
Encoding: 44 44 12
Width: 250
Flags: W
Validated: 33
HStem: -180 335<8.76953 163.532 110.803 185.525> -6 161<93.7931 127.367 110.803 185.525>
VStem: 3.66406 229.786<-158 39 -210.729 -136.008> 58.292 175.158<19.7332 144.278>
Fore
8.76953 -180 m 1xa0
 3.66406 -158 l 1xa0
 92.5977 -106 137.852 -64 148.033 -26 c 0
 151.517 -13 145.928 -4 134.928 -4 c 0
 132.928 -4 130.928 -4 127.66 -5 c 0
 121.393 -6 115.393 -6 110.393 -6 c 0
 67.3926 -6 45.9668 26 58.292 72 c 0x50
 71.6895 122 113.532 155 163.532 155 c 0
 223.532 155 251.938 108 233.45 39 c 0
 210.406 -47 142.722 -113 8.76953 -180 c 1xa0
EndSplineSet
EndChar
StartChar: hyphen
Encoding: 45 45 13
Width: 333
Flags: HMW
Validated: 1
HStem: 171 116<44 287 44 287>
VStem: 44 243<171 287 171 287>
Fore
363.901 287 m 1
 332.819 171 l 1
 89.8193 171 l 1
 120.901 287 l 1
 363.901 287 l 1
EndSplineSet
EndChar
StartChar: period
Encoding: 46 46 14
Width: 250
Flags: HMW
Validated: 33
HStem: -13 20
Fore
166.8 156 m 0
 213.8 156 241.35 117 228.757 70 c 0
 216.431 24 168.517 -13 120.517 -13 c 0
 73.5166 -13 47.4307 24 60.292 72 c 0
 72.3496 117 120.8 156 166.8 156 c 0
EndSplineSet
EndChar
StartChar: slash
Encoding: 47 47 15
Width: 278
Flags: HMW
Validated: 1
HStem: -19 20 671 20<212 302 302 302>
Fore
487.153 691 m 1
 60.9092 -19 l 1
 -29.0908 -19 l 1
 397.153 691 l 1
 487.153 691 l 1
EndSplineSet
EndChar
StartChar: zero
Encoding: 48 48 16
Width: 500
Flags: W
Validated: 33
HStem: -13 28<221.285 303.08> 660 28<376.823 459.406>
VStem: 115.103 451.196<136 222 340 423 337 340 340 340>
Fore
434.349 688 m 0
 563.349 688 619.889 537 566.299 337 c 0
 512.441 136 376.517 -13 247.517 -13 c 0
 114.517 -13 59.9053 134 115.103 340 c 0
 137.343 423 184.529 517 231.267 572 c 0
 291.56 644 369.349 688 434.349 688 c 0
377.484 222 m 2
 438.845 451 l 2
 478.233 598 474.847 660 425.847 660 c 0
 377.847 660 343.306 602 302.845 451 c 2
 241.484 222 l 2
 201.828 74 205.02 15 255.02 15 c 0
 278.02 15 297.771 29 316.541 58 c 0
 332.775 85 361.676 163 377.484 222 c 2
EndSplineSet
EndChar
StartChar: one
Encoding: 49 49 17
Width: 500
Flags: W
Validated: 33
HStem: 0 24<73.4307 182.864 360.747 442> 668 20G<449.751 518.349>
VStem: 67 451.349<0 688 -87.6838 -6.43066>
Fore
501.349 688 m 1
 518.349 688 l 1
 365.618 118 l 2
 344.986 41 357.967 26 448.431 24 c 1
 442 0 l 1
 67 0 l 1
 73.4307 24 l 1
 172.699 25 197.254 42 219.226 124 c 2
 322.386 509 l 2
 334.979 556 329.875 578 304.875 578 c 0
 291.875 578 264.999 571 235.319 561 c 1
 231.783 559 222.979 556 213.176 553 c 1
 220.143 579 l 1
 501.349 688 l 1
EndSplineSet
EndChar
StartChar: two
Encoding: 50 50 18
Width: 500
Flags: W
Validated: 33
HStem: 0 133<195.638 433> 574 114<307.241 473.129>
VStem: 17 554.314<0 505 1.53064e-18 1.53064e-18>
Fore
534.537 211 m 1
 433 0 l 1
 17 0 l 1
 23.1631 23 l 1
 210.963 179 257.217 221 329.117 299 c 0
 374.246 348 407.983 403 419.773 447 c 0
 425.937 470 425.438 498 419.065 519 c 0
 406.712 555 378.803 574 334.803 574 c 0
 280.803 574 236.3 546 188.688 484 c 1
 160.688 484 l 1
 208.783 559 237.894 593 287.344 632 c 0
 331.99 668 385.349 688 435.349 688 c 0
 543.349 688 599.985 612 571.314 505 c 0
 550.95 429 497.998 362 398.901 287 c 2
 195.638 133 l 1
 346.638 133 l 2
 448.638 133 462.245 139 510.537 211 c 1
 534.537 211 l 1
EndSplineSet
EndChar
StartChar: three
Encoding: 51 51 19
Width: 500
Flags: W
Validated: 33
HStem: -14 50<144.201 302.93> 607 81<333.15 480.959>
VStem: 36.3643 540.275<76 551 76 76>
Fore
198.138 523 m 1
 180.353 535 l 1
 262.951 638 351.349 688 450.349 688 c 0
 552.349 688 599.684 637 576.64 551 c 0
 560.831 492 534.061 463 459.61 424 c 1
 494.787 406 508.572 394 523.142 370 c 0
 542.763 335 546.241 292 533.916 246 c 0
 494.795 100 332.249 -14 165.249 -14 c 0
 73.249 -14 21.8945 22 36.3643 76 c 0
 45.4746 110 78.9053 134 116.905 134 c 0
 146.905 134 172.618 118 201.168 79 c 0
 225.594 47 241.646 36 265.646 36 c 0
 325.646 36 375.972 82 395.265 154 c 0
 408.126 202 402.184 247 378.954 276 c 0
 352.064 310 323.619 327 248.39 356 c 1
 252.945 373 l 1
 355.983 403 400.361 438 418.047 504 c 0
 434.927 567 406.646 607 343.646 607 c 0
 291.646 607 252.482 584 198.138 523 c 1
EndSplineSet
EndChar
StartChar: four
Encoding: 52 52 20
Width: 500
Flags: W
Validated: 1
HStem: 0 21G<267 417.359> 144 111<128.327 305.585 480.327 513.585> 668 20G<495.665 596.349>
VStem: 57.585 538.764<144 688 144 177.258>
Fore
480.327 255 m 1
 543.327 255 l 1
 513.585 144 l 1
 450.585 144 l 1
 412 0 l 1
 267 0 l 1
 305.585 144 l 1
 57.585 144 l 1
 87.8633 257 l 1
 173.318 352 263.97 444 436.717 611 c 2
 516.349 688 l 1
 596.349 688 l 1
 480.327 255 l 1
337.327 255 m 1
 416.908 552 l 1
 128.327 255 l 1
 337.327 255 l 1
EndSplineSet
EndChar
StartChar: five
Encoding: 53 53 21
Width: 500
Flags: W
Validated: 33
HStem: -8 61<152.419 307.048> 549 127<329.134 574.104>
Fore
296.104 549 m 1
 252.4 468 l 1
 333.061 463 362.988 459 398.041 448 c 0
 498.734 417 541.299 337 513.433 233 c 0
 475.651 92 331.856 -8 166.856 -8 c 0
 77.8564 -8 29.2344 27 43.4355 80 c 0
 52.8145 115 85.5127 140 121.513 140 c 0
 147.513 140 174.029 127 208.455 95 c 0
 240.417 65 264.201 53 287.201 53 c 0
 343.201 53 398.991 97 413.996 153 c 0
 431.681 219 393.954 276 312.457 304 c 0
 272.208 318 232.815 324 139.691 331 c 1
 329.134 676 l 1
 651.134 676 l 1
 574.104 549 l 1
 296.104 549 l 1
EndSplineSet
EndChar
StartChar: six
Encoding: 54 54 22
Width: 500
Flags: W
Validated: 33
HStem: -13 27<224.216 319.622> 376 45<333.614 449.783> 662 26<508.591 643.904>
VStem: 101.15 553.198<273 688 273 273>
Fore
654.349 688 m 1
 647.383 662 l 1
 493.344 632 388.64 551 312.252 404 c 1
 345.734 417 368.807 421 400.807 421 c 0
 514.807 421 566.906 343 534.484 222 c 0
 498.044 86 380.517 -13 256.517 -13 c 0
 116.517 -13 54.7949 100 101.15 273 c 0
 136.787 406 225.798 518 358.43 595 c 0
 448.363 647 516.258 669 654.349 688 c 1
333.749 376 m 0
 319.749 376 304.677 372 295.069 366 c 0
 286.729 361 265.457 304 248.844 242 c 0
 223.925 149 214.364 76 222.521 43 c 0
 227.431 24 242.751 14 265.751 14 c 0
 314.751 14 334.79 44 366.408 162 c 0
 409.012 321 400.749 376 333.749 376 c 0
EndSplineSet
EndChar
StartChar: seven
Encoding: 55 55 23
Width: 500
Flags: W
Validated: 1
HStem: 0 21G<147 254.312> 539 137<242.134 491.425>
VStem: 138.649 519.484<454 676 454 454>
Fore
658.134 676 m 1
 242 0 l 1
 147 0 l 1
 491.425 539 l 1
 284.425 539 l 2
 229.425 539 199.798 518 163.649 454 c 1
 138.649 454 l 1
 242.134 676 l 1
 658.134 676 l 1
EndSplineSet
EndChar
StartChar: eight
Encoding: 56 56 24
Width: 500
Flags: W
Validated: 33
HStem: -13 32<196.819 318.236> 659 29<361.757 479.619>
VStem: 70.0684 533.428<157 543 111.341 247.625>
Fore
264.815 324 m 1
 181.625 383 156.361 438 176.458 513 c 0
 204.593 618 312.349 688 447.349 688 c 0
 566.349 688 627.344 632 603.496 543 c 0
 586.348 479 535.361 438 430.252 404 c 1
 519.031 336 545.418 274 522.106 187 c 0
 489.952 67 375.517 -13 236.517 -13 c 0
 109.517 -13 42.7373 55 70.0684 157 c 0
 81.8574 201 107.04 239 143.542 267 c 0
 176.241 292 202.725 305 264.815 324 c 1
411.074 422 m 1
 455.864 466 470.027 489 482.621 536 c 0
 503.521 614 483.578 659 427.578 659 c 0
 380.578 659 334.933 623 322.339 576 c 0
 307.334 520 338.597 465 411.074 422 c 1
281.992 306 m 1
 226.184 247 206.877 216 192.14 161 c 0
 168.292 72 190.091 19 251.091 19 c 0
 305.091 19 349.077 60 367.029 127 c 0
 386.857 201 371.433 233 281.992 306 c 1
EndSplineSet
EndChar
StartChar: nine
Encoding: 57 57 25
Width: 500
Flags: W
Validated: 33
HStem: -13 26<34.4834 167.784> 254 45<232.156 371.197> 661 27<362.094 457.234>
VStem: 27.5166 553.199<-13 402 -13 -13>
Fore
27.5166 -13 m 1
 34.4834 13 l 1
 186.254 42 288.422 121 372.15 273 c 1
 341.398 259 314.059 254 276.059 254 c 0
 167.06 254 115.495 334 147.113 452 c 0
 183.822 589 300.349 688 425.349 688 c 0
 565.349 688 627.07 575 580.716 402 c 0
 546.686 275 464.016 168 341.384 91 c 0
 247.574 32 172.876 7 27.5166 -13 c 1
396.888 328 m 2
 406.854 354 l 2
 421.912 399 432.486 431 439.721 458 c 0
 458.745 529 467.502 599 460.004 627 c 0
 455.167 650 441.114 661 416.114 661 c 0
 367.114 661 347.076 631 315.994 515 c 0
 273.926 358 281.117 299 343.117 299 c 0
 358.117 299 378.188 303 386.528 308 c 0
 390.064 310 392.404 315 396.888 328 c 2
EndSplineSet
EndChar
StartChar: colon
Encoding: 58 58 26
Width: 333
Flags: HMW
Validated: 33
HStem: -13 169<143 189> 303 169<143 189.5 143 189.5>
Fore
207.8 156 m 0
 254.8 156 282.35 117 269.757 70 c 0
 257.431 24 209.517 -13 161.517 -13 c 0
 114.517 -13 88.4307 24 101.292 72 c 0
 113.35 117 161.8 156 207.8 156 c 0
292.472 472 m 0
 339.472 472 367.29 434 354.696 387 c 0
 342.371 341 294.188 303 247.188 303 c 0
 199.188 303 173.103 340 186.232 389 c 0
 198.29 434 246.472 472 292.472 472 c 0
EndSplineSet
EndChar
StartChar: semicolon
Encoding: 59 59 27
Width: 333
Flags: W
Validated: 33
HStem: -6 21G<145.393 171.928> 303 169<224.827 314.898>
VStem: 46.6641 308.032<-158 387 165.491 238.848>
Fore
51.7695 -180 m 1
 46.6641 -158 l 1
 135.598 -106 180.852 -64 191.301 -25 c 0
 194.249 -14 188.928 -4 178.928 -4 c 2
 171.928 -4 l 1
 159.393 -6 l 1
 151.393 -6 l 2
 139.393 -6 118.536 2 110.947 11 c 0
 97.6992 25 94.3252 46 101.292 72 c 0
 114.689 122 156.532 155 206.532 155 c 0
 266.532 155 294.938 108 276.45 39 c 0
 253.406 -47 185.722 -113 51.7695 -180 c 1
292.472 472 m 0
 339.472 472 367.29 434 354.696 387 c 0
 342.371 341 294.188 303 247.188 303 c 0
 199.188 303 173.103 340 186.232 389 c 0
 198.29 434 246.472 472 292.472 472 c 0
EndSplineSet
EndChar
StartChar: less
Encoding: 60 60 28
Width: 570
Flags: HMW
Validated: 1
HStem: -12 20
Fore
535.784 -12 m 1
 87.5371 211 l 1
 110.045 295 l 1
 677.798 518 l 1
 652.074 422 l 1
 221.791 253 l 1
 561.508 84 l 1
 535.784 -12 l 1
EndSplineSet
EndChar
StartChar: equal
Encoding: 61 61 29
Width: 570
Flags: HMW
Validated: 1
HStem: 107 88<33 537 33 537> 311 88<33 537 33 537>
Fore
643.912 399 m 1
 620.332 311 l 1
 116.332 311 l 1
 139.912 399 l 1
 643.912 399 l 1
589.25 195 m 1
 565.671 107 l 1
 61.6709 107 l 1
 85.25 195 l 1
 589.25 195 l 1
EndSplineSet
EndChar
StartChar: greater
Encoding: 62 62 30
Width: 570
Flags: HMW
Validated: 1
HStem: -12 20
Fore
27.7842 -12 m 1
 53.5078 84 l 1
 483.791 253 l 1
 144.074 422 l 1
 169.798 518 l 1
 618.045 295 l 1
 595.537 211 l 1
 27.7842 -12 l 1
EndSplineSet
EndChar
StartChar: question
Encoding: 63 63 31
Width: 500
Flags: W
Validated: 33
HStem: -13 169<214.318 302.775> 653 36<323.335 435.638>
VStem: 173.292 411.846<72 523 97.3718 173.206> 173.292 168.732<44.4823 141.342> 203.032 127.785<490.5 570.828>
Fore
314.896 231 m 1xe0
 284.896 231 l 1
 290.935 261 292.274 266 295.222 277 c 0
 302.725 305 316.888 328 353.213 374 c 0
 402.826 436 422.204 471 436.138 523 c 0
 458.109 605 439.971 653 386.971 653 c 0
 350.971 653 321.684 637 315.253 613 c 0
 312.573 603 313.966 597 322.482 584 c 0
 334.392 565 336.176 553 330.817 533 c 0
 320.635 495 288.668 469 250.668 469 c 0
 211.668 469 191.242 501 203.032 545 c 0xc8
 225.54 629 319.617 689 429.617 689 c 0
 549.617 689 611.933 623 585.138 523 c 0
 566.648 454 525.663 413 419.658 357 c 0
 346.208 318 334.457 304 314.896 231 c 1xe0
280.8 156 m 0
 326.8 156 354.35 117 342.024 71 c 0xd0
 329.431 24 282.517 -13 235.517 -13 c 0
 187.517 -13 160.431 24 173.292 72 c 0xe0
 185.35 117 234.8 156 280.8 156 c 0
EndSplineSet
EndChar
StartChar: at
Encoding: 64 64 32
Width: 930
Flags: W
Validated: 33
HStem: -19 46<387.229 632.296> 143 37<668.002 760.042> 144 47<433.429 534.557> 652 39<541.48 773.612>
Fore
719.864 466 m 1xb0
 741.582 506 l 1
 812.582 506 l 1
 676.916 246 l 2
 674.576 241 671.7 234 670.093 228 c 0
 661.786 197 670.23 180 695.23 180 c 0
 761.23 180 849.758 279 878.16 385 c 0
 916.745 529 816.703 652 660.703 652 c 0
 494.703 652 337.994 515 287.084 325 c 0
 240.46 151 331.234 27 506.234 27 c 0
 573.234 27 626.45 39 718.364 76 c 1
 721.986 41 l 1
 612.66 -5 555.909 -19 481.909 -19 c 0
 268.909 -19 143.905 134 196.423 330 c 0
 250.281 531 460.153 691 670.153 691 c 0
 860.153 691 972.052 560 926.5 390 c 0
 890.863 257 773.316 143 671.316 143 c 0xd0
 621.316 143 592.355 173 597.413 218 c 1
 550.087 172 494.585 144 451.585 144 c 0
 398.585 144 370.982 194 388.398 259 c 0
 408.228 333 461.396 412 528.132 467 c 0
 568.975 500 617.065 519 661.065 519 c 0
 697.065 519 709.386 509 719.864 466 c 1xb0
661.204 471 m 0
 636.74 473 597.381 453 560.539 420 c 0
 516.356 382 484.691 331 470.222 277 c 0
 456.021 224 470.179 191 506.179 191 c 0xb0
 536.179 191 572.877 216 606.398 259 c 0
 638.385 300 671.729 361 685.787 406 c 0
 698.237 445 689.668 469 661.204 471 c 0
EndSplineSet
EndChar
StartChar: A
Encoding: 65 65 33
Width: 722
Flags: W
Validated: 33
HStem: 0 25<147.105 212 371.699 388.321 388.321 457.503 650.09 689> 197 39<252.236 447.236> 670 20G<500.424 545.005>
Fore
695.699 25 m 1
 689 0 l 1
 365 0 l 1
 371.699 25 l 1
 386.234 27 399.503 28 404.503 28 c 0
 440.038 30 455.718 40 461.345 61 c 0
 467.24 83 464.886 119 451.786 197 c 1
 226.786 197 l 1
 201.336 158 l 2
 165.867 104 151.168 79 147.685 66 c 0
 140.718 40 160.771 29 218.699 25 c 1
 212 0 l 1
 9 0 l 1
 15.6982 25 l 1
 66.1104 34 82.1299 49 145.049 142 c 2
 513.885 690 l 1
 541.885 690 l 1
 623.943 164 l 2
 642.326 46 652.699 25 691.699 25 c 2
 695.699 25 l 1
252.236 236 m 1
 447.236 236 l 1
 411.348 479 l 1
 252.236 236 l 1
EndSplineSet
EndChar
StartChar: B
Encoding: 66 66 34
Width: 667
Flags: W
Validated: 33
HStem: 0 32<22.6992 107.304 285.4 419.001> 343 30<363.945 475.124> 651 25<197.134 260.954 436.728 550.687>
Fore
197.134 676 m 1
 506.134 676 l 2
 673.134 676 750.86 619 723.262 516 c 0
 702.897 440 648.912 399 523.802 365 c 1
 589.782 350 619.763 335 646.725 305 c 0
 673.418 274 681.433 233 669.374 188 c 0
 639.096 75 507 0 338 0 c 2
 16 0 l 1
 22.6992 25 l 1
 97.8428 33 116.058 45 129.723 96 c 2
 259.41 580 l 2
 273.076 631 258.363 647 190.435 651 c 1
 197.134 676 l 1
355.906 343 m 1
 288.919 93 l 2
 277.13 49 289.574 32 333.574 32 c 0
 414.574 32 468.972 82 494.963 179 c 0
 524.438 289 488.906 343 385.906 343 c 2
 355.906 343 l 1
423.966 597 m 2
 363.945 373 l 1
 487.749 376 528.252 404 556.386 509 c 0
 581.573 603 561.095 646 491.095 646 c 0
 452.095 646 433.612 633 423.966 597 c 2
EndSplineSet
EndChar
StartChar: C
Encoding: 67 67 35
Width: 722
Flags: W
Validated: 33
HStem: -19 48<348.689 508.633> 658 33<495.341 651.448>
Fore
697.729 152 m 1
 721.029 127 l 1
 662.632 77 635.273 57 597.378 35 c 0
 532.464 -2 468.909 -19 397.909 -19 c 0
 190.909 -19 83.0293 127 138.228 333 c 0
 192.889 537 383.153 691 582.153 691 c 0
 630.153 691 675.205 680 727.774 656 c 0
 747.095 646 761.023 642 770.023 642 c 0
 789.023 642 802.971 653 826.349 688 c 1
 853.349 688 l 1
 790.648 454 l 1
 765.648 454 l 1
 751.013 530 736.855 563 704.306 602 c 0
 671.487 640 633.311 658 586.311 658 c 0
 466.311 658 372.836 548 317.371 341 c 0
 290.576 241 285.283 169 300.082 116 c 0
 315.148 64 368.771 29 434.771 29 c 0
 462.771 29 497.378 35 529.594 47 c 0
 583.685 66 622.115 90 697.729 152 c 1
EndSplineSet
EndChar
StartChar: D
Encoding: 68 68 36
Width: 722
Flags: W
Validated: 33
HStem: 0 25<20.6992 99.7795> 0 35<279.248 428.34> 642 34<425.253 571.414> 651 25<195.134 254.228>
Fore
121.384 91 m 2x80
 253.482 584 l 2
 265.808 630 250.827 645 188.435 651 c 1
 195.134 676 l 1x90
 500.134 676 l 2
 731.134 676 837.64 551 782.442 345 c 0
 726.977 138 546 0 330 0 c 2
 14 0 l 1x60
 20.6992 25 l 1
 79.2344 27 109.594 47 121.384 91 c 2x80
421.646 607 m 2
 283.919 93 l 2
 271.861 48 281.378 35 326.378 35 c 0
 391.378 35 445.541 58 491.867 104 c 0
 535.925 149 578.968 235 604.423 330 c 0
 626.931 414 632.491 487 619.692 540 c 0
 604.181 609 562.023 642 490.023 642 c 0x60
 451.023 642 427.808 630 421.646 607 c 2
EndSplineSet
EndChar
StartChar: E
Encoding: 69 69 37
Width: 667
Flags: W
Validated: 33
HStem: 0 31<22.6992 107.483 286.76 497.468> 329 34<363.266 452.208> 475 21G<695.275 725.634> 642 34<433.191 652.347> 651 25<197.134 260.954>
VStem: 474.623 26<178.22 220.609>
Fore
774.134 676 m 1xec
 720.275 475 l 1
 695.275 475 l 1
 705.913 608 666.023 642 503.023 642 c 0xf4
 451.023 642 435.612 633 425.43 595 c 2
 363.266 363 l 1
 470.998 362 519.644 398 565.19 512 c 1
 591.19 512 l 1
 500.623 174 l 1
 474.623 174 l 1
 493.705 290 463.155 329 354.155 329 c 1
 289.312 87 l 2
 277.79 44 293.307 31 357.307 31 c 0
 433.307 31 492.594 47 548.508 84 c 0
 592.278 113 619.781 141 668.733 208 c 1
 696.733 208 l 1
 601 0 l 1
 16 0 l 1
 22.6992 25 l 1
 98.8428 33 115.79 44 129.723 96 c 2
 259.41 580 l 2
 273.076 631 258.363 647 190.435 651 c 1
 197.134 676 l 1
 774.134 676 l 1xec
EndSplineSet
EndChar
StartChar: F
Encoding: 70 70 38
Width: 611
Flags: W
Validated: 33
HStem: 0 25<22.6992 107.483 290.057 376> 329 34<363.266 445.126> 475 21G<686.275 715.634> 642 34<433.731 642.031> 651 25<197.134 261.07>
VStem: 465.623 25<177.642 213.815>
Fore
764.134 676 m 1xec
 710.275 475 l 1
 686.275 475 l 1
 689.156 538 685.392 565 670.09 590 c 0
 648.469 625 594.023 642 502.023 642 c 0xf4
 451.023 642 435.344 632 425.43 595 c 2
 363.266 363 l 1
 463.266 363 507.644 398 556.19 512 c 1
 581.19 512 l 1
 490.623 174 l 1
 465.623 174 l 1
 482.705 290 455.619 327 354.155 329 c 1
 291.723 96 l 2
 276.986 41 291.771 29 382.699 25 c 1
 376 0 l 1
 16 0 l 1
 22.6992 25 l 1
 98.8428 33 115.79 44 129.723 96 c 2
 259.41 580 l 2
 273.344 632 258.363 647 190.435 651 c 1
 197.134 676 l 1
 764.134 676 l 1xec
EndSplineSet
EndChar
StartChar: G
Encoding: 71 71 39
Width: 778
Flags: W
Validated: 33
HStem: -19 33<329.509 508.064> 262 25<488.901 567.105 743.977 825.203> 658 33<483.09 639.126>
Fore
831.901 287 m 1
 825.203 262 l 1
 748.059 254 733.844 242 714.552 170 c 2
 680.521 43 l 1
 606.34 5 490.909 -19 387.909 -19 c 0
 177.909 -19 70.4941 125 125.691 331 c 0
 180.889 537 371.153 691 570.153 691 c 0
 618.153 691 663.205 680 715.774 656 c 0
 735.095 646 749.023 642 758.023 642 c 0
 777.023 642 790.971 653 814.349 688 c 1
 841.349 688 l 1
 778.648 454 l 1
 753.648 454 l 1
 739.013 530 725.123 564 692.306 602 c 0
 658.487 640 620.311 658 574.311 658 c 0
 453.311 658 360.568 547 304.566 338 c 0
 272.413 218 270.369 132 299.364 76 c 0
 320.843 33 357.751 14 420.751 14 c 0
 487.751 14 522.646 36 536.312 87 c 2
 564.446 192 l 2
 578.916 246 566.863 257 482.203 262 c 1
 488.901 287 l 1
 831.901 287 l 1
EndSplineSet
EndChar
StartChar: H
Encoding: 72 72 40
Width: 778
Flags: W
Validated: 33
HStem: 0 25<27.6992 108.6 293.535 358 425.699 510.525 696.159 759> 326 47<367.945 596.352> 651 25<202.134 262.572 447.555 532.435 600.134 664.727 850.42 933.435>
Fore
596.352 326 m 1
 355.352 326 l 1
 293.723 96 l 2
 280.594 47 293.843 33 364.699 25 c 1
 358 0 l 1
 21 0 l 1
 27.6992 25 l 1
 100.11 34 118.594 47 131.723 96 c 2
 261.41 580 l 2
 274.808 630 260.827 645 195.435 651 c 1
 202.134 676 l 1
 539.134 676 l 1
 532.435 651 l 1
 461.095 646 436.808 630 423.41 580 c 2
 367.945 373 l 1
 608.945 373 l 1
 664.41 580 l 2
 677.808 630 662.095 646 593.435 651 c 1
 600.134 676 l 1
 940.134 676 l 1
 933.435 651 l 1
 864.095 646 839.808 630 826.41 580 c 2
 696.723 96 l 2
 683.594 47 696.11 34 765.699 25 c 1
 759 0 l 1
 419 0 l 1
 425.699 25 l 1
 500.843 33 521.594 47 534.723 96 c 2
 596.352 326 l 1
EndSplineSet
EndChar
StartChar: I
Encoding: 73 73 41
Width: 389
Flags: W
Validated: 33
HStem: 0 25<26.6992 115.123 299.555 370> 651 25<201.134 269.023 454.211 544.435>
VStem: 20 531.134<0 676 -77.144 -6.69922>
Fore
138.723 96 m 2
 268.41 580 l 2
 282.076 631 265.095 646 194.435 651 c 1
 201.134 676 l 1
 551.134 676 l 1
 544.435 651 l 1
 469.631 648 444.344 632 430.41 580 c 2
 300.723 96 l 2
 286.79 44 302.038 30 376.699 25 c 1
 370 0 l 1
 20 0 l 1
 26.6992 25 l 1
 103.574 32 125.325 46 138.723 96 c 2
EndSplineSet
EndChar
StartChar: J
Encoding: 74 74 42
Width: 500
Flags: W
Validated: 33
HStem: -96 33<110.062 206.579> 651 25<308.134 384.977 569.364 653.435>
Fore
539.783 559 m 2
 422.958 123 l 2
 384.641 -20 290.277 -96 150.277 -96 c 0
 110.277 -96 72.6885 -87 50.4395 -73 c 0
 17.6025 -50 1.66016 -5 12.6465 36 c 0
 22.8281 74 64.9385 108 101.938 108 c 0
 140.938 108 165.561 73 154.843 33 c 0
 150.823 18 145.68 10 129.66 -5 c 0
 117.445 -17 112.837 -23 110.693 -31 c 0
 105.603 -50 120.119 -63 147.119 -63 c 0
 192.119 -63 217.818 -38 234.431 24 c 2
 383.41 580 l 2
 397.88 634 381.631 648 301.435 651 c 1
 308.134 676 l 1
 660.134 676 l 1
 653.435 651 l 1
 577.095 646 559.076 631 539.783 559 c 2
EndSplineSet
EndChar
StartChar: K
Encoding: 75 75 43
Width: 778
Flags: W
Validated: 33
HStem: 0 25<36.6992 120.371 304.159 367 439.699 456.047 456.047 524.154 750.687 769> 651 25<211.134 274.409 459.997 542.435 628.134 656.403 804.966 910.435>
Fore
775.699 25 m 1
 769 0 l 1
 433 0 l 1
 439.699 25 l 1
 453.967 26 466.967 26 471.967 26 c 0
 505.503 28 520.843 33 524.326 46 c 0
 527.273 57 524.685 66 512.115 90 c 2
 390.939 317 l 1
 357.241 292 l 1
 304.723 96 l 2
 291.594 47 304.11 34 373.699 25 c 1
 367 0 l 1
 30 0 l 1
 36.6992 25 l 1
 110.843 33 129.058 45 142.723 96 c 2
 272.41 580 l 2
 286.344 632 272.363 647 204.435 651 c 1
 211.134 676 l 1
 549.134 676 l 1
 542.435 651 l 1
 467.095 646 447.808 630 428.783 559 c 2
 371.442 345 l 1
 646.855 563 l 2
 686.162 594 693.306 602 697.593 618 c 0
 702.951 638 692.095 646 656.631 648 c 1
 651.899 649 638.167 650 621.435 651 c 1
 628.134 676 l 1
 917.134 676 l 1
 910.435 651 l 1
 811.291 643 768.593 618 528.61 424 c 1
 732.326 46 l 2
 741.307 31 750.967 26 775.699 25 c 1
EndSplineSet
EndChar
StartChar: L
Encoding: 76 76 44
Width: 667
Flags: W
Validated: 33
HStem: 0 31<25.6992 109.105 287.682 493.218> 651 25<200.134 262.352 446.319 542.435>
Fore
698.824 227 m 1
 597 0 l 1
 19 0 l 1
 25.6992 25 l 1
 101.11 34 117.058 45 130.723 96 c 2
 260.41 580 l 2
 274.076 631 260.363 647 193.435 651 c 1
 200.134 676 l 1
 549.134 676 l 1
 542.435 651 l 1
 454.363 647 436.88 634 416.783 559 c 2
 290.312 87 l 2
 278.79 44 294.307 31 355.307 31 c 0
 432.307 31 493.13 49 544.044 86 c 0
 587.618 118 615.925 149 669.824 227 c 1
 698.824 227 l 1
EndSplineSet
EndChar
StartChar: M
Encoding: 77 77 45
Width: 944
Flags: W
Validated: 33
HStem: 0 25<20.6992 107.924 178.88 248 595.699 681.561 859.132 921> 589 20G<827.546 835.822> 651 25<197.134 262.698 1012.6 1095.43>
Fore
841.181 609 m 1
 426 0 l 1
 399 0 l 1
 306.162 594 l 1
 180.226 124 l 2
 160.397 50 174.307 31 254.699 25 c 1
 248 0 l 1
 14 0 l 1
 20.6992 25 l 1
 100.843 33 117.058 45 133.135 105 c 2
 260.41 580 l 2
 274.344 632 261.827 645 190.435 651 c 1
 197.134 676 l 1
 450.134 676 l 1
 523.662 204 l 1
 850.134 676 l 1
 1102.13 676 l 1
 1095.43 651 l 1
 1021.09 646 1002.08 631 982.783 559 c 2
 864.35 117 l 2
 845.326 46 852.378 35 927.699 25 c 1
 921 0 l 1
 589 0 l 1
 595.699 25 l 1
 672.574 32 689.79 44 704.795 100 c 2
 841.181 609 l 1
EndSplineSet
EndChar
StartChar: N
Encoding: 78 78 46
Width: 722
Flags: W
Validated: 33
HStem: 0 25<22.6992 104.282 180.357 243> 651 25<200.134 230.267 667.134 727.852 802.157 875.435>
Fore
411.134 676 m 1
 645.184 247 l 1
 726.908 552 l 2
 745.933 623 732.56 644 660.435 651 c 1
 667.134 676 l 1
 882.134 676 l 1
 875.435 651 l 1
 807.756 641 791.272 628 775.999 571 c 2
 618.177 -18 l 1
 590.177 -18 l 1
 288.941 526 l 1
 181.226 124 l 2
 162.201 53 175.11 34 249.699 25 c 1
 243 0 l 1
 16 0 l 1
 22.6992 25 l 1
 98.1104 34 116.861 48 132.135 105 c 2
 259.143 579 l 1
 226.416 636 213.435 651 193.435 651 c 1
 200.134 676 l 1
 411.134 676 l 1
EndSplineSet
EndChar
StartChar: O
Encoding: 79 79 47
Width: 778
Flags: W
Validated: 33
HStem: -19 33<317.511 481.469> 658 33<481.14 639.948>
Fore
578.153 691 m 0
 779.153 691 887.692 540 833.031 336 c 0
 777.565 129 590.909 -19 383.909 -19 c 0
 176.909 -19 69.2979 128 124.763 335 c 0
 180.496 543 369.153 691 578.153 691 c 0
568.311 658 m 0
 451.311 658 357.229 542 299.352 326 c 0
 245.226 124 277.751 14 392.751 14 c 0
 507.751 14 599.226 124 654.155 329 c 0
 709.889 537 678.311 658 568.311 658 c 0
EndSplineSet
EndChar
StartChar: P
Encoding: 80 80 48
Width: 611
Flags: W
Validated: 33
HStem: 0 29<23.2392 100.352 286.922 350> 303 35<352.566 425.436> 641 35<427.807 556.623> 651 25<197.134 254.934>
Fore
343.188 303 m 1xe0
 293.35 117 l 2
 273.79 44 280.378 35 356.699 25 c 1
 350 0 l 1
 16 0 l 1
 22.6992 25 l 1
 34.2344 27 44.7705 29 47.7705 29 c 0
 96.3779 35 114.737 55 131.35 117 c 2
 249.783 559 l 2
 268.54 629 258.827 645 190.435 651 c 1
 197.134 676 l 1xd0
 519.134 676 l 2
 686.134 676 763.449 610 732.367 494 c 0
 711.734 417 651.39 356 562.084 325 c 0
 513.261 307 478.457 304 343.188 303 c 1xe0
424.377 606 m 2
 352.566 338 l 1
 423.566 338 458.442 345 487.802 365 c 0
 519.964 388 542.146 426 559.027 489 c 0
 587.966 597 566.756 641 483.756 641 c 0xe0
 450.756 641 430.54 629 424.377 606 c 2
EndSplineSet
EndChar
StartChar: Q
Encoding: 81 81 49
Width: 778
Flags: W
Validated: 33
HStem: -176 47<482.098 669.98> 658 33<479.881 638.301>
Fore
698.65 -117 m 1
 698.219 -141 l 1
 615.984 -168 570.841 -176 509.841 -176 c 0
 421.841 -176 346.415 -144 305.421 -88 c 0
 288.583 -65 281.675 -46 272.464 -2 c 1
 203.967 26 177.325 46 148.651 92 c 0
 107.8 156 99.3076 240 123.691 331 c 0
 179.425 539 370.153 691 574.153 691 c 0
 780.153 691 888.229 542 832.495 334 c 0
 806.504 237 750.46 151 672.044 86 c 0
 616.718 40 576.359 20 488.393 -6 c 1
 496.479 -43 502.459 -58 516.368 -77 c 0
 541.258 -111 581.435 -129 628.435 -129 c 0
 647.435 -129 664.238 -126 698.65 -117 c 1
566.311 658 m 0
 452.311 658 356.961 541 300.691 331 c 0
 244.958 123 276.751 14 392.751 14 c 0
 507.751 14 599.226 124 654.423 330 c 0
 710.156 538 678.311 658 566.311 658 c 0
EndSplineSet
EndChar
StartChar: R
Encoding: 82 82 50
Width: 722
Flags: W
Validated: 33
HStem: 0 25<32.6992 116.057 302.132 364 700.564 715> 313 32<368.442 386.868> 642 34<469.598 585.544> 651 25<207.134 269.498>
Fore
721.699 25 m 1xe0
 715 0 l 1
 510 0 l 1
 386.868 313 l 1
 359.868 313 l 1
 307.35 117 l 2
 288.325 46 295.378 35 370.699 25 c 1
 364 0 l 1
 26 0 l 1
 32.6992 25 l 1
 113.11 34 125.79 44 145.35 117 c 2
 263.783 559 l 2
 283.076 631 273.095 646 200.435 651 c 1
 207.134 676 l 1xd0
 529.134 676 l 2
 712.134 676 794.253 613 763.438 498 c 0
 751.381 453 724.663 413 688.429 386 c 0
 653.729 361 625.246 348 561.155 329 c 1
 685.79 44 l 2
 692.307 31 703.699 25 721.699 25 c 1xe0
436.77 600 m 2
 368.442 345 l 1
 444.71 346 480.586 353 511.142 370 c 0
 548.769 391 574.218 430 591.367 494 c 0
 619.502 599 594.023 642 502.023 642 c 0xe0
 477.023 642 459.684 637 451.004 627 c 0
 446.396 621 438.377 606 436.77 600 c 2
EndSplineSet
EndChar
StartChar: S
Encoding: 83 83 51
Width: 556
Flags: W
Validated: 33
HStem: -19 33<200.261 361.56> 475 21G<581.984 616.634> 660 31<353.61 504.577>
Fore
611.275 475 m 1
 583.275 475 l 1
 580.692 540 572.463 569 547.842 604 c 0
 521.756 641 484.847 660 439.847 660 c 0
 371.847 660 319.664 622 303.052 560 c 0
 290.19 512 305.491 487 375.773 447 c 2
 503.213 374 l 2
 558.639 342 584.542 267 564.446 192 c 0
 530.685 66 407.909 -19 259.909 -19 c 0
 216.909 -19 181.784 -12 136.34 5 c 0
 116.216 12 106.02 15 98.0195 15 c 0
 82.0195 15 71.6074 6 58.9092 -19 c 1
 29.9092 -19 l 1
 96.0928 228 l 1
 125.093 228 l 1
 123.336 158 128.494 125 145.579 88 c 0
 170.45 39 213.751 14 271.751 14 c 0
 348.751 14 409.809 59 428.298 128 c 0
 442.23 180 425.197 206 348.451 248 c 2
 290.025 280 l 2
 186.299 337 151.18 400 174.759 488 c 0
 208.521 614 312.153 691 448.153 691 c 0
 486.153 691 516.545 685 559.258 669 c 0
 579.114 661 589.311 658 598.311 658 c 0
 615.311 658 625.454 666 639.421 692 c 1
 669.421 692 l 1
 611.275 475 l 1
EndSplineSet
EndChar
StartChar: T
Encoding: 84 84 52
Width: 667
Flags: W
Validated: 33
HStem: 0 25<162.699 255.019 439.526 513> 475 21G<158.275 211.719 734.275 768.435> 644 32<304.098 425.56 587.56 694.442>
VStem: 734.275 29<478.6 511.222>
Fore
284.35 117 m 2
 425.56 644 l 1
 300.487 640 236.162 594 187.275 475 c 1
 158.275 475 l 1
 215.134 676 l 1
 815.134 676 l 1
 763.275 475 l 1
 734.275 475 l 1
 749.162 594 709.487 640 587.56 644 c 1
 446.35 117 l 2
 425.986 41 434.307 31 519.699 25 c 1
 513 0 l 1
 156 0 l 1
 162.699 25 l 1
 250.574 32 264.521 43 284.35 117 c 2
EndSplineSet
EndChar
StartChar: U
Encoding: 85 85 53
Width: 722
Flags: W
Validated: 33
HStem: -19 49<328.789 497.773> 651 25<197.134 253.921 448.837 528.435 662.134 728.128 804.594 875.435>
Fore
774.659 566 m 2
 689.184 247 l 2
 664.264 154 617.9 78 562.718 40 c 0
 509.804 3 433.909 -19 359.909 -19 c 0
 286.909 -19 227.732 -1 189.11 34 c 0
 139.9 78 132.029 127 158.289 225 c 2
 247.783 559 l 2
 267.076 631 258.56 644 190.435 651 c 1
 197.134 676 l 1
 535.134 676 l 1
 528.435 651 l 1
 479.899 649 462.827 645 448.147 635 c 0
 429.396 621 417.502 599 406.783 559 c 2
 317.289 225 l 2
 280.848 89 310.038 30 412.038 30 c 0
 531.038 30 605.527 99 645.184 247 c 2
 726.908 552 l 2
 746.469 625 731.827 645 655.435 651 c 1
 662.134 676 l 1
 882.134 676 l 1
 875.435 651 l 1
 808.756 641 790.469 625 774.659 566 c 2
EndSplineSet
EndChar
StartChar: V
Encoding: 86 86 54
Width: 722
Flags: W
Validated: 33
HStem: -18 21G<347.988 391.304> 651 25<197.134 243.214 435.021 509.43 509.43 526.435 669.134 738.793 808.471 875.435>
Fore
882.134 676 m 1
 875.435 651 l 1
 821.56 644 804.076 631 763.463 569 c 2
 378.177 -18 l 1
 351.177 -18 l 1
 255.679 581 l 2
 245.416 636 238.56 644 190.435 651 c 1
 197.134 676 l 1
 533.134 676 l 1
 526.435 651 l 1
 511.167 650 497.899 649 492.899 649 c 0
 454.363 647 436.416 636 430.253 613 c 0
 426.233 598 427.019 586 433.961 541 c 2
 482.466 207 l 1
 697.621 536 l 2
 726.143 579 732.358 591 736.646 607 c 0
 745.22 639 732.095 646 662.435 651 c 1
 669.134 676 l 1
 882.134 676 l 1
EndSplineSet
EndChar
StartChar: W
Encoding: 87 87 55
Width: 1000
Flags: W
Validated: 33
HStem: -15 21G<294.296 337.138 679.17 719.984> 651 25<200.134 238.795 418.569 487.435 568.134 621.329 795.893 866.702 866.702 873.435 980.134 1032.83 1099.34 1155.43>
Fore
1162.13 676 m 1
 1155.43 651 l 1
 1121.63 648 1093 627 1069.29 587 c 2
 707.98 -15 l 1
 680.98 -15 l 1
 637.793 462 l 1
 323.98 -15 l 1
 295.98 -15 l 1
 245.286 587 l 2
 241.416 636 233.827 645 193.435 651 c 1
 200.134 676 l 1
 494.134 676 l 1
 487.435 651 l 1
 434.363 647 419.951 638 412.181 609 c 0
 409.77 600 409.626 592 410.339 576 c 2
 432.806 212 l 1
 633.334 520 l 1
 624.057 616 l 2
 619.487 640 601.899 649 561.435 651 c 1
 568.134 676 l 1
 880.134 676 l 1
 873.435 651 l 1
 867.167 650 862.167 650 860.167 650 c 0
 815.363 647 797.951 638 791.521 614 c 0
 789.109 605 789.09 590 790.516 558 c 2
 808.484 222 l 1
 1012.39 565 l 2
 1021.14 579 1027.16 594 1030.65 607 c 0
 1038.95 638 1026.63 648 973.435 651 c 1
 980.134 676 l 1
 1162.13 676 l 1
EndSplineSet
EndChar
StartChar: X
Encoding: 88 88 56
Width: 722
Flags: W
Validated: 33
HStem: 0 25<22.6992 103.464 202.165 266 365.699 380.181 380.181 452.397 659.864 699> 651 25<198.134 239.639 452.129 521.453 521.453 537.435 619.134 631.768 774.425 862.435>
Fore
869.134 676 m 1
 862.435 651 l 1
 786.56 644 755.469 625 635.314 505 c 2
 525.572 394 l 1
 631.742 111 l 2
 660.45 39 671.967 26 705.699 25 c 1
 699 0 l 1
 359 0 l 1
 365.699 25 l 1
 378.967 26 390.234 27 394.234 27 c 0
 429.771 29 449.182 38 453.737 55 c 0
 456.685 66 454.115 90 447.206 109 c 2
 389.614 271 l 1
 337.949 220 l 2
 237.154 120 208.579 88 202.685 66 c 0
 195.986 41 213.307 31 272.699 25 c 1
 266 0 l 1
 16 0 l 1
 22.6992 25 l 1
 74.3066 31 101.79 44 141.704 81 c 2
 375.921 302 l 1
 255.894 593 l 2
 236.951 638 226.631 648 191.435 651 c 1
 198.134 676 l 1
 544.134 676 l 1
 537.435 651 l 1
 523.167 650 510.899 649 505.899 649 c 0
 469.363 647 455.22 639 449.593 618 c 0
 446.377 606 447.037 601 454.679 581 c 2
 511.486 431 l 1
 545.864 466 577.438 498 588.118 508 c 0
 652.267 572 668.894 593 674.521 614 c 0
 680.951 638 671.363 647 631.899 649 c 1
 629.167 650 621.167 650 612.435 651 c 1
 619.134 676 l 1
 869.134 676 l 1
EndSplineSet
EndChar
StartChar: Y
Encoding: 89 89 57
Width: 722
Flags: W
Validated: 33
HStem: 0 25<191.699 279.165 465.341 532> 651 25<196.134 239.813 436.722 524.435 660.134 727.737>
Fore
880.134 676 m 1
 873.435 651 l 1
 838.095 646 816.147 635 794.985 612 c 2
 520.652 301 l 1
 471.35 117 l 2
 451.521 43 458.843 33 538.699 25 c 1
 532 0 l 1
 185 0 l 1
 191.699 25 l 1
 275.843 33 289.79 44 309.35 117 c 2
 348.738 264 l 1
 254.697 596 l 2
 243.808 630 222.899 649 189.435 651 c 1
 196.134 676 l 1
 531.134 676 l 1
 524.435 651 l 1
 499.167 650 l 2
 458.167 650 441.023 642 435.129 620 c 0
 432.181 609 433.233 598 440.535 573 c 2
 440.535 573 443.123 564 443.319 561 c 2
 501.155 329 l 1
 661.726 514 l 2
 697.712 555 721.09 590 726.181 609 c 0
 733.951 638 719.095 646 653.435 651 c 1
 660.134 676 l 1
 880.134 676 l 1
EndSplineSet
EndChar
StartChar: Z
Encoding: 90 90 58
Width: 667
Flags: W
Validated: 33
HStem: 0 35<234.378 500.846> 470 21G<184.937 255.559> 638 38<348.319 539.277 539.277 581.756>
Fore
698.576 241 m 1
 608 0 l 1
 28 0 l 1
 32.2871 16 l 1
 581.756 641 l 1
 544.487 640 510.22 639 497.951 638 c 0
 350.487 640 298.181 609 212.937 470 c 1
 184.937 470 l 1
 261.134 676 l 1
 785.134 676 l 1
 780.847 660 l 1
 234.378 35 l 1
 308.378 35 l 2
 404.378 35 490.397 50 530.828 74 c 0
 586.671 107 620.389 147 672.576 241 c 1
 698.576 241 l 1
EndSplineSet
EndChar
StartChar: bracketleft
Encoding: 91 91 59
Width: 333
Flags: HMW
Validated: 33
HStem: -149 33<221 301 221 301> 645 33<210 238 238 301>
VStem: 67 104<-84.5 -63 -63 575>
Fore
269.918 -116 m 1
 261.075 -149 l 1
 27.0752 -149 l 1
 248.67 678 l 1
 482.67 678 l 1
 473.827 645 l 1
 410.827 645 l 2
 354.827 645 340.612 633 325.07 575 c 2
 154.119 -63 l 2
 142.598 -106 148.918 -116 189.918 -116 c 2
 269.918 -116 l 1
EndSplineSet
EndChar
StartChar: backslash
Encoding: 92 92 60
Width: 278
Flags: HMW
Validated: 1
HStem: -19 20 671 20<-25 68 68 68>
Fore
205.909 -19 m 1
 160.153 691 l 1
 253.153 691 l 1
 297.909 -19 l 1
 205.909 -19 l 1
EndSplineSet
EndChar
StartChar: bracketright
Encoding: 93 93 61
Width: 333
Flags: HMW
Validated: 33
HStem: -149 33<32 112 32 112 112 133 32 266> 645 33<32 95 32 266>
VStem: 162 104<-63 575 575 604>
Fore
-7.9248 -149 m 1
 0.917969 -116 l 1
 80.918 -116 l 2
 122.918 -116 133.329 -107 145.119 -63 c 2
 316.07 575 l 2
 331.612 633 323.827 645 267.827 645 c 2
 204.827 645 l 1
 213.67 678 l 1
 447.67 678 l 1
 226.075 -149 l 1
 -7.9248 -149 l 1
EndSplineSet
EndChar
StartChar: asciicircum
Encoding: 94 94 62
Width: 581
Flags: HMW
Validated: 1
HStem: 656 20<251 331 331 331>
Fore
245.332 311 m 1
 156.332 311 l 1
 432.134 676 l 1
 512.134 676 l 1
 592.332 311 l 1
 503.332 311 l 1
 447.215 583 l 1
 245.332 311 l 1
EndSplineSet
EndChar
StartChar: underscore
Encoding: 95 95 63
Width: 500
Flags: HMW
Validated: 1
HStem: -125 50<0 500 0 500>
Fore
466.506 -125 m 1
 -33.4932 -125 l 1
 -20.0957 -75 l 1
 479.904 -75 l 1
 466.506 -125 l 1
EndSplineSet
EndChar
StartChar: grave
Encoding: 96 96 64
Width: 333
Flags: W
Validated: 33
HStem: 528 185
VStem: 186.99 200.487<528 668 668 668>
Fore
387.478 528 m 1
 331.478 528 l 1
 213.057 616 l 2
 188.88 634 181.631 648 186.99 668 c 0
 193.688 693 220.048 713 246.048 713 c 0
 265.048 713 281.368 703 292.545 685 c 2
 387.478 528 l 1
EndSplineSet
EndChar
StartChar: a
Encoding: 97 97 65
Width: 500
Flags: W
Validated: 33
HStem: -14 71<136.865 238.224 347.749 467.897> 441 32<261.56 388.007>
VStem: 49.6514 471.38<92 336 -25.6484 94.5>
Fore
490.148 64 m 1
 499.521 43 l 1
 450.536 2 415.249 -14 372.249 -14 c 0
 323.249 -14 306.34 5 309.005 56 c 1
 240.607 6 189.249 -14 132.249 -14 c 0
 68.249 -14 33.3066 31 49.6514 92 c 0
 61.1729 135 91.2832 169 142.322 199 c 0
 186.021 224 240.38 244 369.025 280 c 1
 388.586 353 l 2
 404.931 414 386.166 441 328.166 441 c 0
 293.166 441 260.879 425 255.252 404 c 0
 253.644 398 255.036 392 261.356 382 c 0
 269.069 366 271.586 353 267.835 339 c 0
 258.725 305 224.294 281 184.294 281 c 0
 143.294 281 125.992 306 136.979 347 c 0
 157.074 422 246.74 473 359.74 473 c 0
 481.74 473 543.539 420 521.031 336 c 2
 451.096 75 l 2
 446.809 59 451.397 50 465.397 50 c 0
 470.397 50 473.665 51 477.47 54 c 2
 490.148 64 l 1
319.795 100 m 1
 358.647 245 l 1
 273.021 224 219.767 182 204.226 124 c 0
 193.508 84 207.273 57 237.273 57 c 0
 261.273 57 284.488 69 319.795 100 c 1
EndSplineSet
EndChar
StartChar: b
Encoding: 98 98 66
Width: 556
Flags: W
Validated: 33
HStem: -14 32<238.048 347.065> 419 54<365.857 505.963> 656 20G<192.775 392.134>
VStem: 68.5166 516.523<-13 18 221 239 -13 239 -13 -13>
Fore
392.134 676 m 1
 322.734 417 l 1
 370.185 456 411.74 473 459.74 473 c 0
 570.74 473 622.017 377 585.04 239 c 0
 545.115 90 424.249 -14 291.249 -14 c 0
 241.249 -14 209.536 2 174.521 43 c 1
 80.5166 -13 l 1
 68.5166 -13 l 1
 231.162 594 l 2
 241.88 634 235.291 643 191.703 652 c 1
 198.134 676 l 1
 392.134 676 l 1
307.462 360 m 1
 236.991 97 l 2
 224.13 49 242.823 18 284.823 18 c 0
 348.823 18 396.24 83 433.217 221 c 0
 468.318 352 455.271 419 393.271 419 c 0
 360.271 419 335.983 403 307.462 360 c 1
EndSplineSet
EndChar
StartChar: c
Encoding: 99 99 67
Width: 444
Flags: W
Validated: 33
HStem: -14 67<184.242 347.816> 442 31<312.395 393.479>
VStem: 391.677 121.589<333.714 423.186>
Fore
441.206 109 m 1
 454.384 91 l 1
 376.555 17 312.249 -14 235.249 -14 c 0
 111.249 -14 47.7754 85 84.7529 223 c 0
 123.337 367 251.74 473 387.74 473 c 0
 475.74 473 529.879 425 513.266 363 c 0
 502.815 324 470.385 300 428.385 300 c 0
 391.385 300 379.548 323 391.677 372 c 0
 402.931 414 402.931 414 400.343 423 c 0
 397.29 434 384.434 442 368.434 442 c 0
 316.434 442 267.553 379 239.954 276 c 0
 203.513 140 235.201 53 322.201 53 c 0
 363.201 53 392.952 67 441.206 109 c 1
EndSplineSet
EndChar
StartChar: d
Encoding: 100 100 68
Width: 556
Flags: W
Validated: 33
HStem: -14 56<159.207 297.57> 417 56<311.686 416.832> 652 24<441.134 499.974>
VStem: 84.2168 571.917<221 676 221 456.383>
Fore
335.517 -13 m 1
 352.934 52 l 1
 292.536 2 255.249 -14 202.249 -14 c 0
 97.249 -14 47.7754 85 84.2168 221 c 0
 123.069 366 233.74 473 343.74 473 c 0
 389.74 473 415.453 457 446.127 411 c 1
 495.162 594 l 2
 507.487 640 500.363 647 434.703 652 c 1
 441.134 676 l 1
 656.134 676 l 1
 502.062 101 l 2
 490.809 59 500.325 46 545.521 43 c 1
 539.359 20 l 1
 475.216 12 l 2
 411.34 5 385 0 335.517 -13 c 1
366.011 112 m 2
 431.122 355 l 1
 427.304 393 402.734 417 369.734 417 c 0
 311.734 417 268.926 358 234.36 229 c 0
 200.331 102 209.254 42 262.254 42 c 0
 284.254 42 308.201 53 334.364 76 c 0
 349.848 89 364.402 106 366.011 112 c 2
EndSplineSet
EndChar
StartChar: e
Encoding: 101 101 69
Width: 444
Flags: W
Validated: 33
HStem: -14 72<172.861 334.815> 245 37<239.562 373.562> 442 31<297.694 391.038>
VStem: 86.0928 400.555<245 280.445 228 245 228 228>
Fore
435.494 125 m 1
 455.742 111 l 1
 365.823 18 308.249 -14 227.249 -14 c 0
 103.249 -14 46.9717 82 86.0928 228 c 0
 125.213 374 235.74 473 360.74 473 c 0
 415.74 473 456.381 453 478.931 414 c 0
 500.749 376 503.155 329 486.647 245 c 1
 234.647 245 l 1
 220.159 176 219.316 143 228.742 111 c 0
 240.364 76 264.541 58 303.541 58 c 0
 346.541 58 382.364 76 435.494 125 c 1
239.562 282 m 1
 373.562 282 l 1
 377.581 297 l 2
 389.246 348 394.749 376 394.84 395 c 0
 395.146 426 380.434 442 352.434 442 c 0
 303.434 442 274.716 402 239.562 282 c 1
EndSplineSet
EndChar
StartChar: f
Encoding: 102 102 70
Width: 333
Flags: W
Validated: 33
HStem: 0 24<20.4307 79.4351 230.877 292> 417 44<137.524 182.734 333.524 408.734> 660 31<388.144 458.219>
VStem: 14 533.358<0 591 -67.554 -6.43066>
Fore
182.734 417 m 1
 125.734 417 l 1
 137.524 461 l 1
 194.524 461 l 1
 217.568 547 235.554 588 266.933 623 c 0
 305.722 667 364.153 691 431.153 691 c 0
 515.153 691 563.167 650 547.358 591 c 0
 537.443 554 505.745 529 468.745 529 c 0
 434.745 529 415.176 553 423.482 584 c 0
 426.162 594 433.109 605 446.129 620 c 0
 454.808 630 459.684 637 460.756 641 c 0
 463.971 653 454.847 660 436.847 660 c 0
 401.847 660 380.951 638 366.215 583 c 2
 333.524 461 l 1
 420.524 461 l 1
 408.734 417 l 1
 321.734 417 l 1
 237.599 103 l 2
 220.182 38 228.967 26 298.431 24 c 1
 292 0 l 1
 14 0 l 1
 20.4307 24 l 1
 67.7705 29 81.9863 41 93.5078 84 c 2
 182.734 417 l 1
EndSplineSet
EndChar
StartChar: g
Encoding: 103 103 71
Width: 500
Flags: W
Validated: 33
HStem: -206 32<98.4537 335.42> -52 120<180.057 372.983> 155 27<247.074 343.819> 398 53<507.644 588.644> 442 31<305.781 399.345>
Fore
588.644 398 m 1xf0
 507.644 398 l 1xf0
 528.142 370 532.103 340 521.385 300 c 0
 507.184 247 473.197 206 421.23 180 c 0
 381.872 160 355.265 154 308.265 154 c 2
 263.532 155 l 2
 223.532 155 189.638 133 181.599 103 c 0
 174.096 75 192.221 68 272.221 68 c 2
 337.221 68 l 2
 439.221 68 488.895 22 468.263 -55 c 0
 441.735 -154 339.803 -206 173.803 -206 c 0
 47.8027 -206 -18.0869 -172 -2.5459 -114 c 0
 8.43945 -73 48.1387 -48 113.55 -39 c 1
 55.7129 -16 42.5361 2 53.5215 43 c 0
 67.4551 95 117.638 133 203.872 160 c 1
 162.23 180 146.714 193 131.145 217 c 0
 115.647 245 111.49 278 120.601 312 c 0
 146.056 407 247.74 473 366.74 473 c 0xe8
 406.74 473 433.132 467 472.845 451 c 1
 602.845 451 l 1
 588.644 398 l 1xf0
310.066 -52 m 2
 137.066 -52 l 1
 102.904 -75 92.9561 -86 87.3291 -107 c 0
 75.54 -151 115.377 -174 203.377 -174 c 0
 302.377 -174 364.344 -148 376.669 -102 c 0
 385.512 -69 364.066 -52 310.066 -52 c 2
358.434 442 m 0xe8
 311.434 442 282.52 405 257.332 311 c 0
 232.413 218 240.767 182 288.767 182 c 0
 335.767 182 364.413 218 389.332 311 c 0
 414.252 404 405.434 442 358.434 442 c 0xe8
EndSplineSet
EndChar
StartChar: h
Encoding: 104 104 72
Width: 556
Flags: W
Validated: 33
HStem: 0 24<226.221 257 305.431 354.444 503.318 534> 406 67<383.613 498.36> 656 20G<191.775 389.134>
VStem: 16 557.959<0 332 -235 -185.987>
Fore
389.134 676 m 1
 313.84 395 l 1
 381.381 453 423.74 473 476.74 473 c 0
 558.74 473 597.003 418 573.959 332 c 2
 507.508 84 l 2
 496.254 42 505.234 27 540.431 24 c 1
 534 0 l 1
 299 0 l 1
 305.431 24 l 1
 340.503 28 357.79 44 367.704 81 c 2
 432.548 323 l 2
 447.553 379 437.787 406 402.787 406 c 0
 379.787 406 352.572 394 324.409 371 c 0
 311.998 362 302.318 352 301.246 348 c 2
 229.704 81 l 2
 219.79 44 227.771 29 263.431 24 c 1
 257 0 l 1
 16 0 l 1
 22.4307 24 l 1
 69.8428 33 80.2539 42 91.5078 84 c 2
 228.162 594 l 2
 239.147 635 234.291 643 190.703 652 c 1
 197.134 676 l 1
 389.134 676 l 1
EndSplineSet
EndChar
StartChar: i
Encoding: 105 105 73
Width: 278
Flags: W
Validated: 33
HStem: 0 24<226.021 255> 441 20G<134.166 331.524> 536 155<258.628 346.88>
VStem: 16 363.253<0 613 517.778 613.445>
Fore
331.524 461 m 1
 229.704 81 l 2
 219.521 43 227.771 29 261.431 24 c 1
 255 0 l 1
 16 0 l 1
 22.4307 24 l 1
 71.3779 35 80.5215 43 91.5078 84 c 2
 170.285 378 l 2
 181.271 419 174.683 428 133.094 437 c 1
 139.524 461 l 1
 331.524 461 l 1
323.153 691 m 0
 366.153 691 390.774 656 379.253 613 c 0
 367.463 569 324.621 536 280.621 536 c 0
 236.621 536 212.463 569 224.521 614 c 0
 235.774 656 280.153 691 323.153 691 c 0
EndSplineSet
EndChar
StartChar: j
Encoding: 106 106 74
Width: 333
Flags: W
Validated: 33
HStem: -203 31<3.01907 73.3583> 437 24<181.524 226.332> 536 155<306.175 393.04>
VStem: -84.5986 511.852<-103 613 600.336 695.612>
Fore
383.524 461 m 1
 260.536 2 l 2
 244.727 -57 226.545 -95 198.971 -127 c 0
 157.841 -176 97.6064 -203 28.6064 -203 c 0
 -53.3936 -203 -100.408 -162 -84.5986 -103 c 0
 -74.9521 -67 -43.2539 -42 -6.25391 -42 c 0
 25.7461 -42 46.3154 -66 38.2773 -96 c 0
 35.5977 -106 28.6504 -117 14.3623 -133 c 0
 5.68359 -143 0.807617 -150 -0.532227 -155 c 0
 -3.21191 -165 7.91309 -172 26.9131 -172 c 0
 59.9131 -172 81.0752 -149 95.2773 -96 c 2
 222.285 378 l 2
 233.807 421 225.022 433 175.094 437 c 1
 181.524 461 l 1
 383.524 461 l 1
370.153 691 m 0
 413.153 691 438.774 656 427.253 613 c 0
 415.731 570 371.621 536 328.621 536 c 0
 283.621 536 260.463 569 272.521 614 c 0
 283.774 656 327.153 691 370.153 691 c 0
EndSplineSet
EndChar
StartChar: k
Encoding: 107 107 75
Width: 556
Flags: W
Validated: 33
HStem: 0 24<28.4307 77.3958 315.431 344.468 535.553 543> 438 23<547.819 630.361> 652 24<203.134 232.537>
Fore
636.524 461 m 1
 630.361 438 l 1
 565.218 430 534.396 412 406.261 307 c 1
 528.45 39 l 2
 534.234 27 538.431 24 549.431 24 c 1
 543 0 l 1
 309 0 l 1
 315.431 24 l 1
 343.699 25 359.307 31 362.521 43 c 0
 364.665 51 360.881 63 350.579 88 c 2
 291.484 222 l 1
 262.054 198 l 1
 231.508 84 l 2
 218.914 37 222.307 31 267.431 24 c 1
 261 0 l 1
 22 0 l 1
 28.4307 24 l 1
 62.2344 27 82.0576 45 92.5078 84 c 2
 229.162 594 l 2
 239.344 632 229.899 649 196.703 652 c 1
 203.134 676 l 1
 390.134 676 l 1
 274.647 245 l 1
 436.945 373 l 2
 450.893 384 465.716 402 468.127 411 c 0
 471.61 424 462.486 431 439.29 434 c 0
 436.558 435 426.826 436 416.361 438 c 1
 422.524 461 l 1
 636.524 461 l 1
EndSplineSet
EndChar
StartChar: l
Encoding: 108 108 76
Width: 278
Flags: W
Validated: 33
HStem: 0 24<22.4307 73.1042 225.13 255> 652 24<197.134 228.59>
VStem: 16 371.134<0 676 -36.301 -6.43066>
Fore
387.134 676 m 1
 228.508 84 l 2
 217.79 44 228.699 25 261.431 24 c 1
 255 0 l 1
 16 0 l 1
 22.4307 24 l 1
 57.2344 27 79.5938 47 89.5078 84 c 2
 226.162 594 l 2
 236.076 631 224.899 649 190.703 652 c 1
 197.134 676 l 1
 387.134 676 l 1
EndSplineSet
EndChar
StartChar: m
Encoding: 109 109 77
Width: 833
Flags: W
Validated: 33
HStem: 0 24<227.747 256 306.431 357.775 504.958 534 582.431 634.626 780.844 814> 0 473<443.469 502.788 719.781 777.635 480.74 814 242.74 294.935> 406 67<383.52 492.469 664.124 777.95> 437 24<139.524 176.317>
Fore
330.524 461 m 1x90
 310.429 386 l 1
 364.505 446 417.74 473 480.74 473 c 0
 543.74 473 572.31 449 585.429 386 c 1
 654.577 450 698.74 473 755.74 473 c 0x40
 837.74 473 876.003 418 852.959 332 c 2
 785.704 81 l 2
 774.182 38 781.967 26 820.431 24 c 1
 814 0 l 1x80
 576 0 l 1x40
 582.431 24 l 1
 621.234 27 635.45 39 646.704 81 c 2
 711.548 323 l 2
 727.356 382 718.787 406 680.787 406 c 0
 663.787 406 644.912 399 618.356 382 c 0
 602.677 372 581.586 353 580.246 348 c 2
 508.704 81 l 2
 498.521 43 506.503 28 540.431 24 c 1
 534 0 l 1xa0
 300 0 l 1x40
 306.431 24 l 1
 344.234 27 358.718 40 369.704 81 c 2
 434.548 323 l 2
 450.625 383 441.787 406 402.787 406 c 0
 385.787 406 366.912 399 341.625 383 c 0
 325.945 373 304.854 354 303.246 348 c 2
 231.704 81 l 2
 221.521 43 228.771 29 262.431 24 c 1
 256 0 l 1xa0
 16 0 l 1x40
 22.4307 24 l 1
 68.5742 32 82.5215 43 93.5078 84 c 2
 172.285 378 l 2
 183.271 419 175.486 431 133.094 437 c 1
 139.524 461 l 1
 330.524 461 l 1x90
EndSplineSet
EndChar
StartChar: n
Encoding: 110 110 78
Width: 556
Flags: W
Validated: 33
HStem: 0 24<231.221 262 310.431 359.444 506.846 539> 0 473<445.933 503.635> 406 67<387.818 503.36>
VStem: 21 557.959<0 332 -235 -185.987>
Fore
335.524 461 m 1x90
 315.429 386 l 1
 368.237 445 421.74 473 481.74 473 c 0x50
 563.74 473 602.003 418 578.959 332 c 2
 511.704 81 l 2
 500.45 39 507.234 27 545.431 24 c 1
 539 0 l 1x90
 304 0 l 1x50
 310.431 24 l 1
 345.503 28 362.79 44 372.704 81 c 2
 437.548 323 l 2
 452.553 379 442.787 406 407.787 406 c 0
 384.787 406 357.572 394 329.409 371 c 0
 316.998 362 307.318 352 306.246 348 c 2
 234.704 81 l 2
 224.79 44 232.771 29 268.431 24 c 1
 262 0 l 1xb0
 21 0 l 1x50
 27.4307 24 l 1
 74.8428 33 85.2539 42 96.5078 84 c 2
 175.285 378 l 2
 186.539 420 180.218 430 138.094 437 c 1
 144.524 461 l 1
 335.524 461 l 1x90
EndSplineSet
EndChar
StartChar: o
Encoding: 111 111 79
Width: 500
Flags: W
Validated: 33
HStem: -14 31<211.105 312.602> 442 31<311.842 412.842>
VStem: 87.1641 450.196<90 214 232 368 229 232 232 232>
Fore
377.74 473 m 0
 506.74 473 574.873 369 537.36 229 c 0
 500.115 90 376.249 -14 247.249 -14 c 0
 116.249 -14 48.8477 89 87.1641 232 c 0
 123.605 368 250.74 473 377.74 473 c 0
370.434 442 m 0
 308.434 442 276.5 390 229.341 214 c 0
 190.221 68 196.555 17 255.555 17 c 0
 313.555 17 347.488 69 388.753 223 c 0
 432.696 387 428.434 442 370.434 442 c 0
EndSplineSet
EndChar
StartChar: p
Encoding: 112 112 80
Width: 556
Flags: W
Validated: 33
HStem: -205 21<184.401 237.07> -13 55<256.463 360.403> 416 57<374.945 513.584>
Fore
335.524 461 m 1
 317.036 392 l 1
 363.577 450 405.74 473 464.74 473 c 0
 575.74 473 625.285 378 588.04 239 c 0
 548.384 91 440.517 -13 328.517 -13 c 0
 284.517 -13 262 0 226.594 47 c 1
 188.812 -94 l 2
 170.86 -161 182.501 -181 242.697 -184 c 1
 237.07 -205 l 1
 -35.9297 -205 l 1
 -29.499 -181 l 1
 20.6445 -173 31.0566 -164 42.042 -123 c 2
 176.285 378 l 2
 187.539 420 180.218 430 138.094 437 c 1
 144.524 461 l 1
 335.524 461 l 1
306.71 346 m 2
 241.599 103 l 1
 246.417 65 269.254 42 302.254 42 c 0
 359.254 42 403.062 101 436.289 225 c 0
 471.39 356 463.467 416 411.467 416 c 0
 389.467 416 363.252 404 337.356 382 c 0
 321.873 369 308.586 353 306.71 346 c 2
EndSplineSet
EndChar
StartChar: q
Encoding: 113 113 81
Width: 556
Flags: W
Validated: 33
HStem: -14 54<170.947 308.133> 441 32<333.611 437.173>
VStem: 92.6807 514.791<219 236 441 472 219 472 219 219>
Fore
316.009 -97 m 2
 353.254 42 l 1
 301.536 2 262.249 -14 215.249 -14 c 0
 106.249 -14 55.9717 82 92.6807 219 c 0
 132.605 368 252.74 473 382.74 473 c 0
 432.74 473 459.988 459 499.467 416 c 1
 592.472 472 l 1
 607.472 472 l 1
 448.042 -123 l 2
 437.324 -163 443.913 -172 487.501 -181 c 1
 481.07 -205 l 1
 214.07 -205 l 1
 220.77 -180 l 1
 288.984 -168 299.396 -159 316.009 -97 c 2
368.259 98 m 1
 438.729 361 l 2
 451.591 409 433.166 441 393.166 441 c 0
 330.166 441 279.409 371 243.236 236 c 0
 208.135 105 221.718 40 283.718 40 c 0
 317.718 40 348.345 61 368.259 98 c 1
EndSplineSet
EndChar
StartChar: r
Encoding: 114 114 82
Width: 444
Flags: W
Validated: 33
HStem: 0 24<243.201 295> 387 86<375.838 471.478> 437 24<152.524 188.049>
VStem: 29 510.84<0 395 -304.371 28.4976>
Fore
341.524 461 m 1xb0
 319.553 379 l 1
 384.505 446 429.74 473 479.74 473 c 0
 526.74 473 551.897 440 539.84 395 c 0
 529.39 356 495.888 328 458.888 328 c 0
 432.888 328 420.299 337 408.533 364 c 0
 401.82 380 394.696 387 386.696 387 c 0xd0
 353.696 387 314.175 344 300.241 292 c 2
 249.599 103 l 2
 232.986 41 241.503 28 301.431 24 c 1
 295 0 l 1
 29 0 l 1
 35.4307 24 l 1
 81.5742 32 94.5215 43 105.508 84 c 2
 184.285 378 l 2
 195.003 418 187.486 431 146.094 437 c 1
 152.524 461 l 1
 341.524 461 l 1xb0
EndSplineSet
EndChar
StartChar: s
Encoding: 115 115 83
Width: 389
Flags: W
Validated: 33
HStem: -14 487<219.74 294.249 203.249 310.74 310.74 310.74> -14 34<144.6 264.641> 440 33<248.332 360.315>
Fore
427.352 326 m 1x80
 402.352 326 l 1
 399.142 370 392.964 388 377.323 408 c 0
 360.95 429 336.897 440 310.897 440 c 0x20
 272.897 440 238.199 415 229.356 382 c 0
 220.246 348 241.548 323 301.777 294 c 0
 389.523 252 417.001 209 397.977 138 c 0
 373.861 48 294.249 -14 203.249 -14 c 0x80
 175.249 -14 125.196 -3 101.411 9 c 0
 92.4834 13 85.0195 15 80.0195 15 c 0
 71.0195 15 63.1436 8 46.5166 -13 c 1
 21.5166 -13 l 1
 65.7285 152 l 1
 93.7285 152 l 1
 91.417 65 125.359 20 195.359 20 c 0x40
 240.359 20 277.325 46 287.775 85 c 0
 296.35 117 275.049 142 215.087 172 c 0
 125.609 215 96.9346 261 114.619 327 c 0
 137.127 411 219.74 473 310.74 473 c 0
 332.74 473 354.668 469 384.721 458 c 0
 399.381 453 408.845 451 414.845 451 c 0
 426.845 451 434.185 456 444.204 471 c 1
 466.204 471 l 1
 427.352 326 l 1x80
EndSplineSet
EndChar
StartChar: t
Encoding: 116 116 84
Width: 333
Flags: W
Validated: 33
HStem: -12 71<174.49 271.985> 417 44<334.524 416.734> 610 20G<312.786 379.808>
VStem: 96.9189 331.605<93 461 93 93>
Fore
428.524 461 m 1
 416.734 417 l 1
 322.734 417 l 1
 242.082 116 l 2
 231.364 76 237.809 59 265.809 59 c 0
 286.809 59 306.561 73 336.742 111 c 1
 358.795 100 l 1
 295.823 18 247.784 -12 180.784 -12 c 0
 111.784 -12 79.5029 28 96.9189 93 c 2
 183.734 417 l 1
 131.734 417 l 1
 138.97 444 l 1
 218.707 499 270.765 544 354.808 630 c 1
 379.808 630 l 1
 334.524 461 l 1
 428.524 461 l 1
EndSplineSet
EndChar
StartChar: u
Encoding: 117 117 85
Width: 556
Flags: W
Validated: 33
HStem: -14 65<171.411 292.917> -14 475<172.153 229.294> 20 23<504.034 542.359> 437 24<403.524 447.367>
VStem: 98.7617 505.763<126 461 126 435.163>
Fore
339.517 -13 m 1x38
 356.934 52 l 1
 285.536 2 246.249 -14 194.249 -14 c 0
 111.249 -14 75.1816 38 98.7617 126 c 2
 166.285 378 l 2
 177.539 420 171.95 429 133.094 437 c 1
 139.524 461 l 1
 327.524 461 l 1
 236.689 122 l 2
 223.024 71 232.665 51 273.665 51 c 0x98
 301.665 51 325.613 62 367.455 95 c 1
 443.285 378 l 2
 454.807 421 446.022 433 397.094 437 c 1
 403.524 461 l 1
 604.524 461 l 1
 508.062 101 l 2
 496.541 58 505.058 45 548.521 43 c 1
 542.359 20 l 1
 478.483 13 l 2
 411.607 6 386.536 2 339.517 -13 c 1x38
EndSplineSet
EndChar
StartChar: v
Encoding: 118 118 86
Width: 500
Flags: W
Validated: 33
HStem: -14 21G<234.5 276.689> 437 24<144.524 168.905 328.321 378.681 378.681 388.094 457.524 498.747 551.377 602.094 138.094 608.524 144.524 144.524>
Fore
608.524 461 m 1
 602.094 437 l 1
 570.29 434 560.146 426 529.356 382 c 2
 263.249 -14 l 1
 237.249 -14 l 1
 196.562 282 l 2
 191.548 323 171.343 423 169.074 422 c 1
 165.486 431 160.29 434 138.094 437 c 1
 144.524 461 l 1
 394.524 461 l 1
 388.094 437 l 1
 379.826 436 371.558 435 369.558 435 c 0
 344.022 433 332.146 426 328.127 411 c 0
 326.52 405 326.912 399 328.82 380 c 2
 353.427 177 l 1
 474.193 359 l 2
 486.017 377 494.304 393 497.252 404 c 0
 503.683 428 493.558 435 451.094 437 c 1
 457.524 461 l 1
 608.524 461 l 1
EndSplineSet
EndChar
StartChar: w
Encoding: 119 119 87
Width: 722
Flags: W
Validated: 33
HStem: -14 475<224.249 248.249 475.249 498.249 498.249 830.524 146.524 146.524> 437 24<417.524 448.854 695.524 729.391>
Fore
830.524 461 m 1x80
 824.094 437 l 1x40
 796.754 432 786.61 424 760.696 387 c 2
 498.249 -14 l 1
 475.249 -14 l 1
 456.312 296 l 1
 248.249 -14 l 1
 224.249 -14 l 1x80
 176.462 360 l 2
 167.146 426 164.754 432 140.094 437 c 1x40
 146.524 461 l 1x80
 368.524 461 l 1
 362.094 437 l 1
 333.022 433 320.879 425 316.591 409 c 0
 313.107 396 315.533 364 324.777 294 c 0
 326.025 280 327.935 261 331.308 240 c 2
 338.159 176 l 1
 451.979 347 l 1
 451.069 366 l 2
 449.754 432 449.022 433 411.094 437 c 1
 417.524 461 l 1x40
 651.524 461 l 1x80
 645.094 437 l 1
 606.29 434 594.95 429 590.663 413 c 0
 588.252 404 587.749 376 589.261 307 c 0
 590.433 233 590.217 221 589.23 180 c 1
 610.341 214 623.968 235 649.418 274 c 0
 701.586 353 724.5 390 727.716 402 c 0
 733.879 425 725.021 433 689.094 437 c 1x40
 695.524 461 l 1
 830.524 461 l 1x80
EndSplineSet
EndChar
StartChar: x
Encoding: 120 120 88
Width: 500
Flags: W
Validated: 33
HStem: 0 461<299.79 327.003 135.524 484 187.757 220.844> 0 24<20.4307 82.8866 145.685 183> 437 24<327.163 379.094 432.524 437.757 437.757 470.844>
Fore
490.431 24 m 1x60
 484 0 l 1
 243 0 l 1x80
 249.431 24 l 1
 280.967 26 296.574 32 299.79 44 c 0
 303.005 56 298.096 75 283.938 108 c 2
 258.819 171 l 1
 249.408 162 240.265 154 237.46 151 c 0
 187.135 105 149.881 63 145.861 48 c 0
 141.843 33 153.967 26 189.431 24 c 1x40
 183 0 l 1x80
 14 0 l 1
 20.4307 24 l 1
 57.9668 26 82.5215 43 158.35 117 c 0
 171.102 131 206.943 164 245.857 201 c 1
 170.644 398 l 2
 158.683 428 154.022 433 129.094 437 c 1x60
 135.524 461 l 1
 385.524 461 l 1x80
 379.094 437 l 1
 345.826 436 330.218 430 327.003 418 c 0
 323.52 405 337.998 362 358.744 320 c 0
 360.672 316 363.064 310 367.188 303 c 1
 387.815 324 407.906 343 415.515 349 c 0
 452.089 381 466.644 398 470.663 413 c 0
 474.683 428 468.29 434 445.558 435 c 0
 442.558 435 434.826 436 426.094 437 c 1x20
 432.524 461 l 1x80
 600.524 461 l 1
 594.094 437 l 1
 561.754 432 538.807 421 513.644 398 c 2
 378.882 272 l 1
 465.79 44 l 2
 469.843 33 475.771 29 490.431 24 c 1x60
EndSplineSet
EndChar
StartChar: y
Encoding: 121 121 89
Width: 500
Flags: W
Validated: 33
HStem: -205 57<51.9179 140.784> 437 24<139.524 163.905 366.826 383.094 452.524 493.747 546.31 597.094>
Fore
603.524 461 m 1
 597.094 437 l 1
 565.29 434 552.61 424 524.356 382 c 2
 268.98 -15 l 2
 208.794 -109 178.075 -149 150.913 -172 c 0
 124.286 -193 92.0703 -205 58.0703 -205 c 0
 1.07031 -205 -30.0869 -172 -17.7617 -126 c 0
 -7.5791 -88 26.3867 -62 63.3867 -62 c 0
 97.3867 -62 116.028 -82 108.258 -111 c 0
 107.186 -115 104.846 -120 102.506 -125 c 0
 100.702 -128 100.167 -130 99.8984 -131 c 0
 97.4873 -140 103.344 -148 112.344 -148 c 0
 135.344 -148 169.918 -116 200.315 -66 c 2
 232.517 -13 l 1
 191.562 282 l 2
 185.815 324 167.074 422 164.074 422 c 1
 160.486 431 155.29 434 133.094 437 c 1
 139.524 461 l 1
 389.524 461 l 1
 383.094 437 l 1
 366.826 436 l 2
 341.29 434 326.879 425 323.127 411 c 0
 320.983 403 320.983 403 327.318 352 c 2
 349.747 167 l 1
 469.193 359 l 2
 484.893 384 489.304 393 492.252 404 c 0
 498.683 428 488.558 435 446.094 437 c 1
 452.524 461 l 1
 603.524 461 l 1
EndSplineSet
EndChar
StartChar: z
Encoding: 122 122 90
Width: 444
Flags: W
Validated: 33
HStem: 0 32<193.574 344.449> 429 32<214.971 369.95>
VStem: 21 518.524<0 461 1.53064e-18 1.53064e-18>
Fore
462.872 160 m 1
 404 0 l 1
 21 0 l 1
 27.6992 25 l 1
 369.95 429 l 1
 230.218 430 199.931 414 149.476 319 c 1
 123.476 319 l 1
 168.524 461 l 1
 539.524 461 l 1
 532.558 435 l 1
 193.574 32 l 1
 222.574 32 l 2
 302.574 32 339.058 45 382.848 89 c 0
 404.475 110 417.298 128 434.872 160 c 1
 462.872 160 l 1
EndSplineSet
EndChar
StartChar: braceleft
Encoding: 123 123 91
Width: 394
Flags: HMW
Validated: 33
HStem: -175 12<340 340> 686 12<340 340>
VStem: 129 105<-34 131 377 391 391 556 556 562>
Fore
119.89 -34 m 2
 167.853 145 l 2
 186.877 216 171.308 240 91.9346 261 c 1
 182.562 282 210.992 306 230.017 377 c 2
 277.979 556 l 2
 292.717 611 318.631 648 358.258 669 c 0
 395.885 690 437.761 697 527.028 698 c 1
 523.813 686 l 1
 439.258 669 404.951 638 384.588 562 c 2
 338.769 391 l 2
 316.261 307 285.294 281 185.935 261 c 1
 274.576 241 291.609 215 269.102 131 c 2
 223.282 -40 l 2
 202.918 -116 221.611 -147 296.324 -163 c 1
 293.109 -175 l 1
 195.377 -174 154.057 -164 131.023 -138 c 0
 109.918 -116 106.76 -83 119.89 -34 c 2
EndSplineSet
EndChar
StartChar: bar
Encoding: 124 124 92
Width: 220
Flags: HMW
Validated: 1
HStem: -19 20 671 20<66 154 154 154>
VStem: 66 88<-19 691 -19 691>
Fore
60.9092 -19 m 1
 251.153 691 l 1
 339.153 691 l 1
 148.909 -19 l 1
 60.9092 -19 l 1
EndSplineSet
EndChar
StartChar: braceright
Encoding: 125 125 93
Width: 394
Flags: HMW
Validated: 33
HStem: -175 12<54 54> 686 12<54 54>
VStem: 160 105<-39 -33 -33 132 132 146 392 557>
Fore
149.55 -39 m 2
 195.369 132 l 2
 217.609 215 249.844 242 348.203 262 c 1
 259.562 282 242.528 308 265.036 392 c 2
 310.855 563 l 2
 330.951 638 312.526 670 237.813 686 c 1
 241.028 698 l 1
 330.761 697 367.885 690 394.258 669 c 0
 422.631 648 428.985 612 414.248 557 c 2
 366.285 378 l 2
 347.261 307 362.83 283 442.203 262 c 1
 351.576 241 323.145 217 304.12 146 c 2
 256.157 -33 l 2
 241.421 -88 215.506 -125 175.88 -146 c 0
 138.253 -167 96.377 -174 7.10938 -175 c 1
 10.3242 -163 l 1
 94.8799 -146 129.186 -115 149.55 -39 c 2
EndSplineSet
EndChar
StartChar: asciitilde
Encoding: 126 126 94
Width: 520
Flags: W
Validated: 1
HStem: 175 88<389.679 493.238> 243 88<157.828 277.746>
VStem: 95.1836 465.483<247 260 247 247>
Fore
518.528 308 m 1xa0
 560.667 260 l 1
 498.786 197 460.891 175 414.891 175 c 0xa0
 381.891 175 358.035 183 318.733 208 c 0
 279.433 233 251.111 243 216.111 243 c 0
 187.111 243 167.433 233 135.857 201 c 1
 95.1836 247 l 1
 144.992 306 187.691 331 241.691 331 c 0x60
 274.691 331 298.548 323 364.438 289 c 0
 405.078 269 421.471 263 438.471 263 c 0
 461.471 263 484.954 276 518.528 308 c 1xa0
EndSplineSet
EndChar
StartChar: uni0591
Encoding: 256 1425 95
Width: 0
Flags: HMW
Validated: 33
VStem: -92 55 -28 55 38 55
Fore
-59.082 -116 m 1
 -44.0771 -60 l 2
 -41.9336 -52 -33.0576 -45 -24.0576 -45 c 2
 -0.0576172 -45 l 2
 8.94238 -45 14.0664 -52 11.9229 -60 c 2
 -3.08203 -116 l 1
 23.5781 -121 53.6836 -143 45.1094 -175 c 2
 33.0508 -220 l 2
 30.9072 -228 23.0322 -235 15.0322 -235 c 2
 -10.9678 -235 l 2
 -18.9678 -235 -23.0928 -228 -20.9492 -220 c 2
 -9.69531 -178 l 2
 -4.06836 -157 -16.5127 -140 -37.5127 -140 c 0
 -58.5127 -140 -80.0684 -157 -85.6953 -178 c 2
 -96.9492 -220 l 2
 -99.0928 -228 -106.968 -235 -114.968 -235 c 2
 -140.968 -235 l 2
 -148.968 -235 -153.093 -228 -150.949 -220 c 2
 -138.891 -175 l 2
 -130.585 -144 -92.1543 -120 -59.082 -116 c 1
EndSplineSet
EndChar
StartChar: uni0592
Encoding: 257 1426 96
Width: 0
Flags: W
Validated: 33
HStem: 665 75<89.2559 153.244 223.256 287.244> 780 75<186.089 251.92>
VStem: 84.1006 74<677.431 746.723> 181.183 76<793.188 861.454> 218.101 74<677.431 746.723>
Fore
111.187 665 m 0xe0
 90.1865 665 78.7412 682 84.1006 702 c 0
 89.7275 723 110.282 740 131.282 740 c 0
 152.282 740 163.728 723 158.101 702 c 0
 152.741 682 132.187 665 111.187 665 c 0xe0
209 780 m 0
 188 780 175.556 797 181.183 818 c 0
 186.541 838 208.097 855 229.097 855 c 0
 250.097 855 262.541 838 257.183 818 c 0xf0
 251.556 797 230 780 209 780 c 0
245.187 665 m 0
 224.187 665 212.741 682 218.101 702 c 0
 223.728 723 244.282 740 265.282 740 c 0
 286.282 740 297.728 723 292.101 702 c 0xe8
 286.741 682 266.187 665 245.187 665 c 0
EndSplineSet
EndChar
StartChar: uni0593
Encoding: 258 1427 97
Width: 0
Flags: HMW
Validated: 33
HStem: 574 107
Fore
152.598 674 m 2
 124.832 701 l 2
 108.119 717 116.086 743 139.086 743 c 2
 196.086 743 l 1
 148.144 788 l 2
 131.432 804 137.254 822 160.254 822 c 2
 220.254 822 l 1
 169.116 870 l 2
 153.135 885 157.154 900 181.154 900 c 2
 254.154 900 l 2
 268.154 900 276.082 896 280.011 892 c 2
 291.063 881 l 2
 303.312 867 299.097 855 277.097 855 c 2
 236.097 855 l 1
 282.843 813 l 2
 297.092 799 293.805 783 270.805 783 c 2
 209.805 783 l 1
 261.675 734 l 2
 275.924 720 272.637 704 249.637 704 c 2
 188.637 704 l 1
 203.885 690 l 2
 216.67 678 215.187 665 192.187 665 c 2
 180.187 665 l 2
 165.187 665 160.722 667 152.598 674 c 2
EndSplineSet
EndChar
StartChar: uni0594
Encoding: 259 1428 98
Width: 0
Flags: HMW
Validated: 33
HStem: 665 75<-10.5 10.5> 780 75<-10.5 10.5>
Fore
198.282 740 m 0
 219.282 740 231.728 723 226.101 702 c 0
 220.741 682 199.187 665 178.187 665 c 0
 157.187 665 144.741 682 150.101 702 c 0
 155.728 723 177.282 740 198.282 740 c 0
229.097 855 m 0
 250.097 855 262.541 838 257.183 818 c 0
 251.556 797 230 780 209 780 c 0
 188 780 175.556 797 181.183 818 c 0
 186.541 838 208.097 855 229.097 855 c 0
EndSplineSet
EndChar
StartChar: uni0595
Encoding: 260 1429 99
Width: 0
Flags: HMW
Validated: 33
HStem: 665 75<39.5 60.5> 780 75<39.5 60.5>
VStem: -88 55
Fore
130.99 668 m 2
 106.99 668 l 2
 97.9902 668 92.5977 674 94.7412 682 c 2
 136.541 838 l 2
 138.685 846 147.293 852 156.293 852 c 2
 180.293 852 l 2
 189.293 852 194.685 846 192.541 838 c 2
 150.741 682 l 2
 148.598 674 139.99 668 130.99 668 c 2
248.282 740 m 0
 269.282 740 281.728 723 276.101 702 c 0
 270.741 682 249.187 665 228.187 665 c 0
 207.187 665 194.741 682 200.101 702 c 0
 205.728 723 227.282 740 248.282 740 c 0
279.097 855 m 0
 300.097 855 312.541 838 307.183 818 c 0
 301.556 797 280 780 259 780 c 0
 238 780 225.556 797 231.183 818 c 0
 236.541 838 258.097 855 279.097 855 c 0
EndSplineSet
EndChar
StartChar: uni0596
Encoding: 261 1430 100
Width: 0
Flags: W
Validated: 33
HStem: -265 220<-66.0576 -33.0068>
VStem: -83.8086 28.5352<-138.63 -50.0501>
Fore
-55.2734 -57 m 0
 -64.9961 -153 -47.3027 -184 -1.53711 -211 c 0
 5.39062 -215 7.71191 -225 5.03223 -235 c 0
 0.476562 -252 -16.0068 -265 -33.0068 -265 c 0
 -39.0068 -265 -44.4707 -263 -48.3984 -259 c 0
 -95.1445 -217 -102.441 -136 -83.8086 -59 c 0
 -81.665 -51 -74.0576 -45 -66.0576 -45 c 0
 -59.0576 -45 -54.3975 -50 -55.2734 -57 c 0
EndSplineSet
EndChar
StartChar: uni0597
Encoding: 262 1431 101
Width: 0
Flags: W
Validated: 33
HStem: 676 158<194.134 210.47 210.47 210.47>
VStem: 136.746 131.11<738 772 738 738>
Fore
136.746 738 m 0
 126.354 744 132.249 766 145.856 772 c 0
 170.805 783 194.699 805 210.47 834 c 0
 218.221 848 235.489 849 236.202 833 c 0
 236.699 805 248.536 782 267.856 772 c 0
 278.249 766 272.354 744 258.746 738 c 0
 233.799 727 209.904 705 194.134 676 c 0
 186.383 662 168.114 661 168.134 676 c 0
 167.904 705 155.799 727 136.746 738 c 0
EndSplineSet
EndChar
StartChar: uni0598
Encoding: 263 1432 102
Width: 0
Flags: W
Validated: 33
HStem: 665 48<252.621 310.345> 665 32<85.1897 122.108> 771 49<87.6927 145.15> 787 33<276.4 311.111>
VStem: 53.8184 290<700 713 771 785 742 742 742 742>
Fore
140.445 763 m 2x58
 136.785 768 130.589 771 122.589 771 c 0
 106.589 771 90.1055 758 85.8184 742 c 0
 79.1191 717 94.7607 697 118.761 697 c 0
 127.761 697 132.885 690 130.474 681 c 0
 128.062 672 119.187 665 110.187 665 c 0x68
 68.1865 665 42.5645 700 53.8184 742 c 0
 65.3398 785 109.719 820 151.719 820 c 0
 173.719 820 190.307 811 200.556 797 c 2
 257.191 721 l 2
 260.852 716 267.048 713 275.048 713 c 0x98
 291.048 713 307.531 726 311.818 742 c 0
 318.517 767 302.876 787 278.876 787 c 0
 269.876 787 265.02 795 267.163 803 c 0
 269.575 812 278.719 820 287.719 820 c 0
 329.719 820 355.34 785 343.818 742 c 0
 332.564 700 288.187 665 246.187 665 c 0
 224.187 665 207.598 674 197.349 688 c 2
 140.445 763 l 2x58
EndSplineSet
EndChar
StartChar: uni0599
Encoding: 264 1433 103
Width: 0
Flags: W
Validated: 33
HStem: 665 220<199.135 232.187>
VStem: 221.401 28.5361<672.916 761.495>
Fore
221.401 677 m 0
 231.125 773 213.432 804 167.666 831 c 0
 160.737 835 158.417 845 161.097 855 c 0
 165.651 872 182.135 885 199.135 885 c 0
 205.135 885 210.6 883 214.527 879 c 0
 261.273 837 268.569 756 249.938 679 c 0
 247.794 671 240.187 665 232.187 665 c 0
 225.187 665 220.526 670 221.401 677 c 0
EndSplineSet
EndChar
StartChar: uni059A
Encoding: 265 1434 104
Width: 0
Flags: W
Validated: 33
HStem: -234 179<32.2998 76.2627 76.2627 76.2627>
VStem: -139.996 229.704<-153 -72 -153 -153>
Fore
69.9951 -56 m 2
 72.2627 -55 74.2627 -55 76.2627 -55 c 0
 86.2627 -55 92.1191 -63 89.708 -72 c 0
 87.5645 -80 80.9561 -86 74.1523 -89 c 2
 -48.1729 -135 l 1
 47.0371 -179 l 2
 55.9648 -183 58.3574 -189 55.4102 -200 c 2
 48.7119 -225 l 2
 46.2998 -234 39.4961 -237 32.2998 -234 c 2
 -139.996 -153 l 2
 -151.656 -148 -148.977 -138 -134.638 -133 c 2
 69.9951 -56 l 2
EndSplineSet
EndChar
StartChar: uni059B
Encoding: 266 1435 105
Width: 0
Flags: W
Validated: 33
HStem: -155 75<-111.356 -46.4739>
VStem: -116.618 75<-142.31 -73.5177> 40.7266 28.4648<-166.959 -46.9596>
Fore
-68.4355 -80 m 0
 -47.4355 -80 -35.9912 -97 -41.6182 -118 c 0
 -46.9766 -138 -67.5322 -155 -88.5322 -155 c 0
 -109.532 -155 -121.977 -138 -116.618 -118 c 0
 -110.991 -97 -89.4355 -80 -68.4355 -80 c 0
40.7266 -57 m 0
 43.6025 -50 50.9424 -45 57.9424 -45 c 0
 65.9424 -45 71.335 -51 69.1914 -59 c 0
 45.5586 -136 -4.14453 -217 -73.3984 -259 c 0
 -79.4707 -263 -86.0068 -265 -93.0068 -265 c 0
 -109.007 -265 -119.523 -252 -114.968 -235 c 0
 -112.288 -225 -103.609 -215 -94.5371 -211 c 0
 -34.3027 -184 0.00390625 -153 40.7266 -57 c 0
EndSplineSet
EndChar
StartChar: uni059C
Encoding: 267 1436 106
Width: 0
Flags: W
Validated: 33
HStem: 665 220
VStem: 113.938 183.159 113.938 27.4639<674.834 791.251>
Fore
141.401 677 m 0xa0
 138.526 670 131.187 665 124.187 665 c 0
 116.187 665 111.794 671 113.938 679 c 0xa0
 136.569 756 187.273 837 256.527 879 c 0
 262.6 883 269.135 885 275.135 885 c 0
 292.135 885 301.651 872 297.097 855 c 0xc0
 294.417 845 286.737 835 277.666 831 c 0
 217.432 804 183.125 773 141.401 677 c 0xa0
EndSplineSet
EndChar
StartChar: uni059D
Encoding: 268 1437 107
Width: 0
Flags: W
Validated: 33
HStem: 665 220
VStem: 113.938 183.159 113.938 27.4639<674.834 791.251>
Fore
141.401 677 m 0xa0
 138.526 670 131.187 665 124.187 665 c 0
 116.187 665 111.794 671 113.938 679 c 0xa0
 136.569 756 187.273 837 256.527 879 c 0
 262.6 883 269.135 885 275.135 885 c 0
 292.135 885 301.651 872 297.097 855 c 0xc0
 294.417 845 286.737 835 277.666 831 c 0
 217.432 804 183.125 773 141.401 677 c 0xa0
EndSplineSet
EndChar
StartChar: uni059E
Encoding: 269 1438 108
Width: 0
Flags: W
Validated: 33
HStem: 665 220
VStem: 53.9375 303.159<679 855 679 679> 53.9375 27.4639<674.834 791.251> 173.938 27.4639<674.834 791.251>
Fore
201.401 677 m 0x90
 198.526 670 191.187 665 184.187 665 c 0
 176.187 665 171.794 671 173.938 679 c 0x90
 196.569 756 247.273 837 316.527 879 c 0
 322.6 883 329.135 885 335.135 885 c 0
 352.135 885 361.651 872 357.097 855 c 0xc0
 354.417 845 346.737 835 337.666 831 c 0
 277.432 804 243.125 773 201.401 677 c 0x90
81.4014 677 m 0xa0
 78.5264 670 71.1865 665 64.1865 665 c 0
 56.1865 665 51.7939 671 53.9375 679 c 0xc0
 76.5693 756 127.273 837 196.527 879 c 0
 202.6 883 209.135 885 215.135 885 c 0
 232.135 885 241.651 872 237.097 855 c 0
 234.417 845 226.737 835 217.666 831 c 0
 157.432 804 123.125 773 81.4014 677 c 0xa0
EndSplineSet
EndChar
StartChar: uni059F
Encoding: 270 1439 109
Width: 0
Flags: W
Validated: 33
HStem: 667 214<245.722 336.063 336.063 336.063>
VStem: 13.3975 418<830 830 830 830>
Fore
336.346 841 m 0
 308.666 831 287.163 803 290.465 778 c 0
 292.766 753 317.282 740 344.694 749 c 0
 372.105 758 392.608 786 390.307 811 c 0
 388.273 837 363.757 850 336.346 841 c 0
257.479 737 m 2
 263.354 744 263.426 748 259.838 757 c 0
 244.896 802 280.973 862 336.063 881 c 0
 384.351 897 427.188 874 431.397 830 c 0
 435.608 786 399.479 737 351.191 721 c 0
 333.584 715 316.584 715 302.655 719 c 0
 294.924 720 290.388 718 287.048 713 c 2
 263.598 674 l 2
 258.454 666 252.918 664 245.722 667 c 2
 219.401 677 l 2
 212.205 680 212.813 686 218.688 693 c 2
 257.479 737 l 2
114.346 841 m 0
 91.7568 850 60.2734 837 44.3066 811 c 0
 28.6084 786 34.1055 758 56.6943 749 c 0
 79.2822 740 110.766 753 126.465 778 c 0
 143.163 803 136.666 831 114.346 841 c 0
137.479 737 m 2
 152.688 693 l 2
 154.813 686 152.205 680 143.401 677 c 2
 111.722 667 l 2
 102.918 664 98.4541 666 97.5977 674 c 2
 95.0479 713 l 2
 94.3877 718 90.9238 720 82.6553 719 c 0
 66.584 715 49.584 715 35.1914 721 c 0
 -4.52148 737 -14.3916 786 13.3975 830 c 0
 41.1875 874 96.3506 897 136.063 881 c 0
 180.973 862 184.896 802 145.838 757 c 0
 137.426 748 135.354 744 137.479 737 c 2
EndSplineSet
EndChar
StartChar: uni05A0
Encoding: 271 1440 110
Width: 0
Flags: W
Validated: 33
HStem: 667 214<122.722 214.063 214.063 214.063>
VStem: 96.6885 212.709<693 830 693 693>
Fore
213.346 841 m 0
 185.666 831 165.163 803 167.465 778 c 0
 169.766 753 194.282 740 222.694 749 c 0
 250.105 758 270.608 786 268.307 811 c 0
 266.273 837 241.757 850 213.346 841 c 0
134.479 737 m 2
 140.354 744 140.426 748 137.838 757 c 0
 121.896 802 158.973 862 214.063 881 c 0
 262.351 897 305.188 874 309.397 830 c 0
 313.608 786 277.479 737 229.191 721 c 0
 211.584 715 194.584 715 179.655 719 c 0
 172.924 720 168.388 718 165.048 713 c 2
 141.598 674 l 2
 136.454 666 130.918 664 122.722 667 c 2
 97.4014 677 l 2
 90.2051 680 89.8135 686 96.6885 693 c 2
 134.479 737 l 2
EndSplineSet
EndChar
StartChar: uni05A1
Encoding: 272 1441 111
Width: 0
Flags: HMW
Validated: 33
HStem: 655 75 770 75
VStem: -89 55<682 730 755 838>
Fore
168.302 755 m 1
 187.302 755 l 2
 223.302 755 240.321 770 248.896 802 c 2
 258.541 838 l 2
 260.685 846 268.293 852 277.293 852 c 2
 302.293 852 l 2
 310.293 852 315.685 846 313.541 838 c 2
 300.948 791 l 2
 289.694 749 264.603 730 220.603 730 c 2
 161.603 730 l 1
 148.741 682 l 2
 146.598 674 138.99 668 129.99 668 c 2
 104.99 668 l 2
 96.9902 668 91.5977 674 93.7412 682 c 2
 135.541 838 l 2
 137.685 846 146.293 852 154.293 852 c 2
 179.293 852 l 2
 188.293 852 192.685 846 190.541 838 c 2
 168.302 755 l 1
EndSplineSet
EndChar
StartChar: uni05A3
Encoding: 273 1443 112
Width: 0
Flags: HMW
Validated: 33
HStem: -110 55
Fore
35.7881 -165 m 1
 63.9229 -60 l 2
 66.0664 -52 74.9424 -45 82.9424 -45 c 2
 87.9424 -45 l 2
 95.9424 -45 101.066 -52 98.9229 -60 c 2
 60.0703 -205 l 2
 57.9268 -213 49.0508 -220 41.0508 -220 c 2
 -158.949 -220 l 2
 -166.949 -220 -172.073 -213 -169.93 -205 c 2
 -163.23 -180 l 2
 -161.087 -172 -152.212 -165 -144.212 -165 c 2
 35.7881 -165 l 1
EndSplineSet
EndChar
StartChar: uni05A4
Encoding: 274 1444 113
Width: 0
Flags: W
Validated: 33
HStem: -234 179<32.2998 76.2627 76.2627 76.2627>
VStem: -139.996 229.704<-153 -72 -153 -153>
Fore
69.9951 -56 m 2
 72.2627 -55 74.2627 -55 76.2627 -55 c 0
 86.2627 -55 92.1191 -63 89.708 -72 c 0
 87.5645 -80 80.9561 -86 74.1523 -89 c 2
 -48.1729 -135 l 1
 47.0371 -179 l 2
 55.9648 -183 58.3574 -189 55.4102 -200 c 2
 48.7119 -225 l 2
 46.2998 -234 39.4961 -237 32.2998 -234 c 2
 -139.996 -153 l 2
 -151.656 -148 -148.977 -138 -134.638 -133 c 2
 69.9951 -56 l 2
EndSplineSet
EndChar
StartChar: uni05A5
Encoding: 275 1445 114
Width: 0
Flags: W
Validated: 33
HStem: -265 220
VStem: -130.968 183.159 24.7266 27.4648<-163.425 -47.008>
Fore
24.7266 -57 m 0xa0
 27.6025 -50 34.9424 -45 41.9424 -45 c 0
 49.9424 -45 54.335 -51 52.1914 -59 c 0xa0
 29.5586 -136 -21.1445 -217 -90.3984 -259 c 0
 -96.4707 -263 -103.007 -265 -109.007 -265 c 0
 -126.007 -265 -135.523 -252 -130.968 -235 c 0xc0
 -128.289 -225 -120.609 -215 -111.537 -211 c 0
 -51.3027 -184 -16.9961 -153 24.7266 -57 c 0xa0
EndSplineSet
EndChar
StartChar: uni05A6
Encoding: 276 1446 115
Width: 0
Flags: W
Validated: 33
HStem: -265 220
VStem: -190.968 303.159<-235 -59 -235 -235> -35.2734 27.4648<-163.425 -47.008> 84.7266 27.4648<-163.425 -47.008>
Fore
-35.2734 -57 m 0xa0
 -32.3975 -50 -25.0576 -45 -18.0576 -45 c 0
 -10.0576 -45 -5.66504 -51 -7.80859 -59 c 0xa0
 -30.4414 -136 -81.1445 -217 -150.398 -259 c 0
 -156.471 -263 -163.007 -265 -169.007 -265 c 0
 -186.007 -265 -195.523 -252 -190.968 -235 c 0xc0
 -188.289 -225 -180.609 -215 -171.537 -211 c 0
 -111.303 -184 -76.9961 -153 -35.2734 -57 c 0xa0
84.7266 -57 m 0x90
 87.6025 -50 94.9424 -45 101.942 -45 c 0
 109.942 -45 114.335 -51 112.191 -59 c 0xc0
 89.5586 -136 38.8555 -217 -30.3984 -259 c 0
 -36.4707 -263 -43.0068 -265 -49.0068 -265 c 0
 -66.0068 -265 -75.5234 -252 -70.9678 -235 c 0
 -68.2881 -225 -60.6094 -215 -51.5371 -211 c 0
 8.69727 -184 43.0039 -153 84.7266 -57 c 0x90
EndSplineSet
EndChar
StartChar: uni05A7
Encoding: 277 1447 116
Width: 0
Flags: HMW
Validated: 33
HStem: -95 60
Fore
9.67773 -199 m 2
 16.7305 -210 20.3906 -215 15.8359 -232 c 2
 11.8164 -247 l 2
 9.40527 -256 1.26172 -264 -5.73828 -264 c 2
 -135.738 -264 l 2
 -142.738 -264 -146.595 -256 -144.184 -247 c 2
 -139.628 -230 l 2
 -137.217 -221 -129.341 -214 -122.341 -214 c 2
 -25.3408 -214 l 1
 -93.4219 -121 l 2
 -102.206 -109 -105.599 -103 -101.312 -87 c 2
 -97.292 -72 l 2
 -94.6133 -62 -86.7373 -55 -79.7373 -55 c 2
 50.2627 -55 l 2
 57.2627 -55 61.3867 -62 58.708 -72 c 2
 54.4209 -88 l 2
 51.7412 -98 43.8652 -105 36.8652 -105 c 2
 -59.1348 -105 l 1
 9.67773 -199 l 2
EndSplineSet
EndChar
StartChar: uni05A8
Encoding: 278 1448 117
Width: 0
Flags: W
Validated: 33
HStem: 665 220<199.135 232.187>
VStem: 221.401 28.5361<672.916 761.495>
Fore
221.401 677 m 0
 231.125 773 213.432 804 167.666 831 c 0
 160.737 835 158.417 845 161.097 855 c 0
 165.651 872 182.135 885 199.135 885 c 0
 205.135 885 210.6 883 214.527 879 c 0
 261.273 837 268.569 756 249.938 679 c 0
 247.794 671 240.187 665 232.187 665 c 0
 225.187 665 220.526 670 221.401 677 c 0
EndSplineSet
EndChar
StartChar: uni05A9
Encoding: 279 1449 118
Width: 0
Flags: W
Validated: 33
HStem: 667 214<234.722 258.063 258.063 258.063>
VStem: 135.397 139.291<693 830 830 830>
Fore
237.346 841 m 0
 213.757 850 182.273 837 166.307 811 c 0
 150.608 786 156.105 758 178.694 749 c 0
 202.282 740 233.766 753 249.465 778 c 0
 265.163 803 259.666 831 237.346 841 c 0
260.479 737 m 2
 274.688 693 l 2
 277.813 686 274.205 680 265.401 677 c 2
 234.722 667 l 2
 224.918 664 220.454 666 219.598 674 c 2
 217.048 713 l 2
 216.388 718 212.924 720 205.655 719 c 0
 188.584 715 171.584 715 157.191 721 c 0
 117.479 737 107.608 786 135.397 830 c 0
 163.188 874 218.351 897 258.063 881 c 0
 302.973 862 307.896 802 267.838 757 c 0
 260.426 748 258.354 744 260.479 737 c 2
EndSplineSet
EndChar
StartChar: uni05AA
Encoding: 280 1450 119
Width: 0
Flags: HMW
Validated: 33
VStem: -92 55 -28 55 38 55
Fore
-71.9434 -164 m 1
 -102.872 -160 -128.441 -136 -120.135 -105 c 2
 -108.077 -60 l 2
 -105.934 -52 -98.0576 -45 -90.0576 -45 c 2
 -64.0576 -45 l 2
 -56.0576 -45 -51.9336 -52 -54.0771 -60 c 2
 -65.3311 -102 l 2
 -70.958 -123 -58.5127 -140 -37.5127 -140 c 0
 -16.5127 -140 5.04199 -123 10.6689 -102 c 2
 21.9229 -60 l 2
 24.0664 -52 31.9424 -45 39.9424 -45 c 2
 65.9424 -45 l 2
 73.9424 -45 78.0664 -52 75.9229 -60 c 2
 63.8652 -105 l 2
 55.291 -137 13.3965 -159 -15.9434 -164 c 1
 -30.9492 -220 l 2
 -33.0928 -228 -41.9678 -235 -50.9678 -235 c 2
 -74.9678 -235 l 2
 -83.9678 -235 -89.0928 -228 -86.9492 -220 c 2
 -71.9434 -164 l 1
EndSplineSet
EndChar
StartChar: uni05AB
Encoding: 281 1451 120
Width: 0
Flags: W
Validated: 33
HStem: 665 179<273.187 317.149 317.149 317.149>
VStem: 100.89 229.437<746 826 746 746>
Fore
310.881 843 m 1
 312.881 843 315.149 844 317.149 844 c 0
 327.149 844 333.006 836 330.326 826 c 0
 328.45 819 321.843 813 315.039 810 c 2
 192.713 764 l 1
 287.924 720 l 2
 296.852 716 299.244 710 296.297 699 c 2
 289.598 674 l 2
 287.187 665 280.383 662 273.187 665 c 2
 100.89 746 l 2
 89.2295 751 91.9092 761 106.249 766 c 2
 310.881 843 l 1
EndSplineSet
EndChar
StartChar: uni05AC
Encoding: 282 1452 121
Width: 0
Flags: HMW
Validated: 33
HStem: 775 55
Fore
272.924 720 m 1
 301.058 825 l 2
 303.202 833 312.077 840 320.077 840 c 2
 325.077 840 l 2
 333.077 840 338.202 833 336.058 825 c 2
 297.205 680 l 2
 295.062 672 286.187 665 278.187 665 c 2
 78.1865 665 l 2
 70.1865 665 65.0615 672 67.2051 680 c 2
 73.9043 705 l 2
 76.0479 713 84.9238 720 92.9238 720 c 2
 272.924 720 l 1
EndSplineSet
EndChar
StartChar: uni05AD
Encoding: 283 1453 122
Width: 0
Flags: W
Validated: 33
HStem: -265 220<-66.0576 -33.0068>
VStem: -83.8086 28.5352<-138.63 -50.0501>
Fore
-55.2734 -57 m 0
 -64.9961 -153 -47.3027 -184 -1.53711 -211 c 0
 5.39062 -215 7.71191 -225 5.03223 -235 c 0
 0.476562 -252 -16.0068 -265 -33.0068 -265 c 0
 -39.0068 -265 -44.4707 -263 -48.3984 -259 c 0
 -95.1445 -217 -102.441 -136 -83.8086 -59 c 0
 -81.665 -51 -74.0576 -45 -66.0576 -45 c 0
 -59.0576 -45 -54.3975 -50 -55.2734 -57 c 0
EndSplineSet
EndChar
StartChar: uni05AE
Encoding: 284 1454 123
Width: 0
Flags: W
Validated: 33
HStem: 665 48<252.621 310.345> 665 32<85.1897 122.108> 771 49<87.6927 145.15> 787 33<276.4 311.111>
VStem: 53.8184 290<700 713 771 785 742 742 742 742>
Fore
140.445 763 m 2x58
 136.785 768 130.589 771 122.589 771 c 0
 106.589 771 90.1055 758 85.8184 742 c 0
 79.1191 717 94.7607 697 118.761 697 c 0
 127.761 697 132.885 690 130.474 681 c 0
 128.062 672 119.187 665 110.187 665 c 0x68
 68.1865 665 42.5645 700 53.8184 742 c 0
 65.3398 785 109.719 820 151.719 820 c 0
 173.719 820 190.307 811 200.556 797 c 2
 257.191 721 l 2
 260.852 716 267.048 713 275.048 713 c 0x98
 291.048 713 307.531 726 311.818 742 c 0
 318.517 767 302.876 787 278.876 787 c 0
 269.876 787 265.02 795 267.163 803 c 0
 269.575 812 278.719 820 287.719 820 c 0
 329.719 820 355.34 785 343.818 742 c 0
 332.564 700 288.187 665 246.187 665 c 0
 224.187 665 207.598 674 197.349 688 c 2
 140.445 763 l 2x58
EndSplineSet
EndChar
StartChar: uni05AF
Encoding: 285 1455 124
Width: 0
Flags: HMW
Validated: 33
HStem: 680 44 813 44
VStem: -89 44 44 44
Fore
215.163 803 m 0
 188.163 803 160.269 781 153.033 754 c 0
 145.799 727 161.904 705 188.904 705 c 0
 215.904 705 243.799 727 251.033 754 c 0
 258.269 781 242.163 803 215.163 803 c 0
225.881 843 m 0
 274.881 843 304.163 803 291.033 754 c 0
 277.904 705 227.187 665 178.187 665 c 0
 129.187 665 99.9043 705 113.033 754 c 0
 126.163 803 176.881 843 225.881 843 c 0
EndSplineSet
EndChar
StartChar: afii57799
Encoding: 286 1456 125
Width: 0
Flags: W
Validated: 33
HStem: -235 75<-85.7914 -19.9602> -120 75<-55.0657 10.7659>
VStem: -91.0537 107.082<-198 -82 -102.72 -34.4543>
Fore
-42.8721 -160 m 0
 -21.8721 -160 -9.42676 -177 -15.0537 -198 c 0
 -20.4131 -218 -41.9678 -235 -62.9678 -235 c 0
 -83.9678 -235 -96.4131 -218 -91.0537 -198 c 0
 -85.4268 -177 -63.8721 -160 -42.8721 -160 c 0
-12.0576 -45 m 0
 8.94238 -45 21.3867 -62 16.0283 -82 c 0
 10.4014 -103 -11.1543 -120 -32.1543 -120 c 0
 -53.1543 -120 -65.5986 -103 -59.9717 -82 c 0
 -54.6133 -62 -33.0576 -45 -12.0576 -45 c 0
EndSplineSet
EndChar
StartChar: afii57801
Encoding: 287 1457 126
Width: 0
Flags: W
Validated: 33
HStem: -235 75<-149.898 -85.91 46.2086 112.04> -120 75<-187.066 -121.234 -53.0657 12.7659 76.9342 142.766>
VStem: -191.972 76<-106.813 -38.547> -155.054 74<-222.569 -153.278> -57.9717 76<-106.813 -38.547>
Fore
-144.058 -45 m 0xe8
 -123.058 -45 -110.613 -62 -115.972 -82 c 0
 -121.599 -103 -143.154 -120 -164.154 -120 c 0
 -185.154 -120 -197.599 -103 -191.972 -82 c 0
 -186.613 -62 -165.058 -45 -144.058 -45 c 0xe8
-107.872 -160 m 0
 -86.8721 -160 -75.4268 -177 -81.0537 -198 c 0
 -86.4131 -218 -106.968 -235 -127.968 -235 c 0
 -148.968 -235 -160.413 -218 -155.054 -198 c 0xd8
 -149.427 -177 -128.872 -160 -107.872 -160 c 0
-10.0576 -45 m 0
 10.9424 -45 23.3867 -62 18.0283 -82 c 0
 12.4014 -103 -9.1543 -120 -30.1543 -120 c 0
 -51.1543 -120 -63.5986 -103 -57.9717 -82 c 0
 -52.6133 -62 -31.0576 -45 -10.0576 -45 c 0
89.1279 -160 m 0
 110.128 -160 122.573 -177 116.946 -198 c 0
 111.587 -218 90.0322 -235 69.0322 -235 c 0
 48.0322 -235 35.5869 -218 40.9463 -198 c 0
 46.5732 -177 68.1279 -160 89.1279 -160 c 0
119.942 -45 m 0
 140.942 -45 153.387 -62 148.028 -82 c 0
 142.401 -103 120.846 -120 99.8457 -120 c 0
 78.8457 -120 66.4014 -103 72.0283 -82 c 0
 77.3867 -62 98.9424 -45 119.942 -45 c 0
EndSplineSet
EndChar
StartChar: afii57800
Encoding: 288 1458 127
Width: 0
Flags: HMW
Validated: 33
HStem: -235 75<120.5 141.5> -110 55<-159.5 23 -155 23>
VStem: 94 75
Fore
-188.757 -70 m 2
 -186.613 -62 -178.737 -55 -169.737 -55 c 2
 8.2627 -55 l 2
 17.2627 -55 21.3867 -62 19.2432 -70 c 2
 12.5449 -95 l 2
 10.4014 -103 2.52539 -110 -6.47461 -110 c 2
 -184.475 -110 l 2
 -193.475 -110 -197.599 -103 -195.455 -95 c 2
 -188.757 -70 l 2
88.1279 -160 m 0
 109.128 -160 120.573 -177 114.946 -198 c 0
 109.587 -218 89.0322 -235 68.0322 -235 c 0
 47.0322 -235 34.5869 -218 39.9463 -198 c 0
 45.5732 -177 67.1279 -160 88.1279 -160 c 0
118.942 -45 m 0
 139.942 -45 151.387 -62 146.028 -82 c 0
 140.401 -103 119.846 -120 98.8457 -120 c 0
 77.8457 -120 65.4014 -103 71.0283 -82 c 0
 76.3867 -62 97.9424 -45 118.942 -45 c 0
EndSplineSet
EndChar
StartChar: afii57802
Encoding: 289 1459 128
Width: 0
Flags: HMW
Validated: 33
HStem: -235 75<120.5 141.5> -110 55<-159.5 23 -155 -122 -24 -10 -10 23>
VStem: -84 37 94 75
Fore
-151.475 -110 m 2
 -184.475 -110 l 2
 -193.475 -110 -197.599 -103 -195.455 -95 c 2
 -188.757 -70 l 2
 -186.613 -62 -178.737 -55 -169.737 -55 c 2
 8.2627 -55 l 2
 17.2627 -55 21.3867 -62 19.2432 -70 c 2
 12.5449 -95 l 2
 10.4014 -103 2.52539 -110 -6.47461 -110 c 2
 -39.4746 -110 l 2
 -67.4746 -110 -79.3496 -117 -84.9766 -138 c 0
 -87.3887 -147 -91.8721 -160 -84.3555 -173 c 0
 -79.9629 -179 -79.374 -188 -82.0537 -198 c 0
 -87.4131 -218 -107.968 -235 -128.968 -235 c 0
 -149.968 -235 -162.413 -218 -157.054 -198 c 0
 -154.374 -188 -147.963 -179 -140.087 -172 c 0
 -125.872 -160 -124.389 -147 -121.977 -138 c 0
 -116.35 -117 -125.475 -110 -151.475 -110 c 2
88.1279 -160 m 0
 109.128 -160 120.573 -177 114.946 -198 c 0
 109.587 -218 89.0322 -235 68.0322 -235 c 0
 47.0322 -235 34.5869 -218 39.9463 -198 c 0
 45.5732 -177 67.1279 -160 88.1279 -160 c 0
118.942 -45 m 0
 139.942 -45 151.387 -62 146.028 -82 c 0
 140.401 -103 119.846 -120 98.8457 -120 c 0
 77.8457 -120 65.4014 -103 71.0283 -82 c 0
 76.3867 -62 97.9424 -45 118.942 -45 c 0
EndSplineSet
EndChar
StartChar: afii57793
Encoding: 290 1460 129
Width: 0
Flags: W
Validated: 33
HStem: -120 75<-55.0657 10.7659>
VStem: -59.9717 76<-106.813 -38.547>
Fore
-12.0576 -45 m 0
 8.94238 -45 21.3867 -62 16.0283 -82 c 0
 10.4014 -103 -11.1543 -120 -32.1543 -120 c 0
 -53.1543 -120 -65.5986 -103 -59.9717 -82 c 0
 -54.6133 -62 -33.0576 -45 -12.0576 -45 c 0
EndSplineSet
EndChar
StartChar: afii57794
Encoding: 291 1461 130
Width: 0
Flags: HMW
Validated: 33
VStem: -95 75<-92.5 -72> 20 75<-92.5 -72>
Fore
-1.97168 -82 m 0
 3.38672 -62 24.9424 -45 45.9424 -45 c 0
 65.9424 -45 78.3867 -62 73.0283 -82 c 0
 67.4014 -103 45.8457 -120 25.8457 -120 c 0
 4.8457 -120 -7.59863 -103 -1.97168 -82 c 0
-116.972 -82 m 0
 -111.613 -62 -90.0576 -45 -70.0576 -45 c 0
 -49.0576 -45 -36.6133 -62 -41.9717 -82 c 0
 -47.5986 -103 -69.1543 -120 -90.1543 -120 c 0
 -110.154 -120 -122.599 -103 -116.972 -82 c 0
EndSplineSet
EndChar
StartChar: afii57795
Encoding: 292 1462 131
Width: 0
Flags: W
Validated: 33
HStem: -235 75<-85.7914 -19.9602> -120 75<-121.116 -57.1271 12.884 76.8729>
VStem: -125.972 74<-107.57 -38.2787> -91.0537 76<-221.783 -153.518> 8.02832 74<-107.57 -38.2787>
Fore
-79.0576 -45 m 0xe8
 -58.0576 -45 -46.6133 -62 -51.9717 -82 c 0
 -57.5986 -103 -78.1543 -120 -99.1543 -120 c 0
 -120.154 -120 -131.599 -103 -125.972 -82 c 0
 -120.613 -62 -100.058 -45 -79.0576 -45 c 0xe8
-42.8721 -160 m 0
 -21.8721 -160 -9.42676 -177 -15.0537 -198 c 0
 -20.4131 -218 -41.9678 -235 -62.9678 -235 c 0
 -83.9678 -235 -96.4131 -218 -91.0537 -198 c 0xd8
 -85.4268 -177 -63.8721 -160 -42.8721 -160 c 0
54.9424 -45 m 0
 75.9424 -45 87.3867 -62 82.0283 -82 c 0
 76.4014 -103 55.8457 -120 34.8457 -120 c 0
 13.8457 -120 2.40137 -103 8.02832 -82 c 0
 13.3867 -62 33.9424 -45 54.9424 -45 c 0
EndSplineSet
EndChar
StartChar: afii57798
Encoding: 293 1463 132
Width: 0
Flags: W
Validated: 33
HStem: -110 55<-125.781 81.5692 -114.737 70.5254 -114.737 -114.737>
VStem: -140.455 236.698<-85.6758 -79.3242 -95 -70 -95 -95>
Fore
-133.757 -70 m 2
 -131.613 -62 -122.737 -55 -114.737 -55 c 2
 85.2627 -55 l 2
 93.2627 -55 98.3867 -62 96.2432 -70 c 2
 89.5449 -95 l 2
 87.4014 -103 78.5254 -110 70.5254 -110 c 2
 -129.475 -110 l 2
 -137.475 -110 -142.599 -103 -140.455 -95 c 2
 -133.757 -70 l 2
EndSplineSet
EndChar
StartChar: afii57797
Encoding: 294 1464 133
Width: 0
Flags: W
Validated: 33
HStem: -235.31 180<-84.1611 -23.2396 -114.93 -63.1611 -114.93 -114.93> -110.31 55<-125.973 -54.6895 -18.6248 81.3762>
VStem: -140.648 236.699<-85.983 -79.6361 -95.3096 -70.3096 -95.3096 -95.3096> -91.2471 76<-222.092 -179.277>
Fore
-18.3555 -173 m 1x60
 -18.5488 -173.31 l 1
 -14.1562 -179.31 -12.5684 -188.31 -15.2471 -198.31 c 0
 -20.6064 -218.31 -42.1611 -235.31 -63.1611 -235.31 c 0x90
 -84.1611 -235.31 -96.6064 -218.31 -91.2471 -198.31 c 0
 -88.5684 -188.31 -82.1562 -179.31 -74.2803 -172.31 c 0
 -60.0654 -160.31 -57.582 -147.31 -55.1709 -138.31 c 0
 -49.5439 -117.31 -59.668 -110.31 -85.668 -110.31 c 2
 -129.668 -110.31 l 2x50
 -137.668 -110.31 -142.792 -103.31 -140.648 -95.3096 c 2
 -133.949 -70.3096 l 2
 -131.806 -62.3096 -122.93 -55.3096 -114.93 -55.3096 c 2xa0
 85.0693 -55.3096 l 2
 93.0703 -55.3096 98.1943 -62.3096 96.0508 -70.3096 c 2
 89.3516 -95.3096 l 2
 87.208 -103.31 78.333 -110.31 70.332 -110.31 c 2
 26.332 -110.31 l 2
 -1.66797 -110.31 -13.5439 -117.31 -19.1709 -138.31 c 0
 -21.582 -147.31 -26.0654 -160.31 -18.3555 -173 c 1x60
EndSplineSet
EndChar
StartChar: afii57806
Encoding: 295 1465 134
Width: 0
Flags: W
Validated: 33
HStem: 645 75<150.004 215.835>
VStem: 144.741 76<658.217 726.482>
Fore
192.924 720 m 0
 213.924 720 226.368 703 220.741 682 c 0
 215.383 662 193.827 645 172.827 645 c 0
 151.827 645 139.383 662 144.741 682 c 0
 150.368 703 171.924 720 192.924 720 c 0
EndSplineSet
EndChar
StartChar: afii57796
Encoding: 296 1467 135
Width: 0
Flags: W
Validated: 33
HStem: -235 75<20.1016 84.09> -178 76<-70.0869 -4.93907> -120 75<-159.116 -95.1271>
VStem: -163.972 74<-107.57 -38.278> -75.5127 76<-164.812 -95.5179> 14.9463 74<-222.569 -153.278>
CounterMasks: 1 1c
Fore
62.1279 -160 m 0x9c
 83.1279 -160 94.5732 -177 88.9463 -198 c 0
 83.5869 -218 63.0322 -235 42.0322 -235 c 0
 21.0322 -235 9.58691 -218 14.9463 -198 c 0
 20.5732 -177 41.1279 -160 62.1279 -160 c 0x9c
-75.5127 -140 m 0
 -69.8857 -119 -48.3311 -102 -27.3311 -102 c 0
 -6.33105 -102 6.11426 -119 0.487305 -140 c 0
 -5.13965 -161 -26.6953 -178 -47.6953 -178 c 0x5c
 -68.6953 -178 -81.1396 -161 -75.5127 -140 c 0
-163.972 -82 m 0
 -158.613 -62 -138.058 -45 -117.058 -45 c 0
 -96.0576 -45 -84.6133 -62 -89.9717 -82 c 0
 -95.5986 -103 -116.154 -120 -137.154 -120 c 0x3c
 -158.154 -120 -169.599 -103 -163.972 -82 c 0
EndSplineSet
EndChar
StartChar: afii57807
Encoding: 297 1468 136
Width: 0
Flags: W
Validated: 33
HStem: 262.5 75.5<47.425 90.5664 90.7012 113.093>
VStem: 42.5186 76<275.688 344.604>
Fore
90.5664 338 m 1
 90.7012 338.5 l 1
 111.701 338.5 124.146 321.5 118.519 300.5 c 0
 112.892 279.5 91.3369 262.5 70.3369 262.5 c 0
 49.3369 262.5 36.8916 279.5 42.5186 300.5 c 0
 48.1455 321.5 69.7012 338.5 90.5664 338 c 1
EndSplineSet
EndChar
StartChar: afii57839
Encoding: 298 1469 137
Width: 0
Flags: HMW
Validated: 33
VStem: -28 55
Fore
-73.6279 -230 m 2
 -82.6279 -230 -87.7529 -223 -85.6094 -215 c 2
 -44.0771 -60 l 2
 -41.9336 -52 -33.0576 -45 -24.0576 -45 c 2
 -0.0576172 -45 l 2
 8.94238 -45 14.0664 -52 11.9229 -60 c 2
 -29.6094 -215 l 2
 -31.7529 -223 -40.6279 -230 -49.6279 -230 c 2
 -73.6279 -230 l 2
EndSplineSet
EndChar
StartChar: afii57645
Encoding: 299 1470 138
Width: 433
Flags: W
Validated: 33
HStem: 440 160<204.447 523.403 222.77 486.897 222.77 222.77>
VStem: 160.864 392.206<466 575 466 730.128>
Fore
189.803 574 m 2
 195.162 594 206.77 600 222.77 600 c 2
 529.77 600 l 2
 550.77 600 557.09 590 553.07 575 c 0
 511.539 420 565.129 620 523.597 465 c 0
 519.577 450 507.897 440 486.897 440 c 2
 179.897 440 l 2
 163.897 440 155.505 446 160.864 466 c 2
 189.803 574 l 2
EndSplineSet
EndChar
StartChar: afii57841
Encoding: 300 1471 139
Width: 0
Flags: W
Validated: 33
HStem: 654 55<93.9322 271.282 104.976 260.238 104.976 104.976>
VStem: 79.2578 206.699<678.327 684.673 669 694 669 669>
Fore
85.957 694 m 2
 88.1006 702 96.9756 709 104.976 709 c 2
 274.976 709 l 2
 282.976 709 288.101 702 285.957 694 c 2
 279.258 669 l 2
 277.114 661 268.238 654 260.238 654 c 2
 90.2383 654 l 2
 82.2383 654 77.1143 661 79.2578 669 c 2
 85.957 694 l 2
EndSplineSet
EndChar
StartChar: afii57842
Encoding: 301 1472 140
Width: 155
Flags: W
Validated: 33
HStem: -15 21G<56.9805 89.9805>
VStem: 50 227.827<0 645 1.53064e-18 1.53064e-18>
Fore
60.9805 -15 m 2
 52.9805 -15 47.8564 -8 50 0 c 2
 222.827 645 l 2
 224.971 653 233.847 660 241.847 660 c 2
 266.847 660 l 2
 274.847 660 279.971 653 277.827 645 c 2
 105 0 l 2
 102.856 -8 93.9805 -15 85.9805 -15 c 2
 60.9805 -15 l 2
EndSplineSet
EndChar
StartChar: afii57804
Encoding: 302 1473 141
Width: 0
Flags: W
Validated: 33
HStem: 630 75<789.896 855.728>
VStem: 784.99 76<643.187 711.453>
Fore
832.904 705 m 0
 853.904 705 866.349 688 860.99 668 c 0
 855.363 647 833.808 630 812.808 630 c 0
 791.808 630 779.363 647 784.99 668 c 0
 790.349 688 811.904 705 832.904 705 c 0
EndSplineSet
EndChar
StartChar: afii57803
Encoding: 303 1474 142
Width: 0
Flags: W
Validated: 37
HStem: 630 75<318.246 360.404>
VStem: 313.49 75<643.024 711.448>
Fore
360.904 705 m 1
 360.404 705 l 1
 381.404 705 393.849 688 388.49 668 c 0
 382.863 647 361.308 630 340.308 630 c 0
 320.308 630 307.863 647 313.49 668 c 0
 318.849 688 340.404 705 360.904 705 c 1
EndSplineSet
EndChar
StartChar: afii57658
Encoding: 304 1475 143
Width: 400
Flags: W
Validated: 33
HStem: 63 544<234.881 343.646 343.646 343.646>
VStem: 148.102 283.055<131 538 131 131>
Fore
148.102 131 m 0
 132.977 138 139.676 163 158.016 168 c 0
 192.499 181 224.197 206 244.504 237 c 0
 256.059 254 280.059 254 281.504 237 c 0
 286.197 206 304.23 180 332.016 168 c 0
 347.408 162 340.977 138 322.102 131 c 0
 287.886 119 255.188 94 234.881 63 c 0
 224.325 46 200.325 46 198.881 63 c 0
 195.188 94 175.886 119 148.102 131 c 0
247.242 501 m 0
 232.118 508 238.817 533 257.156 538 c 0
 291.64 551 323.339 576 343.646 607 c 0
 355.2 624 379.2 624 380.646 607 c 0
 385.339 576 403.372 550 431.156 538 c 0
 446.549 532 440.118 508 421.242 501 c 0
 387.027 489 354.328 464 334.022 433 c 0
 323.467 416 299.467 416 298.022 433 c 0
 294.328 464 275.027 489 247.242 501 c 0
EndSplineSet
EndChar
StartChar: uni05C4
Encoding: 305 1476 144
Width: 0
Flags: W
Validated: 33
HStem: 645 75<150.004 215.835>
VStem: 144.741 76<658.217 726.482>
Fore
192.924 720 m 0
 213.924 720 226.368 703 220.741 682 c 0
 215.383 662 193.827 645 172.827 645 c 0
 151.827 645 139.383 662 144.741 682 c 0
 150.368 703 171.924 720 192.924 720 c 0
EndSplineSet
EndChar
StartChar: afii57664
Encoding: 306 1488 145
Width: 593
Flags: W
Validated: 33
HStem: 0 21G<61 165.5>
Fore
313.272 628 m 0
 308.789 615 304.502 599 305.482 584 c 0
 310.334 520 332.688 484 374.897 440 c 2
 452.122 355 l 1
 452.122 355 461.246 348 470.193 359 c 2
 470.193 359 506.252 404 515.467 416 c 0
 523.146 426 523.094 437 516.701 443 c 0
 494.4 468 484.42 483 487.602 521 c 0
 490.032 545 507.41 580 516.626 592 c 0
 533.789 615 550.004 627 566.416 636 c 0
 603.507 655 597.487 640 604.181 609 c 0
 606.233 598 614.09 590 623.215 583 c 0
 643.195 568 682.032 545 682.511 502 c 0
 683.31 449 657.467 416 630.82 380 c 0
 619.533 364 600.05 351 595.998 362 c 0
 590.285 378 579.769 391 565.447 401 c 0
 557.787 406 545.252 404 537.572 394 c 2
 492.566 338 l 1
 492.566 338 484.352 326 491.476 319 c 0
 555.523 252 593.466 207 577.226 124 c 0
 568.972 82 539.378 35 501.68 10 c 0
 457.909 -19 467.627 21 472.397 50 c 0
 481.331 102 394.57 185 327.863 257 c 0
 301.634 286 269.815 324 254.103 340 c 1
 254.103 340 245.71 346 236.566 338 c 0
 224.888 328 200.261 307 195.562 282 c 0
 188.164 232 244.394 203 268.656 148 c 0
 279.226 124 272.809 59 224.431 24 c 0
 199.607 6 179 0 152 0 c 2
 63 0 l 2
 59 0 41.7324 -1 60.0195 15 c 0
 65.3594 20 71.5029 28 77.1104 34 c 0
 85.79 44 89.2734 57 84.4883 69 c 0
 76.8477 89 68.6182 118 89.1592 176 c 0
 117.863 257 140.169 288 219.926 358 c 1
 219.926 358 227.605 368 223.017 377 c 0
 200.199 415 179.897 440 183.008 474 c 0
 186.798 518 198.64 551 227.822 589 c 0
 238.842 604 265.004 627 283.684 637 c 0
 305.631 648 319.095 646 313.272 628 c 0
EndSplineSet
EndChar
StartChar: afii57665
Encoding: 307 1489 146
Width: 498
Flags: W
Validated: 33
HStem: 0 160<126.479 432.716>
VStem: 28.8945 503.262<22 538 22 22>
Fore
519.872 160 m 2
 535.872 160 539.46 151 529.977 138 c 2
 450.627 21 l 2
 441.876 7 430 0 414 0 c 2
 40 0 l 2
 24 0 20.4111 9 28.8945 22 c 2
 108.245 139 l 2
 117.996 153 128.872 160 144.872 160 c 2
 445.872 160 l 2
 454.872 160 462.14 161 466.159 176 c 0
 485.576 241 506.998 362 475.107 396 c 0
 413.793 462 298.95 429 241.505 446 c 0
 188.793 462 190.902 496 191.798 518 c 0
 193.783 559 211.966 597 235.272 628 c 0
 252.167 650 262.899 649 267.076 631 c 0
 274.697 596 311.306 602 348.77 600 c 0
 398.966 597 497.037 601 532.156 538 c 0
 572.132 467 537.548 323 492.623 174 c 1
 492.623 174 489.872 160 503.872 160 c 2
 519.872 160 l 2
EndSplineSet
EndChar
StartChar: afii57666
Encoding: 308 1490 147
Width: 339
Flags: W
Validated: 33
HStem: 0 21G<20 164>
VStem: 16.8945 398.047<22 526 22 22>
Fore
192.627 21 m 2
 182.876 7 172 0 156 0 c 2
 28 0 l 2
 12 0 8.41113 9 16.8945 22 c 2
 96.2451 139 l 2
 105.996 153 116.872 160 132.872 160 c 2
 238.872 160 l 2
 259.872 160 274.087 172 279.982 194 c 0
 303.025 280 315.279 322 343.18 400 c 1
 343.18 400 351.074 422 328.879 425 c 0
 291.486 431 256.826 436 236.524 461 c 0
 228.472 472 221.759 488 221.314 505 c 0
 220.138 523 225.496 543 229.516 558 c 0
 237.679 581 252.646 607 262.593 618 c 0
 292.167 650 303.971 653 315.2 624 c 0
 321.842 604 348.233 598 360.162 594 c 0
 398.482 584 417.516 558 414.941 526 c 0
 412.099 493 381.648 454 371.323 408 c 0
 352.012 321 364.733 208 357.676 163 c 0
 349.475 110 339.436 80 303.967 26 c 0
 271.837 -23 263.876 7 265.503 28 c 0
 268.541 58 272.795 100 272.154 120 c 0
 271.905 134 263.298 128 255.082 116 c 2
 192.627 21 l 2
EndSplineSet
EndChar
StartChar: afii57667
Encoding: 309 1491 148
Width: 523
Flags: W
Validated: 33
HStem: 440 160<276.017 505.882 554.166 599.506>
VStem: 171.726 453.412<491.655 514 514 592.836 514 523 514 514>
Fore
333.77 600 m 2
 577.77 600 l 2
 637.77 600 634.855 563 625.138 523 c 0
 617.224 486 601.041 448 554.166 441 c 0
 539.63 439 537.146 426 537.146 426 c 1
 531.017 377 511.27 210 502.532 155 c 0
 499.638 133 485.632 77 442.359 20 c 0
 415.445 -17 381.32 -10 391.699 25 c 2
 506.146 426 l 2
 508.897 440 501.897 440 493.897 440 c 2
 225.897 440 l 2
 180.897 440 169.831 492 171.726 514 c 0
 173.836 548 195.966 597 220.272 628 c 0
 236.167 650 247.899 649 251.076 631 c 0
 259.697 596 295.77 600 333.77 600 c 2
EndSplineSet
EndChar
StartChar: afii57668
Encoding: 310 1492 149
Width: 561
Flags: W
Validated: 33
HStem: 440 160<284.737 541.1 588.666 634.527>
Fore
342.77 600 m 2
 613.27 600 l 2
 673.27 600 670.355 563 660.638 523 c 0
 651.724 486 635.541 448 588.666 441 c 0
 575.13 439 572.646 426 572.646 426 c 1
 566.517 377 558.77 210 550.032 155 c 0
 547.138 133 533.132 77 489.859 20 c 0
 462.945 -17 428.82 -10 439.199 25 c 2
 540.646 426 l 2
 544.397 440 537.397 440 529.397 440 c 2
 235.397 440 l 2
 189.397 440 178.331 492 180.226 514 c 0
 182.336 548 205.466 597 228.772 628 c 0
 245.667 650 256.399 649 260.576 631 c 0
 268.197 596 304.27 600 342.77 600 c 2
54.7344 27 m 0
 85.7783 113 96.123 174 122.54 239 c 0
 136.918 274 160.957 304 185.583 325 c 0
 220.622 355 227.655 329 217.296 309 c 0
 204.865 285 200.898 259 194.86 229 c 0
 178.908 162 160.831 102 102.467 26 c 0
 68.6768 -18 40.749 -14 54.7344 27 c 0
EndSplineSet
EndChar
StartChar: afii57669
Encoding: 311 1493 150
Width: 266
Flags: W
Validated: 33
VStem: 150.699 210.438<25 523 25 25>
Fore
361.138 523 m 0
 357.955 485 340.041 448 308.003 418 c 0
 302.396 412 292.447 401 291.5 390 c 0
 284.279 322 270.27 210 261.532 155 c 0
 258.638 133 244.632 77 201.359 20 c 0
 174.445 -17 140.32 -10 150.699 25 c 2
 150.699 25 224.811 268 260.036 392 c 0
 264.787 406 259.271 419 247.343 423 c 0
 232.414 427 207.558 435 194.505 446 c 0
 180.721 458 171.544 476 170.902 496 c 0
 169.994 515 176.496 543 181.516 558 c 0
 188.679 581 203.646 607 213.593 618 c 0
 242.167 650 254.971 653 265.2 624 c 0
 272.842 604 298.233 598 311.162 594 c 0
 349.482 584 363.443 554 361.138 523 c 0
EndSplineSet
EndChar
StartChar: afii57670
Encoding: 312 1494 151
Width: 291
Flags: W
Validated: 33
HStem: 26 597<169.967 270.933 270.933 270.933>
VStem: 133.11 259.602<34 555 34 34>
Fore
177.241 292 m 0
 197.906 343 213.802 365 234.787 406 c 0
 244.61 424 241.826 436 230.63 439 c 0
 212.97 444 198.113 452 188.061 463 c 0
 177.74 473 172.759 488 171.314 505 c 0
 171.138 523 175.496 543 180.516 558 c 0
 187.679 581 203.646 607 213.593 618 c 0
 242.167 650 252.238 654 270.933 623 c 0
 277.449 610 306.306 602 322.77 600 c 0
 362.43 595 382.875 578 392.712 555 c 0
 400.621 536 394.438 498 380.597 465 c 0
 363.61 424 351.003 418 341.343 423 c 0
 330.683 428 317.754 432 299.218 430 c 0
 284.218 430 273.003 418 265.18 400 c 0
 241.371 341 251.744 320 250.347 270 c 0
 249.484 222 246.179 191 216.618 118 c 0
 201.972 82 189.809 59 169.967 26 c 0
 146.784 -12 116.766 -27 133.11 34 c 0
 143.292 72 148.402 106 151.441 136 c 0
 156.518 196 152.896 231 177.241 292 c 0
EndSplineSet
EndChar
StartChar: afii57671
Encoding: 313 1495 152
Width: 559
Flags: W
Validated: 33
HStem: 440 160<283.195 539.6 587.166 633.027>
VStem: 62.2344 596.903<27 523 48.4266 153.663>
Fore
275.897 440 m 1
 257.414 427 239.716 402 231.625 383 c 0
 208.423 330 197.111 243 191.949 220 c 0
 176.996 153 168.331 102 109.967 26 c 0
 76.1768 -18 48.249 -14 62.2344 27 c 0
 93.2783 113 105.714 193 127.398 259 c 0
 142.992 306 164.409 371 230.897 440 c 1
 167.845 451 176.831 492 178.726 514 c 0
 180.836 548 203.966 597 227.272 628 c 0
 244.167 650 254.899 649 259.076 631 c 0
 266.697 596 302.77 600 340.77 600 c 2
 611.77 600 l 2
 671.77 600 668.855 563 659.138 523 c 0
 650.224 486 634.041 448 587.166 441 c 0
 573.63 439 571.146 426 571.146 426 c 1
 565.017 377 557.27 210 548.532 155 c 0
 545.638 133 531.632 77 488.359 20 c 0
 461.445 -17 427.32 -10 437.699 25 c 2
 539.146 426 l 2
 542.897 440 535.897 440 527.897 440 c 2
 275.897 440 l 1
EndSplineSet
EndChar
StartChar: afii57672
Encoding: 314 1496 153
Width: 576
Flags: W
Validated: 33
HStem: 0 160<183.23 532.423>
VStem: 88.3594 558.266<20 24 382 383 20 383 20 20>
Fore
219.897 440 m 0
 204.237 445 199.041 448 189.524 461 c 0
 180.472 472 174.759 488 173.314 505 c 0
 173.138 523 177.496 543 182.516 558 c 0
 189.679 581 205.646 607 215.593 618 c 0
 244.167 650 255.971 653 267.2 624 c 0
 273.842 604 300.233 598 313.162 594 c 0
 338.286 587 356.535 573 363.443 554 c 0
 372.353 535 366.438 498 352.597 465 c 0
 335.61 424 315.056 407 305.396 412 c 0
 294.467 416 292.539 420 276.807 421 c 0
 267.074 422 258.199 415 253.323 408 c 0
 228.213 374 214.71 346 205.064 310 c 0
 193.203 262 188.433 233 183.23 180 c 1
 183.23 180 181.872 160 202.872 160 c 2
 540.872 160 l 1
 540.872 160 561.14 161 569.499 181 c 0
 600.471 263 608.888 328 578.356 382 c 0
 556.539 420 509.113 452 464.218 430 c 0
 429.663 413 392.854 354 362.098 284 c 0
 356.347 270 348.471 263 339.007 265 c 0
 331.274 266 327.418 274 332.901 287 c 0
 373.912 399 426.582 506 482.697 596 c 1
 482.697 596 494.057 616 515.521 614 c 0
 608.109 605 651.745 529 646.625 383 c 0
 642.471 263 584.226 124 532.431 24 c 1
 532.431 24 522 0 496 0 c 2
 106 0 l 1
 106 0 84.2676 1 88.3594 20 c 0
 108.35 117 119.068 157 139.987 250 c 0
 151.117 299 191.873 369 223.396 412 c 0
 230.807 421 235.558 435 219.897 440 c 0
EndSplineSet
EndChar
StartChar: afii57673
Encoding: 315 1497 154
Width: 266
Flags: W
Validated: 33
HStem: 304 327<218.076 231.457 218.076 218.076>
VStem: 174.118 186.843<479.25 508 508 556.02 508 541 508 508>
Fore
341.271 419 m 0
 327.5 390 301.658 357 268.815 324 c 0
 256.601 312 240.045 295 231.457 304 c 0
 221.136 314 235.763 335 243.175 344 c 0
 265.409 371 282.5 390 273.199 415 c 0
 264.826 436 243.022 433 219.237 445 c 0
 198.185 456 179.74 473 174.118 508 c 0
 171.013 530 178.588 562 185.143 579 c 0
 194.842 604 204.86 619 218.076 631 c 0
 244.238 654 252.095 646 258.736 626 c 0
 266.377 606 278.233 598 303.626 592 c 0
 327.286 587 352.999 571 360.961 541 c 0
 372.975 500 359.721 458 341.271 419 c 0
EndSplineSet
EndChar
StartChar: afii57674
Encoding: 316 1498 155
Width: 496
Flags: W
Validated: 33
HStem: 440 160<276.017 478.6 526.166 572.027>
VStem: 171.726 426.412<465.832 514 514 592.836 514 523 514 514>
Fore
333.77 600 m 2
 550.77 600 l 2
 610.77 600 607.855 563 598.138 523 c 0
 589.224 486 573.041 448 526.166 441 c 0
 512.63 439 510.146 426 510.146 426 c 1
 504.017 377 406.243 -70 398.506 -125 c 0
 394.611 -147 381.606 -203 338.333 -260 c 0
 310.419 -297 277.295 -290 287.673 -255 c 2
 478.146 426 l 2
 481.897 440 474.897 440 466.897 440 c 2
 225.897 440 l 2
 180.897 440 169.831 492 171.726 514 c 0
 173.836 548 195.966 597 220.272 628 c 0
 236.167 650 247.899 649 251.076 631 c 0
 259.697 596 295.77 600 333.77 600 c 2
EndSplineSet
EndChar
StartChar: afii57675
Encoding: 317 1499 156
Width: 501
Flags: W
Validated: 33
HStem: 0 160<122.794 398.819>
VStem: 26.125 537.654<22 532 22 22>
Fore
528.57 185 m 1
 528.801 185 l 1
 521.638 162 508.814 144 508.814 144 c 1
 417.857 21 l 2
 407.374 8 397.23 0 381.23 0 c 2
 36.2305 0 l 2
 20.2305 0 16.6416 9 26.125 22 c 2
 105.476 139 l 2
 114.227 153 125.103 160 141.103 160 c 2
 478.102 160 l 2
 487.102 160 494.37 161 498.389 176 c 0
 518.074 242 522.471 292 516.457 333 c 0
 510.907 372 488.481 404 459.037 421 c 0
 400.879 454 293.984 432 248.735 446 c 0
 196.023 462 198.133 496 199.028 518 c 0
 201.014 559 219.196 597 242.503 628 c 0
 259.397 650 270.13 649 274.306 631 c 0
 281.928 596 318.535 602 357 600 c 0
 404.928 596 527.071 604 563.779 532 c 0
 600.486 460 571.117 328 528.57 185 c 1
EndSplineSet
EndChar
StartChar: afii57676
Encoding: 318 1500 157
Width: 510
Flags: W
Validated: 33
HStem: -5 21G<236.66 265.66> 440 160<244.855 529.257>
VStem: 275.188 84.3877<824.871 889.442>
Fore
275.188 874 m 0
 281.475 890 287.69 902 306.887 899 c 0
 355.743 891 365.202 833 359.575 812 c 0
 352.876 787 301.569 756 284.479 737 c 0
 267.388 718 264.028 698 251.703 652 c 0
 243.129 620 232.77 600 276.77 600 c 2
 546.77 600 l 2
 590.77 600 620.019 586 615.765 544 c 0
 609.615 480 593.701 443 578.429 386 c 0
 560.476 319 480.811 268 401.001 209 c 0
 378.714 193 335.532 155 311.062 101 c 0
 301.972 82 314.024 71 307.861 48 c 0
 300.359 20 280.66 -5 250.66 -5 c 0
 222.66 -5 208.555 17 213.058 45 c 0
 220.115 90 282.8 156 308.891 175 c 0
 478.581 297 512.744 320 525.213 374 c 0
 535.003 418 533.897 440 476.897 440 c 2
 233.897 440 l 2
 175.897 440 159.472 472 171.262 516 c 0
 199.664 622 214.081 687 233.655 719 c 0
 258.642 760 284.785 768 288.072 784 c 0
 291.359 800 266.11 814 263.326 826 c 0
 261.202 833 268.9 858 275.188 874 c 0
EndSplineSet
EndChar
StartChar: afii57677
Encoding: 319 1501 158
Width: 542
Flags: W
Validated: 33
HStem: 0 160<165.877 505.005> 440 160<286.737 543.338>
VStem: 59.4668 556.931<26 440 101.316 130.563>
Fore
344.77 600 m 2
 539.27 600 l 2
 627.27 600 638.369 522 616.397 440 c 2
 505.199 25 l 2
 501.18 10 489.5 0 468.5 0 c 2
 78.5 0 l 2
 62.5 0 54.1074 6 59.4668 26 c 2
 117.808 240 l 2
 144.871 341 201.02 405 236.397 440 c 1
 183.397 440 180.331 492 182.226 514 c 0
 185.336 548 207.466 597 230.772 628 c 0
 247.667 650 258.399 649 262.576 631 c 0
 270.197 596 306.27 600 344.77 600 c 2
271.397 440 m 1
 248.627 411 214.569 366 196.081 297 c 2
 166.07 185 l 2
 161.783 169 167.372 160 185.372 160 c 2
 481.372 160 l 2
 496.372 160 510.247 167 516.143 189 c 2
 557.675 344 l 2
 571.072 394 545.397 440 487.397 440 c 2
 271.397 440 l 1
EndSplineSet
EndChar
StartChar: afii57678
Encoding: 320 1502 159
Width: 581
Flags: W
Validated: 33
HStem: 0.5 160<248.08 494.512>
VStem: 71.4453 556.367<43.5 537.5 43.5 43.5>
Fore
202.285 378 m 1
 202.209 378.5 l 1
 180.711 406.5 164.965 448.5 170.004 478.5 c 0
 175.649 514.5 181.885 541.5 211.87 582.5 c 0
 229.033 605.5 246.784 619.5 262.732 630.5 c 0
 283.215 643.5 296.607 637.5 296.98 616.5 c 0
 297.426 599.5 315.479 588.5 326.139 583.5 c 0
 347.459 573.5 360.885 541.5 358.808 481.5 c 0
 358.932 474.5 363.788 466.5 374.396 472.5 c 0
 414.827 496.5 439.976 560.5 454.962 601.5 c 0
 461.249 617.5 472.393 625.5 485.124 624.5 c 0
 569.517 618.5 606.066 579.5 627.812 537.5 c 0
 671.108 456.5 653.275 326.5 617.494 185.5 c 0
 613.207 169.5 597.509 144.5 597.509 144.5 c 1
 513.551 21.5 l 2
 503.067 8.5 492.924 0.5 476.924 0.5 c 2
 160.924 0.5 l 2
 144.924 0.5 141.336 9.5 150.818 22.5 c 2
 230.169 139.5 l 2
 238.92 153.5 250.796 160.5 266.796 160.5 c 2
 562.796 160.5 l 2
 571.796 160.5 580.672 167.5 583.083 176.5 c 0
 595.48 226.5 611.472 323.5 562.889 388.5 c 0
 519.43 446.5 463.233 449.5 422.233 449.5 c 0
 363.233 449.5 275.979 407.5 238.778 354.5 c 0
 176.931 265.5 183.566 189.5 154.595 107.5 c 0
 144.824 78.5 132.661 55.5 117.767 33.5 c 0
 93.1201 -2.5 63.0293 -21.5 71.4453 43.5 c 0
 77.7715 89.5 85.2217 128.5 109.299 188.5 c 0
 132.84 246.5 169.381 304.5 200.099 344.5 c 0
 209.313 356.5 209.529 368.5 202.285 378 c 1
EndSplineSet
EndChar
StartChar: afii57679
Encoding: 321 1503 160
Width: 273
Flags: W
Validated: 33
VStem: 30.3867 338.058<-256.07 568.93 -178.443 -172.722>
Fore
201.773 447 m 1
 201.755 446.93 l 1
 185.166 455.93 173.793 476.93 171.884 495.93 c 0
 170.511 516.93 174.602 535.93 179.89 551.93 c 0
 186.784 573.93 205.626 606.93 215.574 617.93 c 0
 244.148 649.93 255.952 652.93 267.182 623.93 c 0
 273.822 603.93 300.751 599.93 313.679 595.93 c 0
 340.071 589.93 356.731 584.93 368.444 568.93 c 0
 394.87 536.93 363.649 468.93 324.343 437.93 c 0
 307.859 424.93 297.376 411.93 297.376 411.93 c 1
 271.998 376.93 253.835 353.93 241.261 321.93 c 0
 223.936 275.93 216.055 212.93 210.854 159.93 c 0
 203.221 82.9297 174.938 -86.0703 157.612 -132.07 c 0
 141.626 -173.07 114.908 -213.07 67.2422 -264.07 c 0
 42.2764 -290.07 21.4199 -282.07 30.3867 -256.07 c 0
 53.8027 -191.07 79.7031 -113.07 104.551 -24.0703 c 0
 133.346 75.9297 137.351 131.93 167.146 231.93 c 0
 187.098 298.93 210.691 345.93 261.912 413.93 c 0
 266.52 419.93 269.663 427.93 259.199 429.93 c 0
 239.003 432.93 221.807 435.93 201.773 447 c 1
EndSplineSet
EndChar
StartChar: afii57680
Encoding: 322 1504 161
Width: 347
Flags: W
Validated: 33
HStem: 0 160<111.479 252.276>
VStem: 13.8945 419.047<22 526 22 22>
Fore
217 0 m 2
 24 0 l 2
 8 0 5.41113 9 13.8945 22 c 2
 93.2451 139 l 2
 102.996 153 113.872 160 129.872 160 c 2
 254.872 160 l 2
 272.872 160 280.552 170 283.303 184 c 0
 305.849 298 317.279 322 345.18 400 c 1
 345.18 400 352.074 422 330.879 425 c 0
 292.486 431 262.826 436 243.524 461 c 0
 234.472 472 228.759 488 227.314 505 c 0
 227.138 523 231.496 543 236.516 558 c 0
 243.679 581 259.646 607 269.593 618 c 0
 298.167 650 313.971 653 325.2 624 c 0
 331.842 604 364.233 598 376.162 594 c 0
 414.482 584 434.516 558 432.941 526 c 0
 429.793 462 386.826 436 379.323 408 c 0
 358.763 335 380.882 272 360.159 176 c 0
 348.958 123 340.775 85 308.254 42 c 0
 276 0 234 0 217 0 c 2
EndSplineSet
EndChar
StartChar: afii57681
Encoding: 323 1505 162
Width: 512
Flags: W
Validated: 33
HStem: 0 160<159.919 413.451> 440 160<288.221 400.432 400.432 460.992>
VStem: 70.1992 506.993<25 540 80.662 141.222>
Fore
344.77 600 m 2
 345.27 600 l 2
 393.197 596 540.485 612 577.192 540 c 0
 614.632 467 578.923 330 537.339 186 c 0
 531.783 169 522.692 150 511.405 134 c 2
 435.395 22 l 2
 427.18 10 411.5 0 394.5 0 c 2
 88.5 0 l 2
 72.5 0 65.6436 8 70.1992 25 c 0
 75.3613 48 83.4717 82 88.4385 108 c 0
 106.233 208 93.3193 171 111.611 243 c 0
 126.688 303 213.967 416 244.397 440 c 1
 195.077 450 186.402 496 187.298 518 c 0
 189.283 559 207.466 597 230.772 628 c 0
 247.667 650 258.399 649 262.576 631 c 0
 270.197 596 306.806 602 344.77 600 c 2
281.397 440 m 1
 228.929 386 187.603 340 170.578 269 c 0
 163.468 235 161.253 223 156.07 185 c 0
 152.908 162 163.372 160 177.372 160 c 2
 473.372 160 l 2
 491.372 160 501.052 170 505.07 185 c 0
 522.487 250 550.942 345 534.196 387 c 0
 525.359 410 492.522 433 455.326 436 c 0
 408.397 440 328.666 441 281.397 440 c 1
EndSplineSet
EndChar
StartChar: afii57682
Encoding: 324 1506 163
Width: 552
Flags: W
Validated: 33
Fore
246.252 404 m 0
 255.61 424 250.558 435 240.094 437 c 0
 219.63 439 204.505 446 193.185 456 c 0
 182.597 465 175.348 479 172.902 496 c 0
 170.726 514 173.817 533 176.836 548 c 0
 181.999 571 194.966 597 205.181 609 c 0
 231.291 643 244.043 657 266.86 619 c 0
 274.377 606 301.306 602 318.037 601 c 0
 358.77 600 380.75 585 393.123 564 c 0
 403.032 545 401.118 508 390.275 475 c 0
 376.29 434 363.414 427 353.486 431 c 0
 342.558 435 328.094 437 310.29 434 c 0
 294.754 432 284.271 419 278.716 402 c 0
 260.175 344 279.528 308 285.222 277 c 0
 294.824 227 290.016 168 267.795 100 c 1
 375.479 166 l 1
 390.963 179 397.963 179 410.93 205 c 0
 430.308 240 454.294 281 474.796 309 c 0
 517.142 370 513.998 362 537.716 402 c 0
 545.734 417 544.61 424 529.414 427 c 0
 511.754 432 492.361 438 474.524 461 c 0
 465.472 472 459.759 488 458.314 505 c 0
 457.138 523 462.496 543 466.516 558 c 0
 474.679 581 489.646 607 500.593 618 c 0
 529.167 650 541.971 653 553.2 624 c 0
 560.842 604 588.233 598 600.162 594 c 0
 639.482 584 659.319 561 657.941 526 c 0
 656.242 501 648.721 458 601.486 431 c 0
 589.879 425 575.396 412 569.716 402 c 0
 522.548 323 509.117 299 478.164 232 c 0
 446.408 162 428.742 111 404.182 38 c 0
 397.627 21 391.947 11 371.464 -2 c 2
 22.3193 -219 l 2
 13.9795 -224 1.97949 -224 5.99902 -209 c 2
 58.335 -51 l 2
 64.1572 -33 69.8369 -23 90.0527 -11 c 2
 208.345 61 l 2
 224.024 71 233.972 82 236.795 100 c 0
 247.479 166 224.25 195 218.236 236 c 0
 208.921 302 223.854 354 246.252 404 c 0
EndSplineSet
EndChar
StartChar: afii57683
Encoding: 325 1507 164
Width: 493
Flags: W
Validated: 33
HStem: 440 160<300.017 501.933>
VStem: 66.8477 501.199<89 504 89 89>
Fore
221.897 440 m 1
 196.061 463 193.831 492 195.726 514 c 0
 197.836 548 219.966 597 244.272 628 c 0
 260.167 650 271.899 649 275.076 631 c 0
 283.697 596 319.77 600 357.77 600 c 2
 496.77 600 l 2
 552.77 600 579.248 557 568.047 504 c 2
 425.128 -160 l 2
 414.999 -209 386.353 -245 350.653 -270 c 0
 328.902 -284 312.099 -287 320.602 -259 c 2
 501.71 346 l 2
 518.376 397 505.897 440 455.897 440 c 2
 261.897 440 l 1
 232.074 422 192.069 366 187.672 316 c 0
 183.811 268 234.811 268 283.078 269 c 0
 314.347 270 334.72 249 332.609 215 c 0
 331.035 183 318.925 149 279.298 128 c 0
 239.671 107 171.082 116 140.689 122 c 1
 128.814 115 115.599 103 96.3838 91 c 0
 85.5078 84 72.7041 81 66.8477 89 c 0
 60.9912 97 68.4746 110 78.3496 117 c 0
 96.833 130 95.2979 128 111.781 141 c 1
 88.3223 199 103.791 253 118.777 294 c 0
 141.39 356 184.199 415 221.897 440 c 1
EndSplineSet
EndChar
StartChar: afii57684
Encoding: 326 1508 165
Width: 491
Flags: W
Validated: 33
HStem: -0.30957 160<121.396 395.814>
VStem: 23.8115 536.851<21.6904 528.69 21.6904 21.6904>
Fore
272.701 443 m 1
 272.618 442.69 l 1
 246.671 431.69 236.92 417.69 233.097 399.69 c 0
 226.522 367.69 279.059 369.69 327.326 370.69 c 0
 358.594 371.69 378.967 350.69 376.856 316.69 c 0
 375.282 284.69 363.172 250.69 323.545 229.69 c 0
 283.918 208.69 215.33 217.69 184.938 223.69 c 1
 173.062 216.69 159.847 204.69 140.631 192.69 c 0
 129.756 185.69 116.951 182.69 111.096 190.69 c 0
 105.239 198.69 112.723 211.69 122.598 218.69 c 0
 141.081 231.69 139.545 229.69 156.028 242.69 c 1
 131.067 272.69 130.569 300.69 145.556 341.69 c 0
 164.221 392.69 208.331 426.69 246.03 451.69 c 1
 208.585 468.69 210.355 497.69 211.715 517.69 c 0
 213.7 558.69 231.883 596.69 255.189 627.69 c 0
 272.084 649.69 282.816 648.69 286.993 630.69 c 0
 294.614 595.69 331.223 601.69 368.687 599.69 c 0
 418.883 596.69 529.687 599.69 560.662 528.69 c 0
 589.978 462.69 558.805 327.69 516.487 184.69 c 0
 509.324 161.69 505.449 154.69 498.502 143.69 c 2
 414.544 20.6904 l 2
 405.061 7.69043 393.917 -0.30957 377.917 -0.30957 c 2
 33.917 -0.30957 l 2
 17.917 -0.30957 15.3281 8.69043 23.8115 21.6904 c 2
 103.162 138.69 l 2
 112.913 152.69 123.789 159.69 139.789 159.69 c 2
 462.789 159.69 l 2
 471.789 159.69 480.396 165.69 484.076 175.69 c 0
 503.028 242.69 523.752 338.69 504.273 381.69 c 0
 467.709 461.69 332.671 431.69 272.701 443 c 1
EndSplineSet
EndChar
StartChar: afii57685
Encoding: 327 1509 166
Width: 537
Flags: W
Validated: 33
VStem: 65.1611 573.642<-256.5 503.5 -256.5 -256.5>
Fore
225.905 134 m 1
 225.929 134.5 l 1
 219.422 50.5 200.712 -86.5 187.727 -127.5 c 0
 173.473 -169.5 147.486 -210.5 102.554 -262.5 c 0
 78.3184 -289.5 56.1943 -282.5 65.1611 -256.5 c 0
 85.5781 -191.5 107.746 -112.5 129.593 -23.5 c 0
 153.12 75.5 155.125 131.5 179.92 231.5 c 0
 196.873 298.5 215.734 346.5 263.955 414.5 c 0
 268.831 421.5 270.975 429.5 260.242 430.5 c 0
 240.046 433.5 225.313 434.5 205.261 445.5 c 0
 188.673 454.5 174.764 473.5 172.854 492.5 c 0
 170.481 513.5 173.572 532.5 178.592 547.5 c 0
 184.755 570.5 201.597 603.5 210.544 614.5 c 0
 238.387 647.5 252.334 658.5 263.76 626.5 c 0
 271.401 606.5 296.598 603.5 309.794 600.5 c 0
 337.454 595.5 351.578 588.5 365.559 573.5 c 0
 392.252 542.5 364.032 474.5 326.457 442.5 c 0
 309.706 428.5 300.223 415.5 300.223 415.5 c 1
 275.577 379.5 262.414 356.5 250.571 323.5 c 0
 242.337 296.5 235.227 262.5 233.116 228.5 c 0
 231.829 212.5 238.489 207.5 251.973 220.5 c 2
 477.778 432.5 l 2
 485.653 439.5 489.993 444.5 480.673 454.5 c 0
 461.032 474.5 457.463 498.5 465.305 531.5 c 0
 474.219 568.5 493.258 598.5 528.296 628.5 c 0
 553.459 651.5 572.459 651.5 574.296 628.5 c 0
 576.152 620.5 584.794 600.5 601.578 588.5 c 0
 630.487 569.5 646.448 539.5 638.803 503.5 c 0
 630.62 465.5 614.189 441.5 583.419 412.5 c 0
 568.399 397.5 545.577 379.5 538.061 392.5 c 0
 533.204 400.5 529.812 406.5 523.419 412.5 c 0
 519.491 416.5 512.295 419.5 500.348 408.5 c 2
 249.183 176.5 l 1
 237.164 161.5 226.608 144.5 225.905 134 c 1
EndSplineSet
EndChar
StartChar: afii57686
Encoding: 328 1510 167
Width: 561
Flags: W
Validated: 33
HStem: 0 160<141.48 459.335>
VStem: 478.281 172.497<464.533 598.641>
Fore
54 0 m 2
 38 0 35.4111 9 43.8945 22 c 2
 123.245 139 l 2
 132.996 153 143.872 160 159.872 160 c 2
 448.872 160 l 2
 463.872 160 464.479 166 459.087 172 c 2
 311.601 312 l 2
 305.476 319 303.352 326 305.031 336 c 0
 309.605 368 312.964 388 311.716 402 c 0
 311.199 415 312.146 426 290.683 428 c 0
 251.486 431 213.826 436 193.524 461 c 0
 185.472 472 179.759 488 179.314 505 c 0
 178.138 523 182.496 543 187.516 558 c 0
 194.679 581 210.646 607 220.593 618 c 0
 249.167 650 260.971 653 272.2 624 c 0
 279.842 604 305.233 598 317.162 594 c 0
 355.482 584 373.052 560 372.941 526 c 0
 372.635 495 357.4 468 346.434 442 c 0
 342.022 433 341.61 424 344.931 414 c 0
 347.52 405 416.835 339 416.835 339 c 2
 423.691 331 432.031 336 437.906 343 c 2
 496.683 428 l 2
 502.558 435 508.166 441 497.845 451 c 0
 478.937 470 469.438 498 478.281 531 c 0
 487.195 568 505.233 598 540.272 628 c 0
 566.435 651 584.435 651 587.272 628 c 0
 588.129 620 596.77 600 613.554 588 c 0
 642.463 569 658.425 539 650.778 503 c 0
 642.597 465 626.166 441 596.396 412 c 0
 580.376 397 557.553 379 551.036 392 c 0
 545.18 400 545.983 403 540.591 409 c 0
 536.931 414 529.807 421 521.323 408 c 2
 460.012 321 l 2
 450.796 309 451.457 304 459.312 296 c 2
 542.806 212 l 2
 569.57 185 567.422 121 530.488 69 c 0
 495.627 21 448 0 397 0 c 2
 54 0 l 2
EndSplineSet
EndChar
StartChar: afii57687
Encoding: 329 1511 168
Width: 544
Flags: W
Validated: 33
Fore
346.77 600 m 1
 346.27 600 l 1
 377.197 596 559.485 612 610.656 538 c 0
 661.364 466 594.128 230 549.836 158 c 0
 530.262 126 482.472 82 427.845 61 c 0
 353.343 33 249.486 41 210.16 -5 c 0
 192.533 -26 173.213 -16 179.18 10 c 0
 181.323 18 185.807 31 197.361 48 c 0
 225.079 88 268.314 115 355.281 141 c 0
 424.908 162 470.229 152 515.679 191 c 0
 564.933 233 594.818 352 568.34 395 c 0
 530.685 456 296.45 429 239.005 446 c 0
 186.293 462 188.402 496 189.298 518 c 0
 191.283 559 209.466 597 232.772 628 c 0
 249.667 650 260.399 649 264.576 631 c 0
 272.197 596 310.342 604 346.77 600 c 1
226.21 346 m 0
 188.617 299 179.454 276 170.344 242 c 0
 140.549 142 131.5 0 107.992 -84 c 0
 87.7002 -156 67.7471 -223 3.33105 -288 c 0
 -33.583 -325 -45.3154 -324 -30.5977 -284 c 0
 10.4844 -168 11.7383 -126 41.1406 -20 c 0
 67.8643 76 82.9082 162 109.324 227 c 0
 128.918 274 160.048 323 200.426 358 c 0
 235.732 389 247.177 372 226.21 346 c 0
EndSplineSet
EndChar
StartChar: afii57688
Encoding: 330 1512 169
Width: 502
Flags: W
Validated: 33
HStem: 440 160<276.195 507.046>
VStem: 171.726 398.172<482.464 572.125 440 514 514 514>
Fore
519.175 344 m 0
 532.572 394 506.897 440 448.897 440 c 2
 225.897 440 l 2
 180.897 440 169.831 492 171.726 514 c 0
 173.836 548 196.966 597 220.272 628 c 0
 237.167 650 247.899 649 252.076 631 c 0
 259.697 596 295.77 600 333.77 600 c 2
 466.77 600 l 2
 554.77 600 584.425 539 569.897 440 c 0
 559.677 372 520.733 208 511.265 154 c 0
 507.369 132 495.292 72 462.359 20 c 0
 437.909 -19 409.856 -8 420.967 26 c 2
 420.967 26 476.609 215 519.175 344 c 0
EndSplineSet
EndChar
StartChar: afii57689
Encoding: 331 1513 170
Width: 716
Flags: W
Validated: 33
HStem: 0 160<211.727 242.817 293.303 466.353>
Fore
552.824 227 m 0
 615.476 319 690.912 399 690.912 399 c 2
 696.787 406 700.931 414 694.539 420 c 0
 680.29 434 640.257 460 641.582 506 c 0
 642.712 555 665.358 591 707.272 628 c 0
 732.435 651 751.435 651 754.272 628 c 0
 755.129 620 764.77 600 781.554 588 c 0
 809.463 569 825.425 539 817.778 503 c 0
 809.597 465 794.166 441 763.396 412 c 0
 747.376 397 740.304 393 735.572 394 c 0
 731.84 395 729.18 400 720.5 390 c 0
 671.371 341 621.007 265 559.925 149 c 0
 527.579 88 490 0 377 0 c 2
 114 0 l 2
 104 0 100.34 5 103.02 15 c 0
 108.914 37 119.168 79 123.938 108 c 0
 141.733 208 132.518 196 150.811 268 c 0
 162.528 308 189.586 353 212.036 392 c 0
 222.859 410 223.343 423 214.146 426 c 0
 198.022 433 186.701 443 178.917 455 c 0
 171.864 466 168.151 482 169.707 499 c 0
 170.798 518 176.889 537 182.908 552 c 0
 192.07 575 209.842 604 219.789 615 c 0
 250.167 650 265.507 655 275.468 625 c 0
 279.717 611 291.966 597 314.358 591 c 0
 347.679 581 362.516 558 367.281 531 c 0
 371.654 510 363.472 472 347.897 440 c 0
 328.18 400 316.84 395 308.447 401 c 0
 300.056 407 289.396 412 272.396 412 c 0
 259.396 412 249.447 401 239.893 384 c 0
 211.763 335 206.888 328 204.241 292 c 0
 200.72 249 214.289 225 209.891 175 c 0
 208.479 166 211.872 160 222.872 160 c 2
 228.872 160 l 2
 238.872 160 246.212 165 252.623 174 c 2
 433.754 432 l 2
 438.897 440 442.773 447 435.648 454 c 0
 415.74 473 412.438 498 420.281 531 c 0
 429.195 568 448.233 598 483.272 628 c 0
 508.435 651 527.435 651 530.272 628 c 0
 530.129 620 539.77 600 556.554 588 c 0
 585.463 569 600.425 539 592.778 503 c 0
 585.597 465 569.166 441 538.396 412 c 0
 523.376 397 500.553 379 493.036 392 c 0
 488.18 400 484.787 406 478.396 412 c 0
 473.467 416 465.343 423 455.323 408 c 2
 293.623 174 l 2
 286.676 163 287.872 160 299.872 160 c 2
 419.872 160 l 2
 469.872 160 521.499 181 552.824 227 c 0
EndSplineSet
EndChar
StartChar: afii57690
Encoding: 332 1514 171
Width: 571
Flags: W
Validated: 33
HStem: 0 21G<18.6699 151.17> 440 160<327.949 575.716>
Fore
251.041 448 m 1
 250.711 448 l 1
 224.463 462 221.572 496 223.396 514 c 0
 226.506 548 248.636 597 271.942 628 c 0
 288.837 650 299.569 649 303.746 631 c 0
 311.368 596 347.439 600 386.439 600 c 2
 535.439 600 l 2
 623.439 600 653.095 539 638.567 440 c 0
 628.347 372 589.403 208 579.935 154 c 0
 576.039 132 563.962 72 531.029 20 c 0
 506.579 -19 478.526 -8 489.637 26 c 2
 489.637 26 545.279 215 587.845 344 c 0
 601.242 394 575.567 440 517.567 440 c 2
 285.567 440 l 1
 272.549 425 262.601 414 252.046 397 c 0
 219.648 347 211.179 293 227.978 240 c 0
 241.456 197 252.183 140 220.034 76 c 0
 208.14 54 175.67 0 126.67 0 c 2
 26.6699 0 l 2
 10.6699 0 7.08105 9 16.5645 22 c 2
 95.915 139 l 2
 104.666 153 116.542 160 132.542 160 c 0
 136.542 160 143.81 161 150.418 167 c 0
 163.9 180 131.958 225 160.126 304 c 0
 181.203 364 224.816 426 251.041 448 c 1
EndSplineSet
EndChar
StartChar: afii57716
Encoding: 333 1520 172
Width: 532
Flags: W
Validated: 33
VStem: 150.699 476.438<25 523 25 25>
Fore
627.138 523 m 0
 623.955 485 606.041 448 574.003 418 c 0
 568.396 412 558.447 401 557.5 390 c 0
 550.279 322 536.27 210 527.532 155 c 0
 524.638 133 510.632 77 467.359 20 c 0
 440.445 -17 406.32 -10 416.699 25 c 2
 416.699 25 490.811 268 526.036 392 c 0
 530.787 406 525.271 419 513.343 423 c 0
 498.414 427 473.558 435 460.505 446 c 0
 446.721 458 437.544 476 436.902 496 c 0
 435.994 515 442.496 543 447.516 558 c 0
 454.679 581 469.646 607 479.593 618 c 0
 508.167 650 520.971 653 531.2 624 c 0
 538.842 604 564.233 598 577.162 594 c 0
 615.482 584 629.443 554 627.138 523 c 0
361.138 523 m 0
 357.955 485 340.041 448 308.003 418 c 0
 302.396 412 292.447 401 291.5 390 c 0
 284.279 322 270.27 210 261.532 155 c 0
 258.638 133 244.632 77 201.359 20 c 0
 174.445 -17 140.32 -10 150.699 25 c 2
 150.699 25 224.811 268 260.036 392 c 0
 264.787 406 259.271 419 247.343 423 c 0
 232.414 427 207.558 435 194.505 446 c 0
 180.721 458 171.544 476 170.902 496 c 0
 169.994 515 176.496 543 181.516 558 c 0
 188.679 581 203.646 607 213.593 618 c 0
 242.167 650 254.971 653 265.2 624 c 0
 272.842 604 298.233 598 311.162 594 c 0
 349.482 584 363.443 554 361.138 523 c 0
EndSplineSet
EndChar
StartChar: afii57717
Encoding: 334 1521 173
Width: 532
Flags: W
Validated: 33
VStem: 174.118 453.02<485 496 523 530 508 523 508 508>
Fore
341.271 419 m 0
 327.5 390 301.658 357 268.815 324 c 0
 256.601 312 240.045 295 231.457 304 c 0
 221.136 314 235.763 335 243.175 344 c 0
 265.409 371 282.5 390 273.199 415 c 0
 264.826 436 243.022 433 219.237 445 c 0
 198.185 456 179.74 473 174.118 508 c 0
 171.013 530 178.588 562 185.143 579 c 0
 194.842 604 204.86 619 218.076 631 c 0
 244.238 654 252.095 646 258.736 626 c 0
 266.377 606 278.233 598 303.626 592 c 0
 327.286 587 352.999 571 360.961 541 c 0
 372.975 500 359.721 458 341.271 419 c 0
627.138 523 m 0
 623.955 485 606.041 448 574.003 418 c 0
 568.396 412 558.447 401 557.5 390 c 0
 550.279 322 536.27 210 527.532 155 c 0
 524.638 133 510.632 77 467.359 20 c 0
 440.445 -17 406.32 -10 416.699 25 c 2
 416.699 25 490.811 268 526.036 392 c 0
 530.787 406 525.271 419 513.343 423 c 0
 498.414 427 473.558 435 460.505 446 c 0
 446.721 458 437.544 476 436.902 496 c 0
 435.994 515 442.496 543 447.516 558 c 0
 454.679 581 469.646 607 479.593 618 c 0
 508.167 650 520.971 653 531.2 624 c 0
 538.842 604 564.233 598 577.162 594 c 0
 615.482 584 629.443 554 627.138 523 c 0
EndSplineSet
EndChar
StartChar: afii57718
Encoding: 335 1522 174
Width: 532
Flags: W
Validated: 33
VStem: 0 597.961<0 541 1.53064e-18 1.53064e-18>
Fore
0 0 m 0
 0 0 l 0
578.271 419 m 0
 564.5 390 538.658 357 505.815 324 c 0
 493.601 312 477.045 295 468.457 304 c 0
 458.136 314 472.763 335 480.175 344 c 0
 502.409 371 519.5 390 510.199 415 c 0
 501.826 436 480.022 433 456.237 445 c 0
 435.185 456 416.74 473 411.118 508 c 0
 408.013 530 415.588 562 422.143 579 c 0
 431.842 604 441.86 619 455.076 631 c 0
 481.238 654 489.095 646 495.736 626 c 0
 503.377 606 515.233 598 540.626 592 c 0
 564.286 587 589.999 571 597.961 541 c 0
 609.975 500 596.721 458 578.271 419 c 0
312.271 419 m 0
 298.5 390 272.658 357 239.815 324 c 0
 227.601 312 211.045 295 202.457 304 c 0
 192.136 314 206.763 335 214.175 344 c 0
 236.409 371 253.5 390 244.199 415 c 0
 235.826 436 214.022 433 190.237 445 c 0
 169.185 456 150.74 473 145.118 508 c 0
 142.013 530 149.588 562 156.143 579 c 0
 165.842 604 175.86 619 189.076 631 c 0
 215.238 654 223.095 646 229.736 626 c 0
 237.377 606 249.233 598 274.626 592 c 0
 298.286 587 323.999 571 331.961 541 c 0
 343.975 500 330.721 458 312.271 419 c 0
EndSplineSet
EndChar
StartChar: SF110000
Encoding: 340 9474 179
Width: 610
Flags: W
Validated: 1
VStem: 164.615 457.616<-300 960 -300 -300>
Fore
622.231 960 m 1
 284.615 -300 l 1
 164.615 -300 l 1
 502.231 960 l 1
 622.231 960 l 1
EndSplineSet
EndChar
StartChar: uni25CC
Encoding: 341 9676 180
Width: 604
Flags: W
Validated: 33
HStem: 28 73<285.504 350.712> 60 73<177.47 241.714 412.428 477.635> 146 73<114.379 178.744 521.472 586.679> 263 74<113.991 178.779 584.898 648.785> 381 73<177.012 241.257 584.09 649.298> 467 73<286.069 350.434 521.134 586.342> 499 73<412.058 477.265>
VStem: 109.385 74<275.448 343.706> 580.385 73<275.173 344.012>
Fore
626.648 454 m 0x3980
 646.648 454 659.361 438 654.003 418 c 0
 648.376 397 627.089 381 607.089 381 c 0
 587.089 381 574.376 397 580.003 418 c 0
 585.361 438 606.648 454 626.648 454 c 0x3980
454.638 133 m 0x7980
 474.638 133 487.35 117 481.723 96 c 0
 476.364 76 455.077 60 435.077 60 c 0
 415.077 60 402.364 76 407.723 96 c 0
 413.35 117 434.638 133 454.638 133 c 0x7980
155.681 219 m 0
 176.681 219 188.394 203 182.767 182 c 0
 177.408 162 157.12 146 136.12 146 c 0
 116.12 146 104.408 162 109.767 182 c 0
 115.394 203 135.681 219 155.681 219 c 0
328.692 540 m 0x3d80
 348.692 540 360.405 524 355.047 504 c 0
 349.42 483 329.132 467 309.132 467 c 0
 288.132 467 276.42 483 282.047 504 c 0
 287.405 524 307.692 540 328.692 540 c 0x3d80
218.649 454 m 0
 239.649 454 251.361 438 246.003 418 c 0
 240.376 397 220.089 381 199.089 381 c 0
 179.089 381 167.376 397 173.003 418 c 0
 178.361 438 198.649 454 218.649 454 c 0
219.638 133 m 0x7980
 239.638 133 251.35 117 245.723 96 c 0
 240.364 76 220.077 60 200.077 60 c 0
 179.077 60 167.364 76 172.723 96 c 0
 178.35 117 198.638 133 219.638 133 c 0x7980
563.681 219 m 0
 583.681 219 596.394 203 590.767 182 c 0
 585.408 162 564.121 146 544.121 146 c 0
 524.121 146 511.408 162 516.767 182 c 0
 522.394 203 543.681 219 563.681 219 c 0
563.692 540 m 0x3d80
 583.692 540 596.405 524 591.047 504 c 0
 585.42 483 564.132 467 544.132 467 c 0
 524.132 467 511.42 483 517.047 504 c 0
 522.405 524 543.692 540 563.692 540 c 0x3d80
328.062 101 m 0xb980
 348.062 101 360.775 85 355.417 65 c 0
 349.79 44 328.503 28 308.503 28 c 0
 288.503 28 275.79 44 281.417 65 c 0
 286.775 85 308.062 101 328.062 101 c 0xb980
626.299 337 m 0
 647.299 337 658.744 320 653.385 300 c 0
 648.025 280 627.471 263 606.471 263 c 0
 586.471 263 575.025 280 580.385 300 c 0
 585.744 320 606.299 337 626.299 337 c 0
454.267 572 m 0x3b80
 474.267 572 486.979 556 481.353 535 c 0
 475.994 515 454.707 499 434.707 499 c 0
 414.707 499 401.994 515 407.353 535 c 0
 412.979 556 434.267 572 454.267 572 c 0x3b80
156.299 337 m 0
 176.299 337 188.744 320 183.385 300 c 0
 178.025 280 156.471 263 136.471 263 c 0
 116.471 263 104.025 280 109.385 300 c 0
 114.744 320 136.299 337 156.299 337 c 0
EndSplineSet
EndChar
StartChar: uniE801
Encoding: 342 59393 181
Width: 266
Flags: W
Validated: 33
HStem: 645 75<150.004 215.835>
VStem: 144.741 76<658.217 726.482>
Fore
192.924 720 m 0
 213.924 720 226.368 703 220.741 682 c 0
 215.383 662 193.827 645 172.827 645 c 0
 151.827 645 139.383 662 144.741 682 c 0
 150.368 703 171.924 720 192.924 720 c 0
361.138 523 m 0
 357.955 485 340.041 448 308.003 418 c 0
 302.396 412 292.447 401 291.5 390 c 0
 284.279 322 270.27 210 261.532 155 c 0
 258.638 133 244.632 77 201.359 20 c 0
 174.445 -17 140.32 -10 150.699 25 c 2
 150.699 25 224.811 268 260.036 392 c 0
 264.787 406 259.271 419 247.343 423 c 0
 232.414 427 207.558 435 194.505 446 c 0
 180.721 458 171.544 476 170.902 496 c 0
 169.994 515 176.496 543 181.516 558 c 0
 188.679 581 203.646 607 213.593 618 c 0
 242.167 650 254.971 653 265.2 624 c 0
 272.842 604 298.233 598 311.162 594 c 0
 349.482 584 363.443 554 361.138 523 c 0
EndSplineSet
EndChar
StartChar: uniE802
Encoding: 343 59394 182
Width: 496
Flags: W
Validated: 33
HStem: 107 75<266.847 332.678> 222 75<297.573 363.405> 440 160<276.017 478.6 526.166 572.027>
VStem: 171.726 426.412<465.832 514 514 592.836 514 523 514 514>
Fore
309.767 182 m 0
 330.767 182 343.212 165 337.585 144 c 0
 332.226 124 310.671 107 289.671 107 c 0
 268.671 107 256.226 124 261.585 144 c 0
 267.212 165 288.767 182 309.767 182 c 0
340.581 297 m 0
 361.581 297 374.025 280 368.667 260 c 0
 363.04 239 341.484 222 320.484 222 c 0
 299.484 222 287.04 239 292.667 260 c 0
 298.025 280 319.581 297 340.581 297 c 0
333.77 600 m 2
 550.77 600 l 2
 610.77 600 607.855 563 598.138 523 c 0
 589.224 486 573.041 448 526.166 441 c 0
 512.63 439 510.146 426 510.146 426 c 1
 504.017 377 406.243 -70 398.506 -125 c 0
 394.611 -147 381.606 -203 338.333 -260 c 0
 310.419 -297 277.295 -290 287.673 -255 c 2
 478.146 426 l 2
 481.897 440 474.897 440 466.897 440 c 2
 225.897 440 l 2
 180.897 440 169.831 492 171.726 514 c 0
 173.836 548 195.966 597 220.272 628 c 0
 236.167 650 247.899 649 251.076 631 c 0
 259.697 596 295.77 600 333.77 600 c 2
EndSplineSet
EndChar
StartChar: uniE803
Encoding: 344 59395 183
Width: 496
Flags: W
Validated: 33
HStem: 234.69 55<179.468 250.754 286.819 386.819> 439.69 160<275.824 478.407 525.973 571.834>
VStem: 164.794 433.15<249.69 522.69 442.087 487.948> 214.195 76<122.906 165.723>
Fore
287.087 172 m 1xe0
 286.895 171.69 l 1
 291.286 165.69 292.875 156.69 290.195 146.69 c 0
 284.837 126.69 263.281 109.69 242.281 109.69 c 0
 221.281 109.69 208.837 126.69 214.195 146.69 c 0xd0
 216.875 156.69 223.286 165.69 231.162 172.69 c 0
 245.378 184.69 247.861 197.69 250.272 206.69 c 0
 255.899 227.69 245.775 234.69 219.775 234.69 c 2
 175.775 234.69 l 2
 167.775 234.69 162.65 241.69 164.794 249.69 c 2
 171.492 274.69 l 2
 173.636 282.69 182.512 289.69 190.512 289.69 c 2
 390.512 289.69 l 2
 398.512 289.69 403.637 282.69 401.493 274.69 c 2
 394.794 249.69 l 2
 392.65 241.69 383.775 234.69 375.775 234.69 c 2
 331.775 234.69 l 2
 303.775 234.69 291.899 227.69 286.272 206.69 c 0
 283.861 197.69 279.378 184.69 287.087 172 c 1xe0
333.576 599.69 m 2
 550.576 599.69 l 2
 610.576 599.69 607.662 562.69 597.944 522.69 c 0xe0
 589.03 485.69 572.849 447.69 525.973 440.69 c 0
 512.437 438.69 509.953 425.69 509.953 425.69 c 1
 503.824 376.69 406.051 -70.3096 398.313 -125.31 c 0
 394.418 -147.31 381.413 -203.31 338.141 -260.31 c 0
 310.226 -297.31 277.102 -290.31 287.479 -255.31 c 2
 477.953 425.69 l 2
 481.705 439.69 474.705 439.69 466.705 439.69 c 2
 225.704 439.69 l 2
 180.704 439.69 169.638 491.69 171.532 513.69 c 0
 173.643 547.69 195.772 596.69 220.079 627.69 c 0
 235.974 649.69 247.705 648.69 250.883 630.69 c 0
 259.504 595.69 295.576 599.69 333.576 599.69 c 2
EndSplineSet
EndChar
StartChar: uniFB1D
Encoding: 345 64285 184
Width: 266
Flags: W
Validated: 33
HStem: 159 75<139.692 205.524>
VStem: 134.786 76<172.187 240.453>
Fore
182.7 234 m 0
 203.7 234 216.145 217 210.786 197 c 0
 205.159 176 183.604 159 162.604 159 c 0
 141.604 159 129.159 176 134.786 197 c 0
 140.145 217 161.7 234 182.7 234 c 0
341.271 419 m 0
 327.5 390 301.658 357 268.815 324 c 0
 256.601 312 240.045 295 231.457 304 c 0
 221.136 314 235.763 335 243.175 344 c 0
 265.409 371 282.5 390 273.199 415 c 0
 264.826 436 243.022 433 219.237 445 c 0
 198.185 456 179.74 473 174.118 508 c 0
 171.013 530 178.588 562 185.143 579 c 0
 194.842 604 204.86 619 218.076 631 c 0
 244.238 654 252.095 646 258.736 626 c 0
 266.377 606 278.233 598 303.626 592 c 0
 327.286 587 352.999 571 360.961 541 c 0
 372.975 500 359.721 458 341.271 419 c 0
EndSplineSet
EndChar
StartChar: uniFB1E
Encoding: 346 64286 185
Width: 0
Flags: W
Validated: 33
HStem: 675 48<121.728 279.865 121.728 121.728>
VStem: 81.4922 210<686.451 696 696 696 696 696>
Fore
100.119 717 m 2
 105.995 724 115.531 726 121.728 723 c 0
 162.101 702 215.368 703 265.728 723 c 0
 273.531 726 281.995 724 284.119 717 c 2
 291.492 696 l 2
 293.349 688 288.205 680 279.865 675 c 0
 224.023 642 119.095 646 81.8652 675 c 0
 76.2051 680 75.3486 688 81.4922 696 c 2
 100.119 717 l 2
EndSplineSet
EndChar
StartChar: afii57705
Encoding: 347 64287 186
Width: 532
Flags: W
Validated: 33
HStem: 160 471<218.076 400.872 218.076 218.076> 160 55<204.566 411.915>
VStem: 174.118 452.843<500 508 508 530 508 541 508 508>
Fore
196.59 200 m 2x60
 198.733 208 207.609 215 215.609 215 c 2
 415.609 215 l 2x60
 423.609 215 428.733 208 426.59 200 c 2
 419.891 175 l 2
 417.747 167 408.872 160 400.872 160 c 2xa0
 200.872 160 l 2
 192.872 160 187.747 167 189.891 175 c 2
 196.59 200 l 2x60
341.271 419 m 0
 327.5 390 301.658 357 268.815 324 c 0
 256.601 312 240.045 295 231.457 304 c 0
 221.136 314 235.763 335 243.175 344 c 0
 265.409 371 282.5 390 273.199 415 c 0
 264.826 436 243.022 433 219.237 445 c 0
 198.185 456 179.74 473 174.118 508 c 0
 171.013 530 178.588 562 185.143 579 c 0
 194.842 604 204.86 619 218.076 631 c 0xa0
 244.238 654 252.095 646 258.736 626 c 0
 266.377 606 278.233 598 303.626 592 c 0
 327.286 587 352.999 571 360.961 541 c 0
 372.975 500 359.721 458 341.271 419 c 0
607.271 419 m 0
 593.5 390 567.658 357 534.815 324 c 0
 522.601 312 506.045 295 497.457 304 c 0
 487.136 314 501.763 335 509.175 344 c 0
 531.409 371 548.5 390 539.199 415 c 0
 530.826 436 509.022 433 485.237 445 c 0
 464.185 456 445.74 473 440.118 508 c 0
 437.013 530 444.588 562 451.143 579 c 0
 460.842 604 470.86 619 484.076 631 c 0
 510.238 654 518.095 646 524.736 626 c 0
 532.377 606 544.233 598 569.626 592 c 0
 593.286 587 618.999 571 626.961 541 c 0
 638.975 500 625.721 458 607.271 419 c 0
EndSplineSet
EndChar
StartChar: uniFB20
Encoding: 348 64288 187
Width: 552
Flags: W
Validated: 33
HStem: 0 160<146.157 276.08 305.435 412.156>
Fore
349 0 m 2
 59 0 l 2
 43 0 39.4111 9 48.8945 22 c 2
 128.245 139 l 2
 136.996 153 148.872 160 164.872 160 c 2
 238.872 160 l 2
 269.872 160 284.767 182 271.197 206 c 0
 254.04 239 233.308 240 223.294 281 c 0
 211.744 320 231.677 372 246.252 404 c 0
 255.61 424 250.558 435 240.094 437 c 0
 219.63 439 204.505 446 193.185 456 c 0
 182.597 465 175.348 479 172.902 496 c 0
 170.726 514 173.817 533 176.836 548 c 0
 181.999 571 194.966 597 205.181 609 c 0
 231.291 643 244.043 657 266.86 619 c 0
 274.377 606 301.306 602 318.037 601 c 0
 358.77 600 380.75 585 393.123 564 c 0
 403.032 545 401.118 508 390.275 475 c 0
 376.29 434 363.414 427 353.486 431 c 0
 342.558 435 328.094 437 310.29 434 c 0
 294.754 432 283.271 419 278.716 402 c 0
 265.39 356 277.352 326 297.921 302 c 0
 321.418 274 327.217 221 305.695 178 c 0
 300.016 168 301.872 160 312.872 160 c 2
 374.872 160 l 2
 402.872 160 412.767 182 424.197 206 c 0
 440.576 241 460.49 278 479.796 309 c 0
 495.228 333 513.998 362 537.716 402 c 0
 545.734 417 544.61 424 529.414 427 c 0
 511.754 432 492.361 438 474.524 461 c 0
 465.472 472 459.759 488 458.314 505 c 0
 457.138 523 462.496 543 466.516 558 c 0
 474.679 581 489.646 607 500.593 618 c 0
 529.167 650 541.971 653 553.2 624 c 0
 560.842 604 588.233 598 600.162 594 c 0
 639.482 584 659.319 561 657.941 526 c 0
 656.242 501 648.721 458 601.486 431 c 0
 589.879 425 575.396 412 569.716 402 c 0
 540.318 352 510.241 292 489.236 236 c 0
 472.714 193 451.082 116 436.561 73 c 0
 419.895 22 394 0 349 0 c 2
EndSplineSet
EndChar
StartChar: uniFB29
Encoding: 349 64297 188
Width: 570
Flags: W
Validated: 1
HStem: 209 88<112.581 320.581 408.581 593.001 89.001 616.581 112.581 112.581>
Fore
320.581 297 m 1
 376.582 506 l 1
 464.582 506 l 1
 408.581 297 l 1
 616.581 297 l 1
 593.001 209 l 1
 89.001 209 l 1
 112.581 297 l 1
 320.581 297 l 1
EndSplineSet
EndChar
StartChar: afii57694
Encoding: 350 64298 189
Width: 716
Flags: W
Validated: 33
HStem: 0 160<211.727 242.817 293.303 466.353> 630 75<789.896 855.728>
VStem: 784.99 76<643.187 711.453>
Fore
832.904 705 m 0
 853.904 705 866.349 688 860.99 668 c 0
 855.363 647 833.808 630 812.808 630 c 0
 791.808 630 779.363 647 784.99 668 c 0
 790.349 688 811.904 705 832.904 705 c 0
552.824 227 m 0
 615.476 319 690.912 399 690.912 399 c 2
 696.787 406 700.931 414 694.539 420 c 0
 680.29 434 640.257 460 641.582 506 c 0
 642.712 555 665.358 591 707.272 628 c 0
 732.435 651 751.435 651 754.272 628 c 0
 755.129 620 764.77 600 781.554 588 c 0
 809.463 569 825.425 539 817.778 503 c 0
 809.597 465 794.166 441 763.396 412 c 0
 747.376 397 740.304 393 735.572 394 c 0
 731.84 395 729.18 400 720.5 390 c 0
 671.371 341 621.007 265 559.925 149 c 0
 527.579 88 490 0 377 0 c 2
 114 0 l 2
 104 0 100.34 5 103.02 15 c 0
 108.914 37 119.168 79 123.938 108 c 0
 141.733 208 132.518 196 150.811 268 c 0
 162.528 308 189.586 353 212.036 392 c 0
 222.859 410 223.343 423 214.146 426 c 0
 198.022 433 186.701 443 178.917 455 c 0
 171.864 466 168.151 482 169.707 499 c 0
 170.798 518 176.889 537 182.908 552 c 0
 192.07 575 209.842 604 219.789 615 c 0
 250.167 650 265.507 655 275.468 625 c 0
 279.717 611 291.966 597 314.358 591 c 0
 347.679 581 362.516 558 367.281 531 c 0
 371.654 510 363.472 472 347.897 440 c 0
 328.18 400 316.84 395 308.447 401 c 0
 300.056 407 289.396 412 272.396 412 c 0
 259.396 412 249.447 401 239.893 384 c 0
 211.763 335 206.888 328 204.241 292 c 0
 200.72 249 214.289 225 209.891 175 c 0
 208.479 166 211.872 160 222.872 160 c 2
 228.872 160 l 2
 238.872 160 246.212 165 252.623 174 c 2
 433.754 432 l 2
 438.897 440 442.773 447 435.648 454 c 0
 415.74 473 412.438 498 420.281 531 c 0
 429.195 568 448.233 598 483.272 628 c 0
 508.435 651 527.435 651 530.272 628 c 0
 530.129 620 539.77 600 556.554 588 c 0
 585.463 569 600.425 539 592.778 503 c 0
 585.597 465 569.166 441 538.396 412 c 0
 523.376 397 500.553 379 493.036 392 c 0
 488.18 400 484.787 406 478.396 412 c 0
 473.467 416 465.343 423 455.323 408 c 2
 293.623 174 l 2
 286.676 163 287.872 160 299.872 160 c 2
 419.872 160 l 2
 469.872 160 521.499 181 552.824 227 c 0
EndSplineSet
EndChar
StartChar: afii57695
Encoding: 351 64299 190
Width: 716
Flags: W
Validated: 37
HStem: 0 160<211.227 242.317 292.803 465.853> 630 75<318.246 360.404>
VStem: 313.49 75<643.024 711.448>
Fore
360.904 705 m 1
 360.404 705 l 1
 381.404 705 393.849 688 388.49 668 c 0
 382.863 647 361.308 630 340.308 630 c 0
 320.308 630 307.863 647 313.49 668 c 0
 318.849 688 340.404 705 360.904 705 c 1
552.324 227 m 0
 614.976 319 690.412 399 690.412 399 c 2
 696.287 406 700.431 414 694.039 420 c 0
 679.79 434 639.757 460 641.082 506 c 0
 642.212 555 664.858 591 706.772 628 c 0
 731.935 651 750.935 651 753.772 628 c 0
 754.629 620 764.27 600 781.054 588 c 0
 808.963 569 824.925 539 817.278 503 c 0
 809.097 465 793.666 441 762.896 412 c 0
 746.876 397 739.804 393 735.072 394 c 0
 731.34 395 728.68 400 720 390 c 0
 670.871 341 620.507 265 559.425 149 c 0
 527.079 88 489.5 0 376.5 0 c 2
 113.5 0 l 2
 103.5 0 99.8398 5 102.52 15 c 0
 108.414 37 118.668 79 123.438 108 c 0
 141.233 208 132.018 196 150.311 268 c 0
 162.028 308 189.086 353 211.536 392 c 0
 222.359 410 222.843 423 213.646 426 c 0
 197.522 433 186.201 443 178.417 455 c 0
 171.364 466 167.651 482 169.207 499 c 0
 170.298 518 176.389 537 182.408 552 c 0
 191.57 575 209.342 604 219.289 615 c 0
 249.667 650 265.007 655 274.968 625 c 0
 279.217 611 291.466 597 313.858 591 c 0
 347.179 581 362.016 558 366.781 531 c 0
 371.154 510 362.972 472 347.397 440 c 0
 327.68 400 316.34 395 307.947 401 c 0
 299.556 407 288.896 412 271.896 412 c 0
 258.896 412 248.947 401 239.393 384 c 0
 211.263 335 206.388 328 203.741 292 c 0
 200.22 249 213.789 225 209.391 175 c 0
 207.979 166 211.372 160 222.372 160 c 2
 228.372 160 l 2
 238.372 160 245.712 165 252.123 174 c 2
 433.254 432 l 2
 438.397 440 442.273 447 435.148 454 c 0
 415.24 473 411.938 498 419.781 531 c 0
 428.695 568 447.733 598 482.772 628 c 0
 507.935 651 526.935 651 529.772 628 c 0
 529.629 620 539.27 600 556.054 588 c 0
 584.963 569 599.925 539 592.278 503 c 0
 585.097 465 568.666 441 537.896 412 c 0
 522.876 397 500.053 379 492.536 392 c 0
 487.68 400 484.287 406 477.896 412 c 0
 472.967 416 464.843 423 454.823 408 c 2
 293.123 174 l 2
 286.176 163 287.372 160 299.372 160 c 2
 419.372 160 l 2
 469.372 160 520.999 181 552.324 227 c 0
EndSplineSet
EndChar
StartChar: uniFB2C
Encoding: 352 64300 191
Width: 716
Flags: W
Validated: 33
HStem: 0 160<211.727 242.817 293.303 466.353> 248 74<445.077 511.654> 630 75<789.896 855.728>
VStem: 440.365 76<261.128 328.542> 784.99 76<643.187 711.453>
Fore
832.904 705 m 0
 853.904 705 866.349 688 860.99 668 c 0
 855.363 647 833.808 630 812.808 630 c 0
 791.808 630 779.363 647 784.99 668 c 0
 790.349 688 811.904 705 832.904 705 c 0
552.824 227 m 0
 615.476 319 690.912 399 690.912 399 c 2
 696.787 406 700.931 414 694.539 420 c 0
 680.29 434 640.257 460 641.582 506 c 0
 642.712 555 665.358 591 707.272 628 c 0
 732.435 651 751.435 651 754.272 628 c 0
 755.129 620 764.77 600 781.554 588 c 0
 809.463 569 825.425 539 817.778 503 c 0
 809.597 465 794.166 441 763.396 412 c 0
 747.376 397 740.304 393 735.572 394 c 0
 731.84 395 729.18 400 720.5 390 c 0
 671.371 341 621.007 265 559.925 149 c 0
 527.579 88 490 0 377 0 c 2
 114 0 l 2
 104 0 100.34 5 103.02 15 c 0
 108.914 37 119.168 79 123.938 108 c 0
 141.733 208 132.518 196 150.811 268 c 0
 162.528 308 189.586 353 212.036 392 c 0
 222.859 410 223.343 423 214.146 426 c 0
 198.022 433 186.701 443 178.917 455 c 0
 171.864 466 168.151 482 169.707 499 c 0
 170.798 518 176.889 537 182.908 552 c 0
 192.07 575 209.842 604 219.789 615 c 0
 250.167 650 265.507 655 275.468 625 c 0
 279.717 611 291.966 597 314.358 591 c 0
 347.679 581 362.516 558 367.281 531 c 0
 371.654 510 363.472 472 347.897 440 c 0
 328.18 400 316.84 395 308.447 401 c 0
 300.056 407 289.396 412 272.396 412 c 0
 259.396 412 249.447 401 239.893 384 c 0
 211.763 335 206.888 328 204.241 292 c 0
 200.72 249 214.289 225 209.891 175 c 0
 208.479 166 211.872 160 222.872 160 c 2
 228.872 160 l 2
 238.872 160 246.212 165 252.623 174 c 2
 433.754 432 l 2
 438.897 440 442.773 447 435.648 454 c 0
 415.74 473 412.438 498 420.281 531 c 0
 429.195 568 448.233 598 483.272 628 c 0
 508.435 651 527.435 651 530.272 628 c 0
 530.129 620 539.77 600 556.554 588 c 0
 585.463 569 600.425 539 592.778 503 c 0
 585.597 465 569.166 441 538.396 412 c 0
 523.376 397 500.553 379 493.036 392 c 0
 488.18 400 484.787 406 478.396 412 c 0
 473.467 416 465.343 423 455.323 408 c 2
 293.623 174 l 2
 286.676 163 287.872 160 299.872 160 c 2
 419.872 160 l 2
 469.872 160 521.499 181 552.824 227 c 0
488.279 322 m 0
 509.279 322 521.992 306 516.365 285 c 0
 510.738 264 489.451 248 468.451 248 c 0
 447.451 248 434.738 264 440.365 285 c 0
 445.992 306 467.279 322 488.279 322 c 0
EndSplineSet
EndChar
StartChar: uniFB2D
Encoding: 353 64301 192
Width: 716
Flags: W
Validated: 33
HStem: 0 160<211.727 242.817 293.303 466.353> 248 74<445.077 511.654> 630 75<318.746 383.728>
VStem: 313.99 75<643.024 711.813> 440.365 76<261.128 328.542>
Fore
360.904 705 m 0
 381.904 705 394.349 688 388.99 668 c 0
 383.363 647 361.808 630 340.808 630 c 0
 320.808 630 308.363 647 313.99 668 c 0
 319.349 688 340.904 705 360.904 705 c 0
552.824 227 m 0
 615.476 319 690.912 399 690.912 399 c 2
 696.787 406 700.931 414 694.539 420 c 0
 680.29 434 640.257 460 641.582 506 c 0
 642.712 555 665.358 591 707.272 628 c 0
 732.435 651 751.435 651 754.272 628 c 0
 755.129 620 764.77 600 781.554 588 c 0
 809.463 569 825.425 539 817.778 503 c 0
 809.597 465 794.166 441 763.396 412 c 0
 747.376 397 740.304 393 735.572 394 c 0
 731.84 395 729.18 400 720.5 390 c 0
 671.371 341 621.007 265 559.925 149 c 0
 527.579 88 490 0 377 0 c 2
 114 0 l 2
 104 0 100.34 5 103.02 15 c 0
 108.914 37 119.168 79 123.938 108 c 0
 141.733 208 132.518 196 150.811 268 c 0
 162.528 308 189.586 353 212.036 392 c 0
 222.859 410 223.343 423 214.146 426 c 0
 198.022 433 186.701 443 178.917 455 c 0
 171.864 466 168.151 482 169.707 499 c 0
 170.798 518 176.889 537 182.908 552 c 0
 192.07 575 209.842 604 219.789 615 c 0
 250.167 650 265.507 655 275.468 625 c 0
 279.717 611 291.966 597 314.358 591 c 0
 347.679 581 362.516 558 367.281 531 c 0
 371.654 510 363.472 472 347.897 440 c 0
 328.18 400 316.84 395 308.447 401 c 0
 300.056 407 289.396 412 272.396 412 c 0
 259.396 412 249.447 401 239.893 384 c 0
 211.763 335 206.888 328 204.241 292 c 0
 200.72 249 214.289 225 209.891 175 c 0
 208.479 166 211.872 160 222.872 160 c 2
 228.872 160 l 2
 238.872 160 246.212 165 252.623 174 c 2
 433.754 432 l 2
 438.897 440 442.773 447 435.648 454 c 0
 415.74 473 412.438 498 420.281 531 c 0
 429.195 568 448.233 598 483.272 628 c 0
 508.435 651 527.435 651 530.272 628 c 0
 530.129 620 539.77 600 556.554 588 c 0
 585.463 569 600.425 539 592.778 503 c 0
 585.597 465 569.166 441 538.396 412 c 0
 523.376 397 500.553 379 493.036 392 c 0
 488.18 400 484.787 406 478.396 412 c 0
 473.467 416 465.343 423 455.323 408 c 2
 293.623 174 l 2
 286.676 163 287.872 160 299.872 160 c 2
 419.872 160 l 2
 469.872 160 521.499 181 552.824 227 c 0
488.279 322 m 0
 509.279 322 521.992 306 516.365 285 c 0
 510.738 264 489.451 248 468.451 248 c 0
 447.451 248 434.738 264 440.365 285 c 0
 445.992 306 467.279 322 488.279 322 c 0
EndSplineSet
EndChar
StartChar: uniFB2E
Encoding: 354 64302 193
Width: 593
Flags: W
Validated: 33
HStem: -110 55<162.219 369.569> 0 21G<61 165.5>
Fore
154.243 -70 m 2
 156.387 -62 165.263 -55 173.263 -55 c 2
 373.263 -55 l 2
 381.263 -55 386.387 -62 384.243 -70 c 2
 377.545 -95 l 2
 375.401 -103 366.525 -110 358.525 -110 c 2
 158.525 -110 l 2
 150.525 -110 145.401 -103 147.545 -95 c 2
 154.243 -70 l 2
313.272 628 m 0
 308.789 615 304.502 599 305.482 584 c 0
 310.334 520 332.688 484 374.897 440 c 2
 452.122 355 l 1
 452.122 355 461.246 348 470.193 359 c 2
 470.193 359 506.252 404 515.467 416 c 0
 523.146 426 523.094 437 516.701 443 c 0
 494.4 468 484.42 483 487.602 521 c 0
 490.032 545 507.41 580 516.626 592 c 0
 533.789 615 550.004 627 566.416 636 c 0
 603.507 655 597.487 640 604.181 609 c 0
 606.233 598 614.09 590 623.215 583 c 0
 643.195 568 682.032 545 682.511 502 c 0
 683.31 449 657.467 416 630.82 380 c 0
 619.533 364 600.05 351 595.998 362 c 0
 590.285 378 579.769 391 565.447 401 c 0
 557.787 406 545.252 404 537.572 394 c 2
 492.566 338 l 1
 492.566 338 484.352 326 491.476 319 c 0
 555.523 252 593.466 207 577.226 124 c 0
 568.972 82 539.378 35 501.68 10 c 0
 457.909 -19 467.627 21 472.397 50 c 0
 481.331 102 394.57 185 327.863 257 c 0
 301.634 286 269.815 324 254.103 340 c 1
 254.103 340 245.71 346 236.566 338 c 0
 224.888 328 200.261 307 195.562 282 c 0
 188.164 232 244.394 203 268.656 148 c 0
 279.226 124 272.809 59 224.431 24 c 0
 199.607 6 179 0 152 0 c 2
 63 0 l 2
 59 0 41.7324 -1 60.0195 15 c 0
 65.3594 20 71.5029 28 77.1104 34 c 0
 85.79 44 89.2734 57 84.4883 69 c 0
 76.8477 89 68.6182 118 89.1592 176 c 0
 117.863 257 140.169 288 219.926 358 c 1
 219.926 358 227.605 368 223.017 377 c 0
 200.199 415 179.897 440 183.008 474 c 0
 186.798 518 198.64 551 227.822 589 c 0
 238.842 604 265.004 627 283.684 637 c 0
 305.631 648 319.095 646 313.272 628 c 0
EndSplineSet
EndChar
StartChar: uniFB2F
Encoding: 355 64303 194
Width: 593
Flags: W
Validated: 33
HStem: -110.31 55<164.027 235.311 271.376 371.376> -0.30957 21G<60.8066 165.307>
VStem: 198.753 76<-222.092 -179.277>
Fore
271.645 -173 m 1
 271.452 -173.31 l 1
 275.844 -179.31 277.433 -188.31 274.753 -198.31 c 0
 269.394 -218.31 247.839 -235.31 226.839 -235.31 c 0
 205.839 -235.31 193.394 -218.31 198.753 -198.31 c 0
 201.433 -188.31 207.844 -179.31 215.72 -172.31 c 0
 229.936 -160.31 232.418 -147.31 234.83 -138.31 c 0
 240.457 -117.31 230.333 -110.31 204.332 -110.31 c 2
 160.332 -110.31 l 2
 152.332 -110.31 147.208 -103.31 149.352 -95.3096 c 2
 156.051 -70.3096 l 2
 158.194 -62.3096 167.07 -55.3096 175.07 -55.3096 c 2
 375.07 -55.3096 l 2
 383.07 -55.3096 388.194 -62.3096 386.051 -70.3096 c 2
 379.352 -95.3096 l 2
 377.208 -103.31 368.333 -110.31 360.333 -110.31 c 2
 316.333 -110.31 l 2
 288.333 -110.31 276.457 -117.31 270.83 -138.31 c 0
 268.418 -147.31 263.936 -160.31 271.645 -173 c 1
313.079 627.69 m 0
 308.596 614.69 304.309 598.69 305.289 583.69 c 0
 310.141 519.69 332.494 483.69 374.705 439.69 c 2
 451.929 354.69 l 1
 451.929 354.69 461.054 347.69 470.001 358.69 c 2
 470.001 358.69 506.059 403.69 515.273 415.69 c 0
 522.953 425.69 522.9 436.69 516.509 442.69 c 0
 494.207 467.69 484.227 482.69 487.408 520.69 c 0
 489.839 544.69 507.218 579.69 516.433 591.69 c 0
 533.596 614.69 549.812 626.69 566.223 635.69 c 0
 603.313 654.69 597.295 639.69 603.988 608.69 c 0
 606.041 597.69 613.896 589.69 623.021 582.69 c 0
 643.002 567.69 681.839 544.69 682.317 501.69 c 0
 683.116 448.69 657.273 415.69 630.628 379.69 c 0
 619.341 363.69 599.857 350.69 595.805 361.69 c 0
 590.092 377.69 579.575 390.69 565.255 400.69 c 0
 557.595 405.69 545.059 403.69 537.379 393.69 c 2
 492.374 337.69 l 1
 492.374 337.69 484.158 325.69 491.283 318.69 c 0
 555.33 251.69 593.272 206.69 577.032 123.69 c 0
 568.779 81.6904 539.186 34.6904 501.486 9.69043 c 0
 457.716 -19.3096 467.434 20.6904 472.204 49.6904 c 0
 481.138 101.69 394.378 184.69 327.67 256.69 c 0
 301.44 285.69 269.622 323.69 253.91 339.69 c 1
 253.91 339.69 245.518 345.69 236.374 337.69 c 0
 224.694 327.69 200.067 306.69 195.368 281.69 c 0
 187.971 231.69 244.2 202.69 268.464 147.69 c 0
 279.032 123.69 272.616 58.6904 224.238 23.6904 c 0
 199.415 5.69043 178.807 -0.30957 151.807 -0.30957 c 2
 62.8066 -0.30957 l 2
 58.8066 -0.30957 41.5391 -1.30957 59.8262 14.6904 c 0
 65.166 19.6904 71.3096 27.6904 76.917 33.6904 c 0
 85.5967 43.6904 89.0801 56.6904 84.2949 68.6904 c 0
 76.6543 88.6904 68.4248 117.69 88.9658 175.69 c 0
 117.67 256.69 139.976 287.69 219.732 357.69 c 1
 219.732 357.69 227.412 367.69 222.824 376.69 c 0
 200.006 414.69 179.704 439.69 182.814 473.69 c 0
 186.604 517.69 198.446 550.69 227.629 588.69 c 0
 238.647 603.69 264.811 626.69 283.49 636.69 c 0
 305.438 647.69 318.902 645.69 313.079 627.69 c 0
EndSplineSet
EndChar
StartChar: uniFB30
Encoding: 356 64304 195
Width: 593
Flags: W
Validated: 33
HStem: 0.5 21G<61.1338 165.634> 98.5 75.5<309.481 352.623 352.757 375.149>
VStem: 304.575 76<111.688 180.604>
Fore
352.623 174 m 1
 352.757 174.5 l 1
 373.757 174.5 386.202 157.5 380.575 136.5 c 0
 374.948 115.5 353.393 98.5 332.393 98.5 c 0
 311.393 98.5 298.948 115.5 304.575 136.5 c 0
 310.202 157.5 331.757 174.5 352.623 174 c 1
313.406 628.5 m 0
 308.923 615.5 304.636 599.5 305.616 584.5 c 0
 310.468 520.5 332.821 484.5 375.031 440.5 c 2
 452.256 355.5 l 1
 452.256 355.5 461.38 348.5 470.328 359.5 c 2
 470.328 359.5 506.386 404.5 515.601 416.5 c 0
 523.28 426.5 523.228 437.5 516.836 443.5 c 0
 494.534 468.5 484.554 483.5 487.735 521.5 c 0
 490.166 545.5 507.545 580.5 516.76 592.5 c 0
 533.923 615.5 550.138 627.5 566.55 636.5 c 0
 603.641 655.5 597.621 640.5 604.315 609.5 c 0
 606.367 598.5 614.224 590.5 623.349 583.5 c 0
 643.329 568.5 682.166 545.5 682.645 502.5 c 0
 683.443 449.5 657.601 416.5 630.955 380.5 c 0
 619.668 364.5 600.185 351.5 596.132 362.5 c 0
 590.419 378.5 579.902 391.5 565.582 401.5 c 0
 557.921 406.5 545.386 404.5 537.706 394.5 c 2
 492.701 338.5 l 1
 492.701 338.5 484.485 326.5 491.609 319.5 c 0
 555.657 252.5 593.6 207.5 577.359 124.5 c 0
 569.105 82.5 539.512 35.5 501.813 10.5 c 0
 458.043 -18.5 467.761 21.5 472.531 50.5 c 0
 481.465 102.5 394.705 185.5 327.997 257.5 c 0
 301.768 286.5 269.949 324.5 254.236 340.5 c 1
 254.236 340.5 245.845 346.5 236.701 338.5 c 0
 225.021 328.5 200.395 307.5 195.695 282.5 c 0
 188.298 232.5 244.527 203.5 268.79 148.5 c 0
 279.359 124.5 272.943 59.5 224.564 24.5 c 0
 199.741 6.5 179.134 0.5 152.134 0.5 c 2
 63.1338 0.5 l 2
 59.1338 0.5 41.8662 -0.5 60.1533 15.5 c 0
 65.4932 20.5 71.6367 28.5 77.2441 34.5 c 0
 85.9238 44.5 89.4072 57.5 84.6221 69.5 c 0
 76.9814 89.5 68.752 118.5 89.293 176.5 c 0
 117.997 257.5 140.304 288.5 220.06 358.5 c 1
 220.06 358.5 227.739 368.5 223.15 377.5 c 0
 200.333 415.5 180.031 440.5 183.142 474.5 c 0
 186.932 518.5 198.774 551.5 227.956 589.5 c 0
 238.976 604.5 265.138 627.5 283.817 637.5 c 0
 305.765 648.5 319.229 646.5 313.406 628.5 c 0
EndSplineSet
EndChar
StartChar: uniFB31
Encoding: 357 64305 196
Width: 498
Flags: W
Validated: 33
HStem: 0.5 160<126.613 432.849> 262.5 75.5<287.425 330.566 330.701 353.093>
VStem: 282.519 76<275.688 344.604>
Fore
330.566 338 m 1
 330.701 338.5 l 1
 351.701 338.5 364.146 321.5 358.519 300.5 c 0
 352.892 279.5 331.337 262.5 310.337 262.5 c 0
 289.337 262.5 276.892 279.5 282.519 300.5 c 0
 288.146 321.5 309.701 338.5 330.566 338 c 1
520.006 160.5 m 2
 536.006 160.5 539.595 151.5 530.111 138.5 c 2
 450.761 21.5 l 2
 442.01 7.5 430.134 0.5 414.134 0.5 c 2
 40.1338 0.5 l 2
 24.1338 0.5 20.5459 9.5 29.0293 22.5 c 2
 108.379 139.5 l 2
 118.13 153.5 129.006 160.5 145.006 160.5 c 2
 446.006 160.5 l 2
 455.006 160.5 462.273 161.5 466.293 176.5 c 0
 485.71 241.5 507.132 362.5 475.242 396.5 c 0
 413.927 462.5 299.084 429.5 241.64 446.5 c 0
 188.927 462.5 191.037 496.5 191.932 518.5 c 0
 193.918 559.5 212.1 597.5 235.406 628.5 c 0
 252.301 650.5 263.033 649.5 267.21 631.5 c 0
 274.832 596.5 311.439 602.5 348.903 600.5 c 0
 399.1 597.5 497.172 601.5 532.291 538.5 c 0
 572.267 467.5 537.682 323.5 492.757 174.5 c 1
 492.757 174.5 490.006 160.5 504.006 160.5 c 2
 520.006 160.5 l 2
EndSplineSet
EndChar
StartChar: uniFB32
Encoding: 358 64306 197
Width: 339
Flags: W
Validated: 33
HStem: 0.5 21G<20.1338 164.134> 262.5 75.5<197.425 240.566 240.701 263.093>
VStem: 192.519 76<275.688 344.604>
Fore
240.566 338 m 1
 240.701 338.5 l 1
 261.701 338.5 274.146 321.5 268.519 300.5 c 0
 262.892 279.5 241.337 262.5 220.337 262.5 c 0
 199.337 262.5 186.892 279.5 192.519 300.5 c 0
 198.146 321.5 219.701 338.5 240.566 338 c 1
192.761 21.5 m 2
 183.01 7.5 172.134 0.5 156.134 0.5 c 2
 28.1338 0.5 l 2
 12.1338 0.5 8.5459 9.5 17.0293 22.5 c 2
 96.3789 139.5 l 2
 106.13 153.5 117.006 160.5 133.006 160.5 c 2
 239.006 160.5 l 2
 260.006 160.5 274.222 172.5 280.116 194.5 c 0
 303.16 280.5 315.414 322.5 343.313 400.5 c 1
 343.313 400.5 351.209 422.5 329.013 425.5 c 0
 291.62 431.5 256.96 436.5 236.658 461.5 c 0
 228.606 472.5 221.894 488.5 221.448 505.5 c 0
 220.271 523.5 225.631 543.5 229.649 558.5 c 0
 237.812 581.5 252.779 607.5 262.727 618.5 c 0
 292.301 650.5 304.104 653.5 315.334 624.5 c 0
 321.976 604.5 348.367 598.5 360.296 594.5 c 0
 398.616 584.5 417.649 558.5 415.075 526.5 c 0
 412.233 493.5 381.783 454.5 371.457 408.5 c 0
 352.146 321.5 364.867 208.5 357.81 163.5 c 0
 349.608 110.5 339.57 80.5 304.101 26.5 c 0
 271.971 -22.5 264.01 7.5 265.637 28.5 c 0
 268.675 58.5 272.929 100.5 272.288 120.5 c 0
 272.039 134.5 263.432 128.5 255.216 116.5 c 2
 192.761 21.5 l 2
EndSplineSet
EndChar
StartChar: uniFB33
Encoding: 359 64307 198
Width: 523
Flags: W
Validated: 33
HStem: 262.5 75.5<335.425 378.566 378.701 401.093> 440.5 160<276.151 506.016 554.3 599.639>
VStem: 330.519 76<275.688 344.604>
Fore
378.566 338 m 1
 378.701 338.5 l 1
 399.701 338.5 412.146 321.5 406.519 300.5 c 0
 400.892 279.5 379.337 262.5 358.337 262.5 c 0
 337.337 262.5 324.892 279.5 330.519 300.5 c 0
 336.146 321.5 357.701 338.5 378.566 338 c 1
333.903 600.5 m 2
 577.903 600.5 l 2
 637.903 600.5 634.989 563.5 625.271 523.5 c 0
 617.357 486.5 601.175 448.5 554.3 441.5 c 0
 539.764 439.5 537.28 426.5 537.28 426.5 c 1
 531.15 377.5 511.403 210.5 502.666 155.5 c 0
 499.771 133.5 485.766 77.5 442.493 20.5 c 0
 415.579 -16.5 381.454 -9.5 391.833 25.5 c 2
 506.28 426.5 l 2
 509.031 440.5 502.031 440.5 494.031 440.5 c 2
 226.031 440.5 l 2
 181.031 440.5 169.965 492.5 171.859 514.5 c 0
 173.97 548.5 196.1 597.5 220.406 628.5 c 0
 236.301 650.5 248.033 649.5 251.21 631.5 c 0
 259.832 596.5 295.903 600.5 333.903 600.5 c 2
EndSplineSet
EndChar
StartChar: uniFB34
Encoding: 360 64308 199
Width: 561
Flags: W
Validated: 33
HStem: 262.5 75.5<321.425 364.566 364.701 387.093> 440.5 160<284.871 541.233 588.8 634.661>
VStem: 316.519 76<275.688 344.604>
Fore
364.566 338 m 1
 364.701 338.5 l 1
 385.701 338.5 398.146 321.5 392.519 300.5 c 0
 386.892 279.5 365.337 262.5 344.337 262.5 c 0
 323.337 262.5 310.892 279.5 316.519 300.5 c 0
 322.146 321.5 343.701 338.5 364.566 338 c 1
342.903 600.5 m 2
 613.403 600.5 l 2
 673.403 600.5 670.489 563.5 660.771 523.5 c 0
 651.857 486.5 635.675 448.5 588.8 441.5 c 0
 575.264 439.5 572.78 426.5 572.78 426.5 c 1
 566.65 377.5 558.903 210.5 550.166 155.5 c 0
 547.271 133.5 533.266 77.5 489.993 20.5 c 0
 463.079 -16.5 428.954 -9.5 439.333 25.5 c 2
 540.78 426.5 l 2
 544.531 440.5 537.531 440.5 529.531 440.5 c 2
 235.531 440.5 l 2
 189.531 440.5 178.465 492.5 180.359 514.5 c 0
 182.47 548.5 205.6 597.5 228.906 628.5 c 0
 245.801 650.5 256.533 649.5 260.71 631.5 c 0
 268.332 596.5 304.403 600.5 342.903 600.5 c 2
54.8682 27.5 m 0
 85.9121 113.5 96.2568 174.5 122.674 239.5 c 0
 137.052 274.5 161.091 304.5 185.718 325.5 c 0
 220.756 355.5 227.789 329.5 217.431 309.5 c 0
 204.999 285.5 201.033 259.5 194.994 229.5 c 0
 179.042 162.5 160.965 102.5 102.601 26.5 c 0
 68.8105 -17.5 40.8828 -13.5 54.8682 27.5 c 0
EndSplineSet
EndChar
StartChar: afii57723
Encoding: 361 64309 200
Width: 266
Flags: W
Validated: 33
HStem: 262.5 75.5<125.425 168.566 168.701 191.093>
VStem: 120.519 76<275.688 344.604>
Fore
168.566 338 m 1
 168.701 338.5 l 1
 189.701 338.5 202.146 321.5 196.519 300.5 c 0
 190.892 279.5 169.337 262.5 148.337 262.5 c 0
 127.337 262.5 114.892 279.5 120.519 300.5 c 0
 126.146 321.5 147.701 338.5 168.566 338 c 1
361.271 523.5 m 0
 358.089 485.5 340.175 448.5 308.137 418.5 c 0
 302.529 412.5 292.582 401.5 291.634 390.5 c 0
 284.414 322.5 270.403 210.5 261.666 155.5 c 0
 258.771 133.5 244.766 77.5 201.493 20.5 c 0
 174.579 -16.5 140.454 -9.5 150.833 25.5 c 2
 150.833 25.5 224.944 268.5 260.17 392.5 c 0
 264.921 406.5 259.404 419.5 247.477 423.5 c 0
 232.548 427.5 207.691 435.5 194.64 446.5 c 0
 180.854 458.5 171.678 476.5 171.037 496.5 c 0
 170.128 515.5 176.631 543.5 181.649 558.5 c 0
 188.812 581.5 203.779 607.5 213.727 618.5 c 0
 242.301 650.5 255.104 653.5 265.334 624.5 c 0
 272.976 604.5 298.367 598.5 311.296 594.5 c 0
 349.616 584.5 363.578 554.5 361.271 523.5 c 0
EndSplineSet
EndChar
StartChar: uniFB36
Encoding: 362 64310 201
Width: 291
Flags: W
Validated: 33
HStem: 262.5 75.5<99.425 142.566 142.701 165.093>
VStem: 94.5186 76<275.688 344.604>
Fore
142.566 338 m 1
 142.701 338.5 l 1
 163.701 338.5 176.146 321.5 170.519 300.5 c 0
 164.892 279.5 143.337 262.5 122.337 262.5 c 0
 101.337 262.5 88.8916 279.5 94.5186 300.5 c 0
 100.146 321.5 121.701 338.5 142.566 338 c 1
177.375 292.5 m 0
 198.041 343.5 213.936 365.5 234.921 406.5 c 0
 244.744 424.5 241.96 436.5 230.764 439.5 c 0
 213.104 444.5 198.247 452.5 188.194 463.5 c 0
 177.874 473.5 172.894 488.5 171.448 505.5 c 0
 171.271 523.5 175.631 543.5 180.649 558.5 c 0
 187.812 581.5 203.779 607.5 213.727 618.5 c 0
 242.301 650.5 252.373 654.5 271.066 623.5 c 0
 277.583 610.5 306.439 602.5 322.903 600.5 c 0
 362.563 595.5 383.009 578.5 392.846 555.5 c 0
 400.755 536.5 394.572 498.5 380.73 465.5 c 0
 363.744 424.5 351.137 418.5 341.477 423.5 c 0
 330.816 428.5 317.888 432.5 299.353 430.5 c 0
 284.353 430.5 273.137 418.5 265.313 400.5 c 0
 241.505 341.5 251.878 320.5 250.48 270.5 c 0
 249.619 222.5 246.312 191.5 216.752 118.5 c 0
 202.105 82.5 189.943 59.5 170.101 26.5 c 0
 146.919 -11.5 116.899 -26.5 133.244 34.5 c 0
 143.427 72.5 148.536 106.5 151.575 136.5 c 0
 156.652 196.5 153.03 231.5 177.375 292.5 c 0
EndSplineSet
EndChar
StartChar: uniFB37
Encoding: 363 64311 202
Width: 559
Flags: W
Validated: 33
HStem: 262.5 75.5<323.425 366.566 366.701 389.093> 440.5 160<283.329 539.733 587.3 633.161>
VStem: 318.519 76<275.688 344.604>
Fore
366.566 338 m 1
 366.701 338.5 l 1
 387.701 338.5 400.146 321.5 394.519 300.5 c 0
 388.892 279.5 367.337 262.5 346.337 262.5 c 0
 325.337 262.5 312.892 279.5 318.519 300.5 c 0
 324.146 321.5 345.701 338.5 366.566 338 c 1
276.031 440.5 m 1
 257.548 427.5 239.85 402.5 231.759 383.5 c 0
 208.558 330.5 197.246 243.5 192.083 220.5 c 0
 177.13 153.5 168.465 102.5 110.101 26.5 c 0
 76.3105 -17.5 48.3828 -13.5 62.3682 27.5 c 0
 93.4121 113.5 105.849 193.5 127.533 259.5 c 0
 143.126 306.5 164.543 371.5 231.031 440.5 c 1
 167.979 451.5 176.965 492.5 178.859 514.5 c 0
 180.97 548.5 204.1 597.5 227.406 628.5 c 0
 244.301 650.5 255.033 649.5 259.21 631.5 c 0
 266.832 596.5 302.903 600.5 340.903 600.5 c 2
 611.903 600.5 l 2
 671.903 600.5 668.989 563.5 659.271 523.5 c 0
 650.357 486.5 634.175 448.5 587.3 441.5 c 0
 573.764 439.5 571.28 426.5 571.28 426.5 c 1
 565.15 377.5 557.403 210.5 548.666 155.5 c 0
 545.771 133.5 531.766 77.5 488.493 20.5 c 0
 461.579 -16.5 427.454 -9.5 437.833 25.5 c 2
 539.28 426.5 l 2
 543.031 440.5 536.031 440.5 528.031 440.5 c 2
 276.031 440.5 l 1
EndSplineSet
EndChar
StartChar: uniFB38
Encoding: 364 64312 203
Width: 576
Flags: W
Validated: 33
HStem: 0 160<183.23 532.423> 238 76<399.38 464.528>
VStem: 393.954 76<251.188 320.482>
Fore
442.136 314 m 0
 463.136 314 475.581 297 469.954 276 c 0
 464.327 255 442.771 238 421.771 238 c 0
 400.771 238 388.327 255 393.954 276 c 0
 399.581 297 421.136 314 442.136 314 c 0
219.897 440 m 0
 204.237 445 199.041 448 189.524 461 c 0
 180.472 472 174.759 488 173.314 505 c 0
 173.138 523 177.496 543 182.516 558 c 0
 189.679 581 205.646 607 215.593 618 c 0
 244.167 650 255.971 653 267.2 624 c 0
 273.842 604 300.233 598 313.162 594 c 0
 338.286 587 356.535 573 363.443 554 c 0
 372.353 535 366.438 498 352.597 465 c 0
 335.61 424 315.056 407 305.396 412 c 0
 294.467 416 292.539 420 276.807 421 c 0
 267.074 422 258.199 415 253.323 408 c 0
 228.213 374 214.71 346 205.064 310 c 0
 193.203 262 188.433 233 183.23 180 c 1
 183.23 180 181.872 160 202.872 160 c 2
 540.872 160 l 1
 540.872 160 561.14 161 569.499 181 c 0
 600.471 263 608.888 328 578.356 382 c 0
 556.539 420 509.113 452 464.218 430 c 0
 429.663 413 392.854 354 362.098 284 c 0
 356.347 270 348.471 263 339.007 265 c 0
 331.274 266 327.418 274 332.901 287 c 0
 373.912 399 426.582 506 482.697 596 c 1
 482.697 596 494.057 616 515.521 614 c 0
 608.109 605 651.745 529 646.625 383 c 0
 642.471 263 584.226 124 532.431 24 c 1
 532.431 24 522 0 496 0 c 2
 106 0 l 1
 106 0 84.2676 1 88.3594 20 c 0
 108.35 117 119.068 157 139.987 250 c 0
 151.117 299 191.873 369 223.396 412 c 0
 230.807 421 235.558 435 219.897 440 c 0
EndSplineSet
EndChar
StartChar: uniFB39
Encoding: 365 64313 204
Width: 266
Flags: W
Validated: 33
HStem: 332.5 75.5<148.181 191.323 191.457 213.849>
VStem: 143.275 76<345.688 414.604>
Fore
191.323 408 m 1
 191.457 408.5 l 1
 212.457 408.5 224.902 391.5 219.275 370.5 c 0
 213.648 349.5 192.093 332.5 171.093 332.5 c 0
 150.093 332.5 137.648 349.5 143.275 370.5 c 0
 148.902 391.5 170.457 408.5 191.323 408 c 1
341.404 419.5 m 0
 327.634 390.5 301.792 357.5 268.949 324.5 c 0
 256.734 312.5 240.179 295.5 231.591 304.5 c 0
 221.27 314.5 235.896 335.5 243.309 344.5 c 0
 265.543 371.5 282.634 390.5 273.333 415.5 c 0
 264.96 436.5 243.156 433.5 219.371 445.5 c 0
 198.318 456.5 179.874 473.5 174.252 508.5 c 0
 171.147 530.5 178.722 562.5 185.276 579.5 c 0
 194.976 604.5 204.994 619.5 218.21 631.5 c 0
 244.373 654.5 252.229 646.5 258.87 626.5 c 0
 266.511 606.5 278.367 598.5 303.76 592.5 c 0
 327.42 587.5 353.133 571.5 361.095 541.5 c 0
 373.108 500.5 359.854 458.5 341.404 419.5 c 0
EndSplineSet
EndChar
StartChar: uniFB3A
Encoding: 366 64314 205
Width: 496
Flags: W
Validated: 33
HStem: 262.5 75.5<329.425 372.566 372.701 395.093> 440.5 160<276.151 478.733 526.3 572.161>
VStem: 324.519 76<275.688 344.604>
Fore
372.566 338 m 1
 372.701 338.5 l 1
 393.701 338.5 406.146 321.5 400.519 300.5 c 0
 394.892 279.5 373.337 262.5 352.337 262.5 c 0
 331.337 262.5 318.892 279.5 324.519 300.5 c 0
 330.146 321.5 351.701 338.5 372.566 338 c 1
333.903 600.5 m 2
 550.903 600.5 l 2
 610.903 600.5 607.989 563.5 598.271 523.5 c 0
 589.357 486.5 573.175 448.5 526.3 441.5 c 0
 512.764 439.5 510.28 426.5 510.28 426.5 c 1
 504.15 377.5 406.378 -69.5 398.641 -124.5 c 0
 394.745 -146.5 381.74 -202.5 338.467 -259.5 c 0
 310.553 -296.5 277.429 -289.5 287.807 -254.5 c 2
 478.28 426.5 l 2
 482.031 440.5 475.031 440.5 467.031 440.5 c 2
 226.031 440.5 l 2
 181.031 440.5 169.965 492.5 171.859 514.5 c 0
 173.97 548.5 196.1 597.5 220.406 628.5 c 0
 236.301 650.5 248.033 649.5 251.21 631.5 c 0
 259.832 596.5 295.903 600.5 333.903 600.5 c 2
EndSplineSet
EndChar
StartChar: uniFB3B
Encoding: 367 64315 206
Width: 501
Flags: W
Validated: 33
HStem: 0.5 160<122.927 398.953> 262.5 75.5<305.425 348.566 348.701 371.093>
VStem: 300.519 76<275.688 344.604>
Fore
348.566 338 m 1
 348.701 338.5 l 1
 369.701 338.5 382.146 321.5 376.519 300.5 c 0
 370.892 279.5 349.337 262.5 328.337 262.5 c 0
 307.337 262.5 294.892 279.5 300.519 300.5 c 0
 306.146 321.5 327.701 338.5 348.566 338 c 1
528.705 185.5 m 1
 528.935 185.5 l 1
 521.771 162.5 508.948 144.5 508.948 144.5 c 1
 417.991 21.5 l 2
 407.508 8.5 397.364 0.5 381.364 0.5 c 2
 36.3643 0.5 l 2
 20.3643 0.5 16.7764 9.5 26.2598 22.5 c 2
 105.609 139.5 l 2
 114.36 153.5 125.236 160.5 141.236 160.5 c 2
 478.236 160.5 l 2
 487.236 160.5 494.504 161.5 498.523 176.5 c 0
 518.208 242.5 522.605 292.5 516.591 333.5 c 0
 511.041 372.5 488.615 404.5 459.171 421.5 c 0
 401.013 454.5 294.118 432.5 248.869 446.5 c 0
 196.157 462.5 198.268 496.5 199.162 518.5 c 0
 201.148 559.5 219.33 597.5 242.637 628.5 c 0
 259.531 650.5 270.264 649.5 274.439 631.5 c 0
 282.062 596.5 318.669 602.5 357.134 600.5 c 0
 405.062 596.5 527.205 604.5 563.913 532.5 c 0
 600.621 460.5 571.251 328.5 528.705 185.5 c 1
EndSplineSet
EndChar
StartChar: uniFB3C
Encoding: 368 64316 207
Width: 510
Flags: W
Validated: 33
HStem: -4.5 21G<236.794 265.794> 288.5 75.5<296.392 339.533 339.668 362.06> 440.5 160<244.989 529.391>
VStem: 275.321 84.3877<825.371 889.942> 291.485 76<301.688 370.604>
Fore
339.533 364 m 1xe8
 339.668 364.5 l 1
 360.668 364.5 373.112 347.5 367.485 326.5 c 0
 361.858 305.5 340.304 288.5 319.304 288.5 c 0
 298.304 288.5 285.858 305.5 291.485 326.5 c 0
 297.112 347.5 318.668 364.5 339.533 364 c 1xe8
275.321 874.5 m 0xf0
 281.608 890.5 287.824 902.5 307.021 899.5 c 0
 355.877 891.5 365.336 833.5 359.709 812.5 c 0
 353.01 787.5 301.703 756.5 284.612 737.5 c 0
 267.521 718.5 264.162 698.5 251.837 652.5 c 0
 243.263 620.5 232.903 600.5 276.903 600.5 c 2
 546.903 600.5 l 2
 590.903 600.5 620.152 586.5 615.898 544.5 c 0
 609.75 480.5 593.836 443.5 578.562 386.5 c 0
 560.609 319.5 480.944 268.5 401.136 209.5 c 0
 378.849 193.5 335.666 155.5 311.197 101.5 c 0
 302.105 82.5 314.158 71.5 307.995 48.5 c 0
 300.493 20.5 280.794 -4.5 250.794 -4.5 c 0
 222.794 -4.5 208.689 17.5 213.191 45.5 c 0
 220.249 90.5 282.934 156.5 309.025 175.5 c 0
 478.715 297.5 512.878 320.5 525.347 374.5 c 0
 535.137 418.5 534.031 440.5 477.031 440.5 c 2
 234.031 440.5 l 2
 176.031 440.5 159.606 472.5 171.396 516.5 c 0
 199.799 622.5 214.215 687.5 233.789 719.5 c 0
 258.775 760.5 284.919 768.5 288.206 784.5 c 0
 291.493 800.5 266.244 814.5 263.46 826.5 c 0
 261.336 833.5 269.034 858.5 275.321 874.5 c 0xf0
EndSplineSet
EndChar
StartChar: uniFB3D
Encoding: 369 64317 208
Width: 542
Flags: W
Validated: 33
HStem: 0.5 160<166.01 505.139> 262.5 75.5<331.425 374.566 374.701 397.093> 440.5 160<286.871 543.472>
VStem: 326.519 76<275.688 344.604>
Fore
374.566 338 m 1
 374.701 338.5 l 1
 395.701 338.5 408.146 321.5 402.519 300.5 c 0
 396.892 279.5 375.337 262.5 354.337 262.5 c 0
 333.337 262.5 320.892 279.5 326.519 300.5 c 0
 332.146 321.5 353.701 338.5 374.566 338 c 1
344.903 600.5 m 2
 539.403 600.5 l 2
 627.403 600.5 638.504 522.5 616.531 440.5 c 2
 505.333 25.5 l 2
 501.313 10.5 489.634 0.5 468.634 0.5 c 2
 78.6338 0.5 l 2
 62.6338 0.5 54.2412 6.5 59.6006 26.5 c 2
 117.941 240.5 l 2
 145.005 341.5 201.153 405.5 236.531 440.5 c 1
 183.531 440.5 180.465 492.5 182.359 514.5 c 0
 185.47 548.5 207.6 597.5 230.906 628.5 c 0
 247.801 650.5 258.533 649.5 262.71 631.5 c 0
 270.332 596.5 306.403 600.5 344.903 600.5 c 2
271.531 440.5 m 1
 248.761 411.5 214.703 366.5 196.215 297.5 c 2
 166.204 185.5 l 2
 161.917 169.5 167.506 160.5 185.506 160.5 c 2
 481.506 160.5 l 2
 496.506 160.5 510.382 167.5 516.276 189.5 c 2
 557.809 344.5 l 2
 571.206 394.5 545.531 440.5 487.531 440.5 c 2
 271.531 440.5 l 1
EndSplineSet
EndChar
StartChar: uniFB3E
Encoding: 370 64318 209
Width: 581
Flags: W
Validated: 33
HStem: 1 160<248.214 494.646> 262.5 75.5<369.425 412.566 412.701 435.093>
VStem: 364.519 76<275.688 344.604>
Fore
412.566 338 m 1
 412.701 338.5 l 1
 433.701 338.5 446.146 321.5 440.519 300.5 c 0
 434.892 279.5 413.337 262.5 392.337 262.5 c 0
 371.337 262.5 358.892 279.5 364.519 300.5 c 0
 370.146 321.5 391.701 338.5 412.566 338 c 1
202.419 378.5 m 1
 202.343 379 l 1
 180.846 407 165.1 449 170.138 479 c 0
 175.784 515 182.019 542 212.004 583 c 0
 229.167 606 246.919 620 262.866 631 c 0
 283.35 644 296.741 638 297.114 617 c 0
 297.56 600 315.612 589 326.272 584 c 0
 347.593 574 361.019 542 358.941 482 c 0
 359.065 475 363.922 467 374.53 473 c 0
 414.961 497 440.109 561 455.096 602 c 0
 461.383 618 472.526 626 485.258 625 c 0
 569.65 619 606.2 580 627.946 538 c 0
 671.243 457 653.409 327 617.629 186 c 0
 613.342 170 597.643 145 597.643 145 c 1
 513.685 22 l 2
 503.201 9 493.058 1 477.058 1 c 2
 161.058 1 l 2
 145.058 1 141.47 10 150.953 23 c 2
 230.303 140 l 2
 239.054 154 250.93 161 266.93 161 c 2
 562.93 161 l 2
 571.93 161 580.806 168 583.217 177 c 0
 595.614 227 611.605 324 563.022 389 c 0
 519.563 447 463.367 450 422.367 450 c 0
 363.367 450 276.113 408 238.912 355 c 0
 177.064 266 183.7 190 154.729 108 c 0
 144.958 79 132.795 56 117.9 34 c 0
 93.2539 -2 63.1631 -21 71.5801 44 c 0
 77.9053 90 85.3555 129 109.433 189 c 0
 132.974 247 169.515 305 200.232 345 c 0
 209.448 357 209.663 369 202.419 378.5 c 1
EndSplineSet
EndChar
StartChar: uniFB3F
Encoding: 371 64319 210
Width: 273
Flags: W
Validated: 33
HStem: 262.5 75.5<109.425 152.566 152.701 175.093>
VStem: 104.519 76<275.688 344.604>
Fore
152.566 338 m 1
 152.701 338.5 l 1
 173.701 338.5 186.146 321.5 180.519 300.5 c 0
 174.892 279.5 153.337 262.5 132.337 262.5 c 0
 111.337 262.5 98.8916 279.5 104.519 300.5 c 0
 110.146 321.5 131.701 338.5 152.566 338 c 1
201.907 447.5 m 1
 201.889 447.43 l 1
 185.3 456.43 173.927 477.43 172.018 496.43 c 0
 170.645 517.43 174.736 536.43 180.023 552.43 c 0
 186.918 574.43 205.761 607.43 215.708 618.43 c 0
 244.282 650.43 256.086 653.43 267.315 624.43 c 0
 273.957 604.43 300.885 600.43 313.812 596.43 c 0
 340.205 590.43 356.865 585.43 368.578 569.43 c 0
 395.004 537.43 363.783 469.43 324.477 438.43 c 0
 307.993 425.43 297.511 412.43 297.511 412.43 c 1
 272.132 377.43 253.969 354.43 241.395 322.43 c 0
 224.069 276.43 216.188 213.43 210.987 160.43 c 0
 203.354 83.4297 175.071 -85.5703 157.746 -131.57 c 0
 141.76 -172.57 115.042 -212.57 67.377 -263.57 c 0
 42.4102 -289.57 21.5537 -281.57 30.5205 -255.57 c 0
 53.9365 -190.57 79.8369 -112.57 104.685 -23.5703 c 0
 133.479 76.4297 137.484 132.43 167.279 232.43 c 0
 187.232 299.43 210.825 346.43 262.046 414.43 c 0
 266.654 420.43 269.798 428.43 259.333 430.43 c 0
 239.138 433.43 221.941 436.43 201.907 447.5 c 1
EndSplineSet
EndChar
StartChar: uniFB40
Encoding: 372 64320 211
Width: 347
Flags: W
Validated: 33
HStem: 0.5 160<111.613 252.41> 262.5 75.5<195.425 238.566 238.701 261.093>
VStem: 190.519 76<275.688 344.604>
Fore
238.566 338 m 1
 238.701 338.5 l 1
 259.701 338.5 272.146 321.5 266.519 300.5 c 0
 260.892 279.5 239.337 262.5 218.337 262.5 c 0
 197.337 262.5 184.892 279.5 190.519 300.5 c 0
 196.146 321.5 217.701 338.5 238.566 338 c 1
217.134 0.5 m 2
 24.1338 0.5 l 2
 8.13379 0.5 5.5459 9.5 14.0293 22.5 c 2
 93.3789 139.5 l 2
 103.13 153.5 114.006 160.5 130.006 160.5 c 2
 255.006 160.5 l 2
 273.006 160.5 280.686 170.5 283.437 184.5 c 0
 305.982 298.5 317.414 322.5 345.313 400.5 c 1
 345.313 400.5 352.209 422.5 331.013 425.5 c 0
 292.62 431.5 262.96 436.5 243.658 461.5 c 0
 234.606 472.5 228.894 488.5 227.448 505.5 c 0
 227.271 523.5 231.631 543.5 236.649 558.5 c 0
 243.812 581.5 259.779 607.5 269.727 618.5 c 0
 298.301 650.5 314.104 653.5 325.334 624.5 c 0
 331.976 604.5 364.367 598.5 376.296 594.5 c 0
 414.616 584.5 434.649 558.5 433.075 526.5 c 0
 429.927 462.5 386.96 436.5 379.457 408.5 c 0
 358.896 335.5 381.017 272.5 360.293 176.5 c 0
 349.092 123.5 340.91 85.5 308.388 42.5 c 0
 276.134 0.5 234.134 0.5 217.134 0.5 c 2
EndSplineSet
EndChar
StartChar: uniFB41
Encoding: 373 64321 212
Width: 512
Flags: W
Validated: 33
HStem: 0.5 160<160.053 413.585> 262.5 75.5<321.425 364.566 364.701 387.093> 440.5 160<288.355 400.565 400.565 461.126>
VStem: 316.519 76<275.688 344.604>
Fore
364.566 338 m 1
 364.701 338.5 l 1
 385.701 338.5 398.146 321.5 392.519 300.5 c 0
 386.892 279.5 365.337 262.5 344.337 262.5 c 0
 323.337 262.5 310.892 279.5 316.519 300.5 c 0
 322.146 321.5 343.701 338.5 364.566 338 c 1
344.903 600.5 m 2
 345.403 600.5 l 2
 393.332 596.5 540.619 612.5 577.326 540.5 c 0
 614.767 467.5 579.058 330.5 537.473 186.5 c 0
 531.917 169.5 522.826 150.5 511.539 134.5 c 2
 435.529 22.5 l 2
 427.313 10.5 411.634 0.5 394.634 0.5 c 2
 88.6338 0.5 l 2
 72.6338 0.5 65.7773 8.5 70.333 25.5 c 0
 75.4951 48.5 83.6055 82.5 88.5723 108.5 c 0
 106.367 208.5 93.4531 171.5 111.746 243.5 c 0
 126.822 303.5 214.101 416.5 244.531 440.5 c 1
 195.211 450.5 186.537 496.5 187.432 518.5 c 0
 189.418 559.5 207.6 597.5 230.906 628.5 c 0
 247.801 650.5 258.533 649.5 262.71 631.5 c 0
 270.332 596.5 306.939 602.5 344.903 600.5 c 2
281.531 440.5 m 1
 229.062 386.5 187.736 340.5 170.712 269.5 c 0
 163.602 235.5 161.387 223.5 156.204 185.5 c 0
 153.042 162.5 163.506 160.5 177.506 160.5 c 2
 473.506 160.5 l 2
 491.506 160.5 501.186 170.5 505.205 185.5 c 0
 522.621 250.5 551.076 345.5 534.33 387.5 c 0
 525.493 410.5 492.656 433.5 455.46 436.5 c 0
 408.531 440.5 328.8 441.5 281.531 440.5 c 1
EndSplineSet
EndChar
StartChar: uniFB42
Encoding: 374 64322 213
Width: 552
Flags: W
Validated: 33
HStem: 0 160<146.157 276.08 305.435 412.156> 286.5 75.5<365.856 408.998 409.132 431.523>
VStem: 360.949 76<299.688 368.604>
Fore
349 0 m 2
 59 0 l 2
 43 0 39.4111 9 48.8945 22 c 2
 128.245 139 l 2
 136.996 153 148.872 160 164.872 160 c 2
 238.872 160 l 2
 269.872 160 284.767 182 271.197 206 c 0
 254.04 239 233.308 240 223.294 281 c 0
 211.744 320 231.677 372 246.252 404 c 0
 255.61 424 250.558 435 240.094 437 c 0
 219.63 439 204.505 446 193.185 456 c 0
 182.597 465 175.348 479 172.902 496 c 0
 170.726 514 173.817 533 176.836 548 c 0
 181.999 571 194.966 597 205.181 609 c 0
 231.291 643 244.043 657 266.86 619 c 0
 274.377 606 301.306 602 318.037 601 c 0
 358.77 600 380.75 585 393.123 564 c 0
 403.032 545 401.118 508 390.275 475 c 0
 376.29 434 363.414 427 353.486 431 c 0
 342.558 435 328.094 437 310.29 434 c 0
 294.754 432 283.271 419 278.716 402 c 0
 265.39 356 277.352 326 297.921 302 c 0
 321.418 274 327.217 221 305.695 178 c 0
 300.016 168 301.872 160 312.872 160 c 2
 374.872 160 l 2
 402.872 160 412.767 182 424.197 206 c 0
 440.576 241 460.49 278 479.796 309 c 0
 495.228 333 513.998 362 537.716 402 c 0
 545.734 417 544.61 424 529.414 427 c 0
 511.754 432 492.361 438 474.524 461 c 0
 465.472 472 459.759 488 458.314 505 c 0
 457.138 523 462.496 543 466.516 558 c 0
 474.679 581 489.646 607 500.593 618 c 0
 529.167 650 541.971 653 553.2 624 c 0
 560.842 604 588.233 598 600.162 594 c 0
 639.482 584 659.319 561 657.941 526 c 0
 656.242 501 648.721 458 601.486 431 c 0
 589.879 425 575.396 412 569.716 402 c 0
 540.318 352 510.241 292 489.236 236 c 0
 472.714 193 451.082 116 436.561 73 c 0
 419.895 22 394 0 349 0 c 2
408.998 362 m 1
 409.132 362.5 l 1
 430.132 362.5 442.576 345.5 436.949 324.5 c 0
 431.322 303.5 409.768 286.5 388.768 286.5 c 0
 367.768 286.5 355.322 303.5 360.949 324.5 c 0
 366.576 345.5 388.132 362.5 408.998 362 c 1
EndSplineSet
EndChar
StartChar: uniFB43
Encoding: 375 64323 214
Width: 493
Flags: W
Validated: 33
HStem: 302.5 75.5<344.143 387.285 387.419 409.811> 440.5 160<300.151 502.067>
VStem: 339.236 76<315.688 384.604>
Fore
387.285 378 m 1
 387.419 378.5 l 1
 408.419 378.5 420.863 361.5 415.236 340.5 c 0
 409.609 319.5 388.055 302.5 367.055 302.5 c 0
 346.055 302.5 333.609 319.5 339.236 340.5 c 0
 344.863 361.5 366.419 378.5 387.285 378 c 1
222.031 440.5 m 1
 196.194 463.5 193.965 492.5 195.859 514.5 c 0
 197.97 548.5 220.1 597.5 244.406 628.5 c 0
 260.301 650.5 272.033 649.5 275.21 631.5 c 0
 283.832 596.5 319.903 600.5 357.903 600.5 c 2
 496.903 600.5 l 2
 552.903 600.5 579.382 557.5 568.181 504.5 c 2
 425.262 -159.5 l 2
 415.133 -208.5 386.486 -244.5 350.788 -269.5 c 0
 329.036 -283.5 312.232 -286.5 320.735 -258.5 c 2
 501.845 346.5 l 2
 518.51 397.5 506.031 440.5 456.031 440.5 c 2
 262.031 440.5 l 1
 232.209 422.5 192.203 366.5 187.806 316.5 c 0
 183.944 268.5 234.944 268.5 283.212 269.5 c 0
 314.48 270.5 334.854 249.5 332.743 215.5 c 0
 331.169 183.5 319.059 149.5 279.432 128.5 c 0
 239.805 107.5 171.216 116.5 140.824 122.5 c 1
 128.948 115.5 115.732 103.5 96.5176 91.5 c 0
 85.6416 84.5 72.8379 81.5 66.9814 89.5 c 0
 61.125 97.5 68.6084 110.5 78.4844 117.5 c 0
 96.9678 130.5 95.4316 128.5 111.915 141.5 c 1
 88.4561 199.5 103.925 253.5 118.911 294.5 c 0
 141.523 356.5 184.333 415.5 222.031 440.5 c 1
EndSplineSet
EndChar
StartChar: uniFB44
Encoding: 376 64324 215
Width: 491
Flags: W
Validated: 33
HStem: 0.19043 160<121.53 395.948> 238.5 75.5<400.994 444.136 444.27 466.662>
VStem: 396.088 76<251.688 320.604>
Fore
444.136 314 m 1
 444.27 314.5 l 1
 465.27 314.5 477.715 297.5 472.088 276.5 c 0
 466.461 255.5 444.906 238.5 423.906 238.5 c 0
 402.906 238.5 390.461 255.5 396.088 276.5 c 0
 401.715 297.5 423.27 314.5 444.136 314 c 1
272.836 443.5 m 1
 272.752 443.19 l 1
 246.805 432.19 237.054 418.19 233.23 400.19 c 0
 226.656 368.19 279.192 370.19 327.46 371.19 c 0
 358.728 372.19 379.102 351.19 376.991 317.19 c 0
 375.416 285.19 363.307 251.19 323.68 230.19 c 0
 284.053 209.19 215.464 218.19 185.071 224.19 c 1
 173.196 217.19 159.98 205.19 140.765 193.19 c 0
 129.89 186.19 117.086 183.19 111.229 191.19 c 0
 105.373 199.19 112.856 212.19 122.731 219.19 c 0
 141.215 232.19 139.68 230.19 156.162 243.19 c 1
 131.201 273.19 130.703 301.19 145.689 342.19 c 0
 164.354 393.19 208.465 427.19 246.164 452.19 c 1
 208.719 469.19 210.489 498.19 211.849 518.19 c 0
 213.835 559.19 232.017 597.19 255.323 628.19 c 0
 272.218 650.19 282.95 649.19 287.127 631.19 c 0
 294.749 596.19 331.356 602.19 368.82 600.19 c 0
 419.017 597.19 529.82 600.19 560.796 529.19 c 0
 590.111 463.19 558.938 328.19 516.621 185.19 c 0
 509.459 162.19 505.583 155.19 498.636 144.19 c 2
 414.678 21.1904 l 2
 405.194 8.19043 394.051 0.19043 378.051 0.19043 c 2
 34.0508 0.19043 l 2
 18.0508 0.19043 15.4629 9.19043 23.9463 22.1904 c 2
 103.296 139.19 l 2
 113.047 153.19 123.923 160.19 139.923 160.19 c 2
 462.923 160.19 l 2
 471.923 160.19 480.53 166.19 484.21 176.19 c 0
 503.162 243.19 523.886 339.19 504.407 382.19 c 0
 467.844 462.19 332.805 432.19 272.836 443.5 c 1
EndSplineSet
EndChar
StartChar: uniFB45
Encoding: 377 64325 216
Width: 537
Flags: W
Validated: 33
HStem: 328.5 75.5<301.11 344.252 344.386 366.777>
VStem: 296.203 76<341.688 410.604>
Fore
344.252 404 m 1
 344.386 404.5 l 1
 365.386 404.5 377.83 387.5 372.203 366.5 c 0
 366.576 345.5 345.021 328.5 324.021 328.5 c 0
 303.021 328.5 290.576 345.5 296.203 366.5 c 0
 301.83 387.5 323.386 404.5 344.252 404 c 1
226.039 134.5 m 1
 226.063 135 l 1
 219.556 51 200.847 -86 187.86 -127 c 0
 173.606 -169 147.621 -210 102.688 -262 c 0
 78.4531 -289 56.3281 -282 65.2949 -256 c 0
 85.7119 -191 107.88 -112 129.728 -23 c 0
 153.254 76 155.26 132 180.055 232 c 0
 197.007 299 215.868 347 264.089 415 c 0
 268.965 422 271.108 430 260.376 431 c 0
 240.18 434 225.448 435 205.395 446 c 0
 188.807 455 174.897 474 172.988 493 c 0
 170.615 514 173.706 533 178.726 548 c 0
 184.889 571 201.73 604 210.679 615 c 0
 238.521 648 252.468 659 263.894 627 c 0
 271.535 607 296.731 604 309.928 601 c 0
 337.588 596 351.712 589 365.692 574 c 0
 392.387 543 364.166 475 326.592 443 c 0
 309.84 429 300.356 416 300.356 416 c 1
 275.711 380 262.548 357 250.705 324 c 0
 242.471 297 235.36 263 233.25 229 c 0
 231.963 213 238.623 208 252.106 221 c 2
 477.912 433 l 2
 485.788 440 490.127 445 480.807 455 c 0
 461.166 475 457.597 499 465.439 532 c 0
 474.354 569 493.392 599 528.43 629 c 0
 553.593 652 572.593 652 574.43 629 c 0
 576.286 621 584.928 601 601.712 589 c 0
 630.621 570 646.583 540 638.937 504 c 0
 630.754 466 614.323 442 583.553 413 c 0
 568.534 398 545.711 380 538.194 393 c 0
 533.338 401 529.945 407 523.553 413 c 0
 519.625 417 512.429 420 500.481 409 c 2
 249.317 177 l 1
 237.298 162 226.742 145 226.039 134.5 c 1
EndSplineSet
EndChar
StartChar: uniFB46
Encoding: 378 64326 217
Width: 561
Flags: W
Validated: 33
HStem: 0.5 160<141.613 459.47> 194.5 75.5<231.204 274.347 274.48 296.872>
VStem: 226.298 76<207.688 276.604> 478.415 172.497<465.033 599.141>
Fore
274.347 270 m 1
 274.48 270.5 l 1
 295.48 270.5 307.925 253.5 302.298 232.5 c 0
 296.671 211.5 275.116 194.5 254.116 194.5 c 0
 233.116 194.5 220.671 211.5 226.298 232.5 c 0
 231.925 253.5 253.48 270.5 274.347 270 c 1
54.1338 0.5 m 2
 38.1338 0.5 35.5459 9.5 44.0293 22.5 c 2
 123.379 139.5 l 2
 133.13 153.5 144.006 160.5 160.006 160.5 c 2
 449.006 160.5 l 2
 464.006 160.5 464.613 166.5 459.222 172.5 c 2
 311.734 312.5 l 2
 305.609 319.5 303.485 326.5 305.165 336.5 c 0
 309.739 368.5 313.099 388.5 311.85 402.5 c 0
 311.333 415.5 312.28 426.5 290.816 428.5 c 0
 251.62 431.5 213.96 436.5 193.658 461.5 c 0
 185.606 472.5 179.894 488.5 179.448 505.5 c 0
 178.271 523.5 182.631 543.5 187.649 558.5 c 0
 194.812 581.5 210.779 607.5 220.727 618.5 c 0
 249.301 650.5 261.104 653.5 272.334 624.5 c 0
 279.976 604.5 305.367 598.5 317.296 594.5 c 0
 355.616 584.5 373.186 560.5 373.075 526.5 c 0
 372.769 495.5 357.534 468.5 346.567 442.5 c 0
 342.156 433.5 341.744 424.5 345.064 414.5 c 0
 347.653 405.5 416.969 339.5 416.969 339.5 c 2
 423.825 331.5 432.165 336.5 438.041 343.5 c 2
 496.816 428.5 l 2
 502.691 435.5 508.3 441.5 497.979 451.5 c 0
 479.07 470.5 469.572 498.5 478.415 531.5 c 0
 487.329 568.5 505.367 598.5 540.406 628.5 c 0
 566.569 651.5 584.569 651.5 587.406 628.5 c 0
 588.263 620.5 596.903 600.5 613.688 588.5 c 0
 642.597 569.5 658.559 539.5 650.912 503.5 c 0
 642.73 465.5 626.3 441.5 596.529 412.5 c 0
 580.51 397.5 557.687 379.5 551.17 392.5 c 0
 545.313 400.5 546.117 403.5 540.726 409.5 c 0
 537.064 414.5 529.94 421.5 521.457 408.5 c 2
 460.146 321.5 l 2
 450.931 309.5 451.591 304.5 459.447 296.5 c 2
 542.939 212.5 l 2
 569.705 185.5 567.556 121.5 530.622 69.5 c 0
 495.761 21.5 448.134 0.5 397.134 0.5 c 2
 54.1338 0.5 l 2
EndSplineSet
EndChar
StartChar: uniFB47
Encoding: 379 64327 218
Width: 544
Flags: W
Validated: 33
HStem: 262.5 75.5<343.425 386.566 386.701 409.093>
VStem: 338.519 76<275.688 344.604>
Fore
386.566 338 m 1
 386.701 338.5 l 1
 407.701 338.5 420.146 321.5 414.519 300.5 c 0
 408.892 279.5 387.337 262.5 366.337 262.5 c 0
 345.337 262.5 332.892 279.5 338.519 300.5 c 0
 344.146 321.5 365.701 338.5 386.566 338 c 1
346.903 600.5 m 1
 346.403 600.5 l 1
 377.332 596.5 559.619 612.5 610.791 538.5 c 0
 661.498 466.5 594.263 230.5 549.97 158.5 c 0
 530.396 126.5 482.605 82.5 427.979 61.5 c 0
 353.477 33.5 249.62 41.5 210.294 -4.5 c 0
 192.667 -25.5 173.347 -15.5 179.313 10.5 c 0
 181.457 18.5 185.94 31.5 197.495 48.5 c 0
 225.214 88.5 268.448 115.5 355.415 141.5 c 0
 425.042 162.5 470.362 152.5 515.812 191.5 c 0
 565.066 233.5 594.952 352.5 568.474 395.5 c 0
 530.818 456.5 296.584 429.5 239.14 446.5 c 0
 186.427 462.5 188.537 496.5 189.432 518.5 c 0
 191.418 559.5 209.6 597.5 232.906 628.5 c 0
 249.801 650.5 260.533 649.5 264.71 631.5 c 0
 272.332 596.5 310.476 604.5 346.903 600.5 c 1
226.345 346.5 m 0
 188.751 299.5 179.588 276.5 170.478 242.5 c 0
 140.683 142.5 131.634 0.5 108.126 -83.5 c 0
 87.834 -155.5 67.8809 -222.5 3.46484 -287.5 c 0
 -33.4492 -324.5 -45.1816 -323.5 -30.4639 -283.5 c 0
 10.6182 -167.5 11.8721 -125.5 41.2754 -19.5 c 0
 67.998 76.5 83.042 162.5 109.458 227.5 c 0
 129.052 274.5 160.182 323.5 200.56 358.5 c 0
 235.866 389.5 247.312 372.5 226.345 346.5 c 0
EndSplineSet
EndChar
StartChar: uniFB48
Encoding: 380 64328 219
Width: 502
Flags: W
Validated: 33
HStem: 262.5 75.5<357.425 400.566 400.701 423.093> 440.5 160<276.329 507.18>
VStem: 352.519 76<275.688 344.604>
Fore
400.566 338 m 1
 400.701 338.5 l 1
 421.701 338.5 434.146 321.5 428.519 300.5 c 0
 422.892 279.5 401.337 262.5 380.337 262.5 c 0
 359.337 262.5 346.892 279.5 352.519 300.5 c 0
 358.146 321.5 379.701 338.5 400.566 338 c 1
519.309 344.5 m 0
 532.706 394.5 507.031 440.5 449.031 440.5 c 2
 226.031 440.5 l 2
 181.031 440.5 169.965 492.5 171.859 514.5 c 0
 173.97 548.5 197.1 597.5 220.406 628.5 c 0
 237.301 650.5 248.033 649.5 252.21 631.5 c 0
 259.832 596.5 295.903 600.5 333.903 600.5 c 2
 466.903 600.5 l 2
 554.903 600.5 584.559 539.5 570.031 440.5 c 0
 559.812 372.5 520.867 208.5 511.398 154.5 c 0
 507.503 132.5 495.427 72.5 462.493 20.5 c 0
 438.043 -18.5 409.99 -7.5 421.101 26.5 c 2
 421.101 26.5 476.743 215.5 519.309 344.5 c 0
EndSplineSet
EndChar
